<svg xmlns="http://www.w3.org/2000/svg" viewBox="0 0 397.86 144.88"><defs><style>.cls-1{fill:#fee050;}</style></defs><title>box-decor-2-2</title><g id="Layer_2" data-name="Layer 2"><g id="Layer_1-2" data-name="Layer 1"><path class="cls-1" d="M392.2,37.4V35.83l-.63-.31-1.26-3.14-.94-.63-1.26,1.57-.63,2.2-1.26-.63-.94-2.83-2.51-.31L381.2,33l-1.26,2.2-1.26-.63L375.86,27l-.31-.94.94-2.83,1.57-1.57,2.2-.94-.31-5-1.57-.63-1.26,2.83-1.57-.63-.63-3.14.63-2.51-.31-4.4L374.6,6V2.51L374,1.57l.31-1.26L375.55,0l1.89.63.94.94,3.46,1.26,2.83.94,2.83.31,1.89,1.26v.94l2.2,1.26h1.26L395,6.29l2.51,3.46.31,2.2-.63,1.26-2.2.63-3.14-1.57-.63.63.31,1.26,2.51,3.14-1.26,2.2-5.66.94L385.6,22l1.26,2.2h1.89l3.14,3.14.63,3.14h.94V33l-1.26,1.57v1.26l1.57.94-.94.63Zm-8.49,52.17.94-1.89L390,82.34l5.66-3.46,1.89.94-.31,1.57-4.71,2.51-.31.63-2.51.94-.31,1.26,1.57,1.57,1.26.31,1.57-3.46,1.57,1.26-1.57,2.2.31,2.51-.63.94-1.57-.31L390,90.19l-2.51-.31-2.51.63-.94-.63Zm11-34.88-.31-.31,1.26-1.89h1.57l-.31,1.89h-1.57Zm-3.77,41.17,3.46-.94L395,94l1.26-.31.63,2.2-3.46,2.51-2.2-.94-.31-.63Zm3.14,16.34,2.2,1.26-.63,2.2H394.4l-.63-.94v-1.89Zm-3.14-6,.94-2.2,1.57-1.26,1.26,1.26-1.57,2.2-1.57.31Zm1.26-31.74,1.26-.31,1.26.63v1.89l-1.26.31-1.26-1.89ZM390,66.62l-.63-.31.31-2.2,1.57-1.89,2.2-.94.94.63.31,1.26-1.89,1.57-1.26.31Zm2.51,44-1.26-.63.31-.94,1.26.31V110Zm-3.14,12.26v-2.2h1.57l.31,1.57-.94.63Zm-5.66-27.34,2.51.63,2.2,3.14-.63.94-4.4-.63-.94-.94.94-2.51Zm2.2-33.94.31-1.26.63-.31.63.94-.63.94-.31-.31Zm1.57-15.71h-.94V44.63l.94.63Zm-2.2,30.17-.63-.94.63-.63h1.26l-.63,1.26ZM382.46,52.8V50.91l1.26.31V52.8ZM351.35,104l-1.57.94-2.51-.94-.63-2.2-1.89-.94L342.86,99l.31-.94,1.26-.63,4.09-.31,1.26-.94-1.57-4.4-2.51.94-1.89-1.26V90.19l.63-.63h1.26l1.89,1.57,1.26.31,1.26-2.2-3.14-3.46L348.52,83l-.31-1.57L346,82l-.63.94h-.63l-.63.94h-.94L341,85.48l-1.26,1.89-1.57.31-2.2,1.89,3.14,1.26,2.2,4.4-.94,2.2-.94.31-1.26-.63-.31-2.51L336.26,93l-2.2-.31-1.26-1.26.31-.94-.63-.63-2.2.31-1.89,2.51v2.51l3.77.63-.31,1.57-2.2,2.51-2.2-1.26.94-2.51-2.2-.63-.63-1.26v-5l-.63-.94L321.49,88l.31-1.26,3.77-2.51-1.89-3.14-1.26-.31L319.61,83v2.2l-3.46.94-.63-.94-.31-2.51-.94-.63-5.34.63L307,81.71l-1.57-1.89-1.26-.31-.31.63.63,2.2-.31.63h-1.26l-4.4-2.51-.31-1.26,2.83-1.57-.31-1.26-2.2-1.57h-3.77l-.63,2.2,1.57,1.57v1.89L294.15,82v1.26l-1.57.94-.63-.31.94-3.46L291,78.25h-.63L289.44,77h-2.2l-.31.94.94,1.57-.94,1.57-3.46,1.57-1.26-.31L281,80.77,284.41,77h2.2l.63-2.2-3.77-3.46V68.82l-3.14-2.51.31-1.57,1.26-.63,1.57.31,2.2,3.14,3.14-.31.31,1.26,1.26.63,1.26-.94-1.57-1.89-.31-2.51-.94-.94-2.51-.31-4.09-6.29.63-1.26-.63-1.26-1.26.63-2.2,2.83-1.89.94-1.26,3.46-6-2.83v-2.2l.94-.94H274l.94-1.57-1.57-2.83L269,52.48l-.63.63h-2.51l-.94-1.89-1.26-.31-2.2.63-1.57-6.29.94-.94,2.51-.63.94-1.57h.63l.31-1.89-3.14-3.14V34.57l-1.57-2.2-2.2.94L257.07,33l-.63-.94-1.26-.31-2.2.63-3.77-2.83-9.11,1.89-2.51.94-.31.63,1.26,3.46-.63,1.26-1.26.31-4.09-3.14-5-1.89-2.51.63-5.34-3.46L219,27.66l-.94-.94-.31-2.83,1.57-1.26,2.2.63,1.26,1.89.31,2.51.94,1.57,2.2,1.57,5.34.63,1.57-1.26V27.34l-.63-1.26L230,25.77V24.51l.94-.63,2.2,1.89,1.26-.31v-.63l2.83-1.26,4.4-.94.31-.94-1.57-2.2-.94-.31-6,3.77-.31-1.57,2.51-2.51.31-2.51,1.26-1.57,1.26.31,1.89,2.2,1.89.63,3.14-.63L242.3,13.2l1.57-.94,3.46,2.2,2.2.31,2.83-2.83.31-2.51,1.26-1.26,1.26,2.2-.31,1.26.94,1.57,2.83-2.51,3.46-.31-1.57-4.09L263,5h1.26v2.2l1.57,1.57h1.26l.31-1.26L266.81,5l.63-1.89h1.26l1.57,1.57L270,6.6l.63,1.26-.31,1.26-1.57,1.57,5,4.09,3.46,2.2v.63l4.4,2.83,6.6,5,1.89.94V27l3.46,1.89,6,5,3.77,1.89,2.83,2.51,1.57.31.94-.94,5.34,2.83-.31.94,1.57,1.57,3.14,1.26.31-.63-.94-1.26.63-1.26,6.91-2.51,1.57-1.26V35.51l3.77-2.83,1.57-.31,1.89,1.26,3.14-1.57.94.63-.63,2.51-2.2,1.26L335,39l-1.26.31-1.89-.63L330,40.54l.31,1.26-.63,1.26h-2.51l-1.57-1.26-.63.31-.31,3.46-1.57,1.26.31,2.83,1.57,2.83,3.46,1.89,1.89,1.89,2.2.94.63-.94-.94-2.51-2.51-1.89.63-1.26,2.2.31,1.57-.94.63-2.2,1.26-.31,2.2,1.26,2.51-1.89L338.46,44l-1.89-.63-.31-.94,1.89-1.57.31-1.26-.63-.94.31-2.83L341,35.2l2.83,1.26h1.26L346.95,33l4.4,2.2,3.77,3.46,3.77,1.57.94-.31.94.94-.94,2.2,1.26,1.26,3.46-1.57.94.94v1.26l-1.57,1.26-1.57-.94L362,46.51l.63.94L362,49.34h-2.51l-2.83,1.57L355.12,50v-.63l-2.51-.63-1.89,1.89-2.2.94-3.77-3.77h-.94l-1.57,1.57v.94l-2.51,1.89v2.2l-3.14,2.83-2.51,1.26,3.46,3.14,2.2-1.26.31-1.57.94-.63,1.26.31,3.14,3.14-.63.94-2.51.94-.31,1.26,3.77,2.2,1.26,1.57h.63l1.26,1.57h.94L351.35,72l2.51,1.89,4.4,3.14h.63l1.26,1.57h.94l2.51,1.89,2.2-.63,2.2,1.26v2.2l.63,1.26.94.31v.63l3.14,2.2,3.14,1.57,3.77,3.46h2.51l.94.94v1.26l-6-1.57-.63.63v1.26l1.26,2.2.31,1.89-.94,1.26-2.83-2.2-5.34-1.57-1.26-1.89.31-.63.63.94,2.51-.31L372.4,94l-.94-.94h-2.83l-.94-1.57-3.46,1.26-2.2-.63-2.51-1.89v2.51l-5,5,1.57,3.14-.94.94-.31,2.83-.63.94L352,104Zm30.17,1.57h-.31l1.26,2.2-.31.31-.31.63-1.57-.94v-1.26l.94-.94-.94-.31v-.63l1.26.31ZM377.12,60l2.2-1.26L381.2,61l-1.26,1.26-2.51-1.89Zm-.94,44-.63-.31.31-1.26.63.31-.31.63Zm-5.34-82.65V20.11l-.94-1.89V16l1.89-1.26.94.94.31,3.14-.63,1.26,3.14.31v.94l-.94.63-2.2-.94-.63.31Zm1.57,32.68,1.26-.94L375.23,55l-.94.94L373,55.63l-.31-.94Zm-.31,13.2,1.57.63-1.57,1.26-.31-1.26Zm.63,6.29h-.63l.31-1.26.63.63Zm-3.14-25.77,2.2,1.26L370.2,50l-.63-1.57Zm1.89-24.83h-.94l.63-.31Zm-2.2,36.77.31-1.26.94-.63.63.94L370.83,60h-1.26Zm-.31-32.37-3.14-1.26L364.23,28l-3.14,1.89-.63,2.51-.94.63-4.71-2.51L352,28.28l1.89-3.14-.94-.63-1.26.31-1.57-1.26L349.78,22l-1.26-.31-2.2,2.51-9.43-1.89-7.23-1.26.63,2.2,2.83,1.57.94,1.89.31,2.83-1.89.94-1.26-.31-1.89-2.83H324l-.63-1.26,3.14-1.89,1.26-1.89-.31-.63.94-.94-.31-.63.63-.63,2.51-.31,2.51-2.2V15.71l-1.57-2.2L330,14.77,329.35,16l-2.2-4.09-1.57-1.26-2.51.63-1.57-1.57.31-2.83L323.38,5l9.43-1.89,4.4-.94.94.94V5.66l-2.2.94-.31,1.26,2.2.63,2.51-.94,1.26.31,1.89,1.89-1.57,1.57v1.57l4.71-1.57,2.83-2.51,1.26-.31,4.71,4.71-.63.94-9.43.63L344.43,16l.63.63,1.89.31.94,1.89,3.77,1.26L352,22l1.89,1.57v.94l2.2,1.26v1.57l.94.94.94-.31,1.57-1.89-2.83-3.77-2.2-.63-1.26-2.83L357.95,16l1.26.31.63,1.57,5,5,.63-.63.63-2.83.63-.63.94.94.63,2.51.94,1.26.94-.63.31,1.89-.63.31L369.57,27Zm1.57-4.4h0Zm-5.66-11,.31-1.26,3.77-2.2L370.2,11l-1.26,1.89h-3.77v-.63Zm-.94,92.71-.31-.63,1.26-2.83,2.2-1.26.31,1.26-1.89,3.14-.94.63Zm2.2,27.34-1.26-.31-.31-.94h1.26l.63.63Zm-2.2-18.54h1.57v2.2h-1.57l-.31-1.57Zm0-108.11.63-.94.94.31v.94h-.94ZM362,110.62l2.2-.94.31,1.26-1.26,1.57-1.89-.31.31-1.26ZM362.35,16l.94-1.26.94.63-.31,1.89L362.66,17l-.31-.63Zm-3.46,46.83,1.89-.31v.63l-1.89.31Zm-.94-53.42V7.86l1.89-2.2.94,1.26-1.26,2.83h-1.26Zm1.89,51.85-3.14-2.51,1.26-1.57,2.2,1.57.31.94-.63.94Zm-.31,45.25-1.26-.63v-1.57h1.57v1.89Zm-2.83-59.4,2.2-.63.63-1.57h-3.14l-1.57,1.57v.63l1.26.31Zm-1.57,66.31-.94.63-.94-.63-.63-3.14,1.89-.63.94,3.14ZM346.32,6.6l-.94-.94.31-2.2,1.26-1.57,5,1.57.31.94-.94.94-4.4,1.26ZM351,135.45h-.94l.94-.63Zm-.31-18.54-2.2-.94-.94-1.89.63-.94,1.57-.31L351,115l-.31,1.26Zm-3.46-58.45,1.26-2.2,1.26-.31L351,57.2l-.63,1.57-1.57.63-1.26-.31ZM344.75,115l-1.26-1.26-.31-1.26h-3.46l-1.57-1.26,1.57-2.2,3.14-1.26,4.4,1.89.94,2.2L345.38,115Zm-.31-59.08.63-2.2.94-.63.94,1.26-1.26,1.89h-.63Zm-4.71-27,.31-1.57,1.26.31.31,1.26-1.26.31Zm-2.83,77.31-1.57-1.89-1.26-.63-.63-1.89,1.26-.31,4.4,2.51.31,1.57-1.57.63Zm-3.77-63.17.31-1.57,1.89.63-1.57.63Zm-4.71,98.36v-.94l1.89-2.2v-1.57l1.26-1.26,2.51,1.89-.94,2.2L330.61,142h-1.89Zm.94-38.65h1.89l1.26,1.57.63,3.14-.63.63-1.26-.31-1.89-1.89-.31-2.83Zm-.63,27h-1.26l-.31-2.2-1.57-3.14.94-.94,1.26.31.94,5.34ZM319.29,24.51l-.63-.94.31-1.26-1.26-3.77,2.2-.94,2.51.94,2.2-.94h1.89l.63-.94.63.31-.31.63.94.94h-1.26l-1.89,1.57H324l-4.08,4.4Zm2.2,92.71.63-1.26,1.26.63-.63.94h-.63Zm1.26-5.66-2.2.31-1.26-1.57,1.57-1.26,1.26.63.63,1.26Zm-3.46-4.4L318,104l.63-2.2,1.89-.63,2.2.31-.31,4.71-2.51,1.26ZM319,28.91V28l.94-.63,1.89.31-1.26,1.89-1.26-.31ZM314.26,33l.63-.31.63-1.89,3.14-1.57V30.8l.94,1.57.31,2.2-2.2.31-2.2-.63Zm5,111.25-.94-.31,1.26-.63v.63Zm0-63.8.31-2.2-.94-.94L316.78,77v1.57L318,80.45ZM317.41,13.2l1.26-1.26.63.63-1.26.94ZM318,99.31h-1.26l-.31-.94.63-.63.94.31Zm-5.66-22.63h4.71l-.31-3.46-1.89-1.57-1.26-.31-.94.63v2.2l-2.2.94-1.26,1.26.31.63ZM305.78,33v-.94l2.51-3.46.31-3.46,1.26-.63.94-2.83-.63-.31-.94.63-2.2-.94-.31-1.26,1.89-1.57,2.51.31,1.57-.94,1.89,1.26.63,3.77,1.89,2.2-.63,1.26-3.77,3.46L306.41,33Zm7.54-23.88-1.26-.63V6l3.14-2.2.94.94-2.2,4.4Zm.94,4.71h-1.57l.63-2.2,1.26-.31-.31,1.89Zm-7.86,81.71.94-4.71.63-.94,4.4.63V94l-2.51,2.51-2.51.31-.63-.94Zm-1.26,7.23-.63-2.51,3.77-.63.31-.63,1.89-.31,1.57.94-.94,1.57-.63-.63-3.14,1.89-1.57.31Zm6.29,30.8L310.18,132l1.57-.31v1.57ZM301.38,28.28l-1.26-3.46,2.51-.63-.94-1.89,1.57-1.26,2.2.94.31,1.26-1.26,2.83L302,28.28Zm2.51-16,.31-1.89h1.26l.31,1.26-.94.63Zm-2.2,84.85.63-.31,2.2,1.89-.63,1.26-2.2-1.57ZM302.95,16l1.26,1.26-1.57,1.26L302,17.6h-.63l.94-1.26Zm-3.77-6.29.94-1.89.94.63-.31,1.89-.94-.31Zm.63,79.51-.94.94L297,88.62l1.26-2.2h.94l.94,2.2Zm-3.14,21.06L297,109l1.26-.63,1.57.94-.94,1.57-.94.31-.94-.63ZM297,96.17l2.2,1.26.63,2.2-.94,1.57-1.57-1.26L296,97.74l.63-1.26ZM283.47,10.69l-3.14,1.89v-2.2l1.57-1.89,2.83,1.26L286,9.11h2.51L292,7.54l1.89.94.31,1.26,5,5L297,16.34,295.72,16l-4.4-4.71-1.26.31v2.2l1.57,2.2-.94,1.57h-.63l-3.46-3.46-.31-.94h-.63v-.94L284.09,11Zm15.08,124.76-.63-.31.31-1.89h.63v1.89Zm-7.23-17.91.31-1.26,2.83-2.2,1.26.31.31,2.51-1.26,1.57h-2.51Zm-2.83-10.37.31-2.2-.94-3.14h1.26l1.26.94h3.14l.94,1.89-3.77,2.2-.63.94-1.26-.31Zm0-17.91.63-.94,1.26-.31.94.63L291,89.88l-1.26.31-.94-.63ZM280,101.19l-.31-2.51-2.51-.31.63-2.2.94-.31,4.4,1.26,2.2,1.57v1.26l-2.51,2.2-2.2-.63Zm-3.14-28.28-1.89.94-2.2-.94L270,74.8l-2.83-.94v-2.2L269,70.08l.31-1.57-1.57-1.89v-2.2l1.26-.31.94.63h1.57L274,63.8l.94.63,2.51,8.48H281l2.2.94v.63l-1.26.31L280.32,77l-1.57.31-.94-.63-.63-3.14Zm-4.71,18.86.31-1.26.94-.63,2.83,1.57.94-.94V89.25l-.94-.63-.63-2.2-.63-.31,1.26-.63V81.71l1.26-.31L279.07,83l1.57,5.34-1.26,4.4-4.71,1.57-.31-.94-1.89-.94ZM278.44,137h-.94l.31-1.57.63.94Zm-7.86-34.26.94-2.2,1.26-1.26,1.26.63,1.89,2.2V104l-4.71-.31-.31-.63Zm0-22.94,3.14-2.51,2.2-.31-.31,1.57L274,79.82l-.63,1.57-1.57-.31Zm-8.49,33v-1.26l3.46-.94-1.26-3.14-1.26-.31-1.89.94-1.57,2.2-2.2.31-.31-.63,2.2-4.71,7.86-1.26,1.26,3.77,2.2,1.57,2.2.63,2.51,1.57-.94.94-7.23-1.26-2.51,1.89Zm11-25.46-.31-.63.94-.94.63,1.26h-.63Zm-.31,9.11.63-.94H274l-.63.94Zm.94-50.6-1.26-2.2-.94-.63-6.6.94-1.57,3.77,1.26,2.51,4.08.94,2.2-3.14,1.57-.31,1.26-1.26Zm-6.91,37.71,3.77-.63.94,1.26-3.14,1.89-5,5.34-1.26-1.57.94-2.51,1.26-.31,1.89-2.83Zm1.89,32.68L269,115l1.26-.31.31.63-1.26,1.26Zm-3.14-40.23,2.2.31,2.51,2.51-.31.63H269L265.55,77Zm-4.71,3.46,1.26-1.57.94.31,1.26,1.57-.94,1.89-1.26-.31-.94-1.26ZM257.38,66l-1.57-1.57-1.26-.31-.63-.94.63-2.2-.31-1.57,1.89-3.14,1.26-.31L263.67,60l.31,1.26-1.57,1.89.63,2.51-.94,1.57h-1.26L258,70.08l-1.26-.31-.31-1.26.63-2.2ZM263,127.28l-1.26-.31v-.63l1.26.31Zm-3.14,16,.63-1.57.94.63-.31.94Zm-1.26-43.37V98.36h1.26l.31,1.26-.94.31ZM255.18,3.14h1.57l1.89,1.57-.31.63h-1.57l-1.57-1.57Zm-1.26,45.57.31-2.51.63-.94,1.26-.31.94.94-.63,2.51-.94,1.26-.94-.63ZM252.67,72.6l.94.63.31,2.51-.94,2.2H252l-.63-.94.94-4.09ZM253,116l-1.26-.31-.63-1.57.63-.31,1.26.63.31,1.26Zm.31-18.86h-.94l.94-.31Zm-6.6-51.54,2.83-.31,3.46-2.2-.31,2.2-2.2.94-3.14-.63Zm1.57,47.14.63-2.2,2.51.63.31.63-.63.94-2.2.31Zm-3.14-41.8-2.51.94-.94.94-1.26-.63-3.14,1.26-1.89-2.83V49.34l.94-1.26,1.26.31.63.94,1.26-.31.94-2.2,2.2-.94h3.46l3.77,6.29v.94l-1.26.31-2.83-2.2Zm.94,48.71V98.36l1.89-2.2h1.26v2.51l-.94.94-1.57.31Zm0-26.08-1.26-1.89-1.89.63-3.46-4.4.63-.94,2.2-.31,6.28,3.46.63,1.57-1.89,1.89Zm-.63,32.37.31-2.2,1.57-.94,1.26.63V105l-.94.94-1.57.31Zm2.51-66-.31,1.26-1.89,1.26-3.14.94-1.26-2.51,3.14-1.57,2.83.31Zm-4.71,55V93.34h2.2l-1.57,1.89Zm1.89,7.86-1.57-.31.31-.63,1.26.31Zm-1.57-18.54L243.24,83l1.26-.31.31.94-.63.63ZM242.3,25.77l1.26.31v-.63l-1.26-.31Zm.31,37.4-2.2-.63.63-.94,1.57.94ZM233.5,11V8.8L231.3,6l-.94-3.77.31-1.26.94-.63,8.17,3.77.31.94-3.77,2.83L236,10.37l-.63.94h-1.26Zm4.09,33.31L237,45.88l-2.2-1.26L236,43.05l1.26.63ZM234.44,61l.63-.63L237,61.91l-.94.94h-.94l-.63-1.26Zm-.31,9.43.63-.94h.94L236,71h-1.57Zm.94,10.69-1.26,2.51,1.57,4.71-.94.94-1.89-.63-.94-1.57L231,83l.63-1.26,2.83-.94Zm-3.46-64.74v-.63l-2.2-.94-.31-.63.63-1.26,1.89-1.26h1.57l.31,1.26-1.26,2.83,1.57,1.89-.63,3.14-2.83-.63L231.3,17Zm-2.83,81.39.31-1.26,1.57-.94.31.63-.63,1.26-.94.31ZM226,88l2.2-2.83,1.26-.31.63,1.26-.31,1.26-2.2,1.89-.94-.63Zm2.83-64.42-2.2-.63.31-1.57,1.26.31.63.94Zm-5.66-17L220.3,8.49l-2.83-2.2.63-.94,9.74-.94.94,1.26-1.26,2.2-1.26.31ZM226,80.77V79.19h.94l.63,1.57Zm1.57-52.48h-1.26l.31-1.26.94.63ZM226,72.91l.94-.31.31.63-1.26.31Zm-2.83-4.71.94.31,2.2-.63.63.31-.31,1.26-1.89,1.26-1.26-.31-.31-1.57Zm3.14-20.74-1.89-.63V45.25l.94-.31,1.57.63-.31,1.57Zm-2.51,57.82.94-.63L226,105l.31,1.26-.94.63-1.57-.94ZM222.5,38.65l1.57-.63,1.26,1.89-.63,1.26-1.26-.31-.63-1.57ZM215.9,61l.94-.63,4.71-.94.31,1.26L220,64.74l-1.57,1.89-1.89-1.57-.94-3.46ZM220,127.28l-.94-.63.31-.63.94.94Zm-2.51-34.57v-.63l1.57-.94,1.26.31L220,93h-2.2Zm-.63-15.4,1.57.63.31.94-1.26,1.26-1.26-.63V77.62ZM215,31.74V30.17l2.83.31-.31,1.26-1.89.31Zm-5-26.08.63-.94,1.57.63,2.51-.63,1.26.94L214,9.11l-1.89-.31-1.89-2.51Zm2.51,51.22L213.7,55l.94.31.31,1.26-.63,1.26h-.94l-.31-.63Zm-5.34-17.6,1.57-1.89,1.89.63,1.26,2.2-.94.31-3.14-.94Zm4.4-15.71h-.94l-3.77-3.77,1.89-1.57,2.2.63.94,4.09ZM205.84,61l1.26-4.71.94-.31,3.14,5,.31,1.89-.94.31-4.4-1.57ZM209,14.77l1.26-.31.94.63v.63l-1.89.63L209,15.4Zm-5.66,15.4L209,28.91l.63,3.14.94,1.57-1.26.94L208,33.31l-3.77-1.26-.94-.94Zm5,44.94-1.26-2.2,1.26-2.2h1.26l.63.94-.31,2.2-.94.94Zm-1.89,2.83.63-2.83,2.51,2.51-.94,1.57-1.89-.63Zm-2.2-66.31.63-3.14,1.26-1.57,1.26.31.94,1.57-2.51,4.09-1.26-.63Zm1.26,112.51.94.31-.31,1.26-1.26.31v-1.57Zm-.31-78.25-1.57-1.57-.31-1.26,1.89-1.57.94.63.31,2.2-.63.94Zm-.63-21.37,1.89.94L206.16,27l-.94.31-.94-.63L204,25.14Zm-1.26,41.17,1.26-.63,1.57.63-.63,1.26-.94.31-.94-.94Zm-5,26.71L197,91.77l-1.57-1.89h-1.26L193,88.62l.63-1.26,4.09,1.89,2.83-1.89,1.26.31,1.57,1.89,2.2,1.26v.94l-.94.94h-1.26l-2.2-1.26-2.2.94Zm2.2-59.08,1.26-.63.94.31,2.2,3.46L203,37.71l-1.26-.63-1.26-3.46ZM194.84,8.8l.94-.63-.63-1.89.63-.94L201.13,5,202.7,6l-.31,1.26-1.57,1.89L198.3,16l-2.2-1.26.63-1.26L196.41,11l-.94-1.89Zm3.77,50.91h3.46l.31.94-1.57,2.2-2.51-.31-.94-.94V60.34Zm-.31-34.88,1.26.31,1.26,1.26-.31,1.26-2.2-.94L198,25.46Zm-.63,50.28-.31-1.57.94-.94,1.57,1.26-2.2,1.89v2.51l-1.26.63L194.84,77l1.89-1.89ZM192,38l.63-1.26h1.26l.63.63h1.26L197,38.65l-.63.94-2.83.31-1.26-1.26Zm1.26-6.29.31-1.89.94-1.26h1.89l.31.63-1.26,2.2-1.57.63Zm1.26,49.34.94.63-.94,2.51-1.89-.94v-.94l.94-.94Zm-.94-9.43h-1.26l-.94-1.89-.94-.63-2.83,2.2-.94-1.89.94-1.89L187,65.05l-2.2-.94-1.57-2.2.63-.94,2.2-.31,1.57-2.2,2.83-1.57.63-2.51.94-.63,1.26.63L192,59.08v2.2l-2.2.31v2.51l2.83,2.2L193.9,71Zm-11-49.34,1.89-3.14-.94-2.51.63-1.57-1.89-1.57L182,11.63l1.57-.31.31-.94L182,9.11l-2.51.63V9.11l2.2-1.26,3.14-.63V4.71h6L190.44,6l-2.51.63-.63.94.31,6.29,1.89.94.31,1.26-4.4,2.83,2.83,1.57,2.51-.94,1.89.63.31-.31.94.63v1.26l-1.57,1.89-6.6,1.57-2.83-2.51Zm11,27.66-.31-.63h.31ZM191.7,96.79l-2.51-.94-1.57-1.26L187,93l.63-2.83.94-.31.94.63.63,2.2L193,95.22l-.94.94Zm.94,6H192v-1.26h.63Zm-3.46-73.22-1.26-.31,1.26-.63Zm-8.17.94.94-.63,4.71,1.89,1.57,1.89v.94h-4.4L181,31.11Zm4.09,72.28,1.26-.94.94.63-.63,1.57-1.26-.94Zm-7.23-22.31.31-3.77,1.26.31L181,78.57l2.51-.63,2.2.94-.31.63L187,80.77l-1.57.94.94.94-.63.94.31,1.26-.94.63-4.4-1.89-1.26.63-.31,2.83-1.57.94L176,86.42l-.31-1.57,1.57-3.46v-.63Zm5-27,.63-.94,1.57.63-.63,1.26h-.94l-.31-.63Zm.63,44.94V97.11h1.26v.94l-.63.31ZM176.3,40.85l.94-.63,2.2.94,4.09-3.46.94.94L182,41.48l-1.89-.31-.94.94h-1.26l-.31.63-1.26-1.26ZM179.13,109l-1.57-.63,1.26-4.09h2.51v1.26l-1.89,1.26-.31,1.57ZM180.7,28.6l-1.26-.31.31-1.26h.94L181,28Zm-4.4,3.77.94-2.51h1.26l1.26,1.89L177.56,33ZM179.76,6h-1.89V4.71h1.89ZM176.62,48.4l.31-1.26h1.57V48.4l-1.26.31ZM165.93,81.71,162.79,83l-1.57-2.83,1.89-.94L165,80.45l2.83-2.83.31-1.26L165,72.91l-1.57-1.26-1.26-3.46,1.57-2.2,4.4.31,3.14,1.89L174.1,66l1.89.94,1.26,4.4-.94.63v.63l-2.51.31-1.89,2.83-2.51,2.2.63,1.26,1.89,1.57v3.14l-1.26,1.89-2.51-.94L166.25,82Zm8.8,19.48-1.26-.31v-.63l1.26.31ZM171,114.39l1.89-1.89,1.57,1.57-1.26,1.26-1.89-.31Zm.94-59.08v-2.2l.63-.31,1.26,1.26-.94,1.26Zm.31-12.26.94.94-2.51,4.09H170L171,44Zm-1.57-15.71.94-.94,1.26.31-.31,1.57-.94.31L171,28Zm-.94,8.8.94-.94,1.57,1.26L171.27,38l-1.57-1.26Zm-1.26,79.19h2.2l-.63,3.77-.94.63-.94-.63V116ZM170,48.08l-.31.63-.31-.94Zm-2.83,52.8,1.57-.31-.94.63.94,3.14-.63,1.26h-1.89l.31-2.83.94-1.26Zm-13.51-2.51.63-2.51,1.89-1.26,1.89-7.86.94-.94,1.89.63,2.51-1.26.63.94-.31,1.26-3.14,1.89L160,91.77l1.26,2.51-.31.94-4.09.31-1.89,2.83ZM161.22,5l.31-1.26,1.89-.63V4.71l-1.26.94-.63-.31ZM160,61l-.63-.94.94-2.51V55.94l.94-1.57,1.57.94-1.26,3.46.31.63L161.22,61Zm-2.2-29.54.31-1.26,1.57-1.57h1.57l.63.63v1.26l-1.26,2.2h-1.26l-1.26-.94ZM154.93,16h1.89l-.31.94-1.26-.31Zm-.63,71.34.63-.31.31.94ZM151.79,24.2h-1.26l-.94-2.83,1.26-1.26,2.2-.31.63.63-1.89,3.14ZM149.9,44.31h-1.26v-.94l-1.57-1.26v-2.2l.63-1.26,1.89-.63,1.89.94,1.89,2.2-.31.94Zm-.31-41.17h1.26l1.89,1.57L153.36,6,153,7.23h-1.89l-1.57-1.57-.31-1.89Zm-3.14,60.34L149,60.65l.94.94.31,2.2-.63.94-1.26.31-1.57-.94ZM136.39,13.83l.63-1.89,1.57.31,1.89,1.57.63,2.51h1.26l1.57-1.89,1.89.63.63.94,2.2.94v1.26l-2.83,3.14h-4.09l-6.6-1.57-1.26-1.57.31-2.2,1.57-1.89Zm8.49,20.74.31-1.26,1.57-1.26L148,33l-1.57,2.51-1.26-.63Zm.31,54.37-.63-.31.31-.94.63.31-.31.63Zm-1.26-75.11-1.57-1.89.94-.94,1.57.63-.94,1.57Zm-5.66,79.51,1.26-2.51,1.57.94-1.26,2.51-.94-.63Zm-5-15.08.31-1.26,2.51-2.2,1.26.94.31.94-1.89,1.57Zm3.14,33.63h-.63l.31-1.26h.63l-.31.63ZM132.3,11.63l-.31.31.31-.94Zm-4.09,0,.63-1.26,2.83.63v.63l-.94.63-1.89-.31Zm-1.57,74.17.31-2.2,1.26-1.89,1.89-.31.94,2.51-.31.94-1.89,1.57-1.57-.31ZM130.73,60h-.63l-.31-1.26h.94Zm-6.91-39.91,1.57,2.2.94.31.94-.63,1.26-2.51.94.63.63,3.77-.94.94h-4.71l-2.2-.63v-.63l-.63-.31.94-2.83Zm0,72.28.31-.63,1.57.31.63.94-.63,1.26h-1.26L123.82,93Zm1.89-55.94-.94-.31V34.57l1.26.31v1.26Zm-6.29-2.2.94-3.46-.63-2.51-1.26-1.57.31-.63,4.08.63,2.2,2.2-.31.94-2.2.31-.94,1.57.63,2.51-.94.63L120,34.57Zm2.83-19.8.31-1.26.94-.63,1.26.94-.63.94-1.26.31Zm-.63,90.19v-2.51l1.57-.94.31,1.26-.63,2.2Zm-.31-80.14L121,22.94v.31h.63Zm-.94-2.83.63,1.26-.63-.63ZM116.91,11l2.2-.63,1.26,1.26-.94,1.57-2.2-1.57Zm1.26,3.77-.31.94-2.51,1.89L114.08,17v-2.2l3.77-.31ZM115,22.63l-.63.31-1.26-1.57.31-1.26,1.57-.63.63.94-.31,1.89Zm-1.57,31.11.63-.63,1.26.63L114.71,55l-1.26-.31Zm-3.77-8.8.31-1.26,4.71-2.2v.94l-2.51,3.14h-1.89Zm1.89,31.74.94.31.31,1.57h-1.26L111.25,77Zm0-4.09-.94-4.09,2.2,1.26V72.6Zm-2.2-66.31V5l1.26-1.89,1.26-.63.94.94L111.88,6l-.94.94-1.26-.31Zm2.2,9.11-.94-.63.31-1.57,1.57.63-.63.94Zm-3.46,122.25,2.51-.31.94.63v1.26l-1.26.31-2.2-.63ZM110,23.88l-.63-.63V22l1.26-.31.31.63-.63.94ZM107.16,82l-.31-.31,1.57-2.2,1.26.31-.31,1.26-1.89.31ZM109,48.71,108.74,50l-2.2.63L104.65,50l-.94-1.26.31-.94,2.2-.94,2.51,1.26Zm-.63-23.57-.63-.31.63-1.57.63.94-.31.63Zm-3.77,76.37V99.94h2.51l.31,1.26-2.2.31Zm-1.89-28.6.31-1.57,2.2-2.83h.63l.94,1.57-.31,1.26-2.83,1.89-.31-.31Zm0-46.51.31-1.26.94-.63,2.51-.31.31.94-.63.94-2.83.63Zm3.77,59.4L105,85.48v-.63L100.88,83l-1.57.31-2.2-.94-.63-.94.94-1.89,2.51-.94.94-1.89h1.26l1.57,1.57-1.26,1.89v1.26l3.14.31.94,3.46ZM96.79,69.45l.94-1.26.63.31,1.57-1.57.31-1.26,1.26-.94h1.57l.94-1.57.63.94-1.57,1.57-1.26,2.51-2.2.63-.94,1.26H97.42Zm5,20.43V88.62l1.26.31.63.94Zm-2.2-33.94-.94-4.4L100.56,50l1.26.31.63,1.26v2.51l-1.89,1.89Zm0-10.69-.94-5,.94-.94h1.26l.94.94.31,2.51-.94,2.2-.94.31Zm-4.4,18.23.94-.63L95.54,60l5.34-2.2.94.94-1.26,1.89L95.85,63.8Zm5.34-49.65L99,12.57l.63-1.26-.94-1.57-3.14,1.89L94,10.37l.31-2.51.63-.94h1.89L99.62,5l.31,2.51,1.26,1.89L100.56,11l.63,1.26-.31.94Zm0,62.22-1.26-.31L99,74.48h1.89l-.31.94Zm-2.2,17.6.94.63.94,5L98,100.56,96.16,99V95.54L98,93.65Zm1.57,12.26H98.68l-.31-.94-2.2.63-.94-1.89,1.26-.63L98,104.65h1.89ZM94.28,20.43l1.57-2.51,1.89-.63,1.89.31v.63l-3.77,2.83H94.59ZM95.54.94h1.26V2.2L93.34,6,90.19,5l.63-2.2Zm-5,31.43,4.71,1.89.94,1.57L94.59,37.4l-3.46-1.26-2.2-1.89,1.26-1.57Zm.94-7.86.63-.94L94,22.94l1.26.31L94,25.46l-1.26.31-.94-.63Zm-.63,61.91.31-1.89,1.26-.31.63.63-.63,2.2-1.26-.31Zm0,17.28-.94-2.51,1.89-.94.63.94-.94,2.51ZM92.08,15.4l-.94-2.51h.31l.94.63v1.26Zm-2.83,93-.94-2.2.63-1.26,1.57-.94,1.57,2.2-.94,1.89-1.26.31Zm1.89-95.54-.63.63.31-1.26ZM88.62,118.79l-.63-.94.31-1.26.63-.31,1.57,1.89-.94.63ZM89.25,5h.94L89.57,6.6l-.63-1.89Zm-2.83,13.2.31-5L88,17l.94.63-.31.94H86.74Zm.94,44.94,1.26.31v.94l-1.26-.63ZM81.08,8.49,82,6.29l2.2-2.51V.31l1.26.31,1.89,3.14V5l-2.83,2.2-.63,1.89-1.57.63ZM63.48,38.65l-3.77.63-.94-.63.94-4.4-1.57-1.57H56.57l-4.09-2.51-1.26,1.57,2.51,3.14-.94.94-3.14-2.2-1.89.31L46.82,33l-.63-2.51-1.57-2.2,1.26-2.2.94-.31.63-2.51-1.89-3.77,1.26-1.89,4.4-2.2,2.51,2.2.94-1.89L52.8,13.2l-.94-2.51L49,12.26l-1.57,2.2H46.2L44,11.31,41.8,11,38.65,7.23V3.14l1.89-.63,9.74.63,10.06.94h1.89l1.89,1.26-2.2,4.09,5.34,3.77L71.34,16v1.26l3.46,1.26,3.14,2.2.94-.31.94-2.2V16.66l2.51-1.26,2.51,3.14-.94,2.51,2.51,2.2-.31,1.26L86.74,27,84.85,28.6l-4.08,1.57-.63-.31v-.94l2.2-4.09-1.89-1.57-1.26-.31-3.14,1.57-1.26-1.26-.31-1.57-.94-.94L71,21.68l-1.26,2.2L71,26.71,70.71,28l-.94.63-1.26-.31-3.46-2.51-.94.94v2.2l-1.89.63-1.57,2.2L62.85,33l3.77-1.26L68.82,33l2.51-.94,3.46,1.26.63.94-.31,1.26h-4.4l-1.89-.63L66,35.2l-.31,1.26h1.26l1.57,1.26,1.26,2.51-.94,1.26-2.51.31L63.8,39Zm21.06,84.54-.94-1.57,1.57-.31-.31,1.57Zm-4.4-82.65,1.26-.94,2.51.94.94.94L84.22,44,83,44.94l-1.57-1.26-1.26-2.51Zm.31,6.6,1.26-.31,1.89.63.31.94-.63,1.89L80.45,48.4Zm-4.4,38.34,2.2-2.2,2.51.31-2.51,2.2H76.68ZM72.91,55.31l.63-1.26L77,51.23h1.26l1.26,4.4-1.26.63-4.71-.31Zm.94,7.23.94-.94,1.26.31,1.89,6L77.31,72l.94,2.51-.31.94H75.42l-.63-.94L75.11,72l-1.26-4.4.63-1.26-.63-3.14ZM65.37,5.34V4.09l8.48-.63h2.51L77.94,5l-.31,2.51-1.26,2.2-2.51.63-1.57,2.2-1.89-.63L67.88,7.23ZM75.11,39.6l.94.63L77,44.31l-.31.94-1.89.94-1.57-2.51,1.57-3.77Zm-5.34,8.49,1.89-1.26,2.2.63v1.89L72.6,50,71,49.65V49l-.94-.31Zm-2.2,34.25,2.2-1.26.63-.94,1.26-.31.63.94L72,83.28,70.4,84.54l-2.51-.94L67.57,83Zm-4.4-25.77,2.2-5,4.71-.31.94.63-1.57,5H63.8Zm.94,17,.63-.63,2.83-.31.63,1.57-2.2.94-1.57-.94Zm-3.46,70.4.94-2.51.94-.31,4.09,1.57.63.94-.63.94-5,.31-.31-.63ZM61.91,43.68l.31-.63h1.26l1.57,1.26-.63,1.26-.94.31-1.57-1.57ZM54.68,63.17l-.63-1.57L55,60.34l3.77.94L59.4,61l.63.63-.31,4.09L61,65.37l1.26-2.51h1.26l.94,1.89-.31,2.51L61.6,70.08l-2.2-.31-4.09-2.51-1.89-1.89.63-1.89Zm2.2,22.31,1.26,2.2-1.26,2.2-.31,2.2L55,93.65h-.94l-.31-.94,1.89-6.91.63-.31ZM57.2,57.2h-.63l.31-1.26.31.63Zm-4.09,62.54-.31-3.46,1.26-1.57,1.26.63.31,2.2-.94,2.2ZM50,100.88l1.26-.31,1.26.63-.31,1.26-1.26.31-.94-.63Zm0-18.54V80.77l-1.26-1.57V77.62l.63-.63,2.2.94-.31,5Zm-5.66-7.23.31-2.51,2.51-3.77H50l.94,1.26L49.65,72l-4.09,3.77Zm6-67.57L50,8.17l.94.94V7.86ZM44,94l.31-.94,1.26-.31v1.89l-1.26-.31ZM20.11,77l.94-1.26,1.26.31,1.57-1.89.31-1.26-1.26-4.4L22,67.57l-3.14-1.26-.31-1.26,2.51-1.26-.63-7.86,2.2-1.89h2.2l4.71-2.2,5.34-.31,1.57-3.14H39l1.57,1.89-.31.94-3.14.31V52.8L38,54.37l-1.26,1.89-2.51-.31-1.57,1.57v3.14l-1.89.94-.63.94.63,1.26,2.51.94,1.57,1.89H37.4l2.2-1.57.31-1.26-.63-2.51.94-.94,2.2,1.26,1.89,4.09-1.89,3.14H37.71l-3.46,1.26-.63.94-3.77,2.2v.94L28.6,75.74l.94,2.83L27,81.08l-4.4-1.57-2.51-1.89Zm19.8-48.08h-.63V27.66h.63ZM30.8,37.4l-1.57-1.26L27.34,37.4l-.94,3.14-1.26.31-1.89-.94L21.68,38l.94-.94,3.14-1.26.31-1.26L27.65,33h4.4l2.2,1.26,1.26,2.2,1.57,1.26-.63,1.89-2.2.63v3.46l-1.57,1.57-2.51-.63-.94-2.2L30.8,38Zm5.66,68.19-.63,1.26-2.51.31-1.57-1.57.31-1.26.94-.63L36.14,105ZM25.77,18.23,26.08,17l2.51-2.51,2.51-.63,4.4,2.2.31,1.26-.94.94-2.83-1.57-2.2,3.14L27,19.48l-.94-.63Zm8.8,4.09.94,1.57v2.2L34.25,27l-1.57-1.57.31-2.2.94-.63ZM30.8,90.19l.94-2.2-.94-3.14,2.2-.94,1.26.63.94,3.77-2.51,2.83Zm.63,34.25H29.85v-.63l1.57.31ZM28.6,101.19l.63-.94,1.57-.31-.94,1.89ZM27,91.45l1.57-2.2,1.57,1.26L28.6,92.39l-.94-.63ZM23.88,24.2l.63-.94,2.2.31.94.94-.31,1.26-1.89.63-1.57-1.57Zm.31,70.08L25.46,94l1.26,1.26-1.26,1.26L24.2,95.22Zm-3.14-50h-.63v-.94l.63.31Zm-5.34-19.8-.31-.63,2.2-2.2,2.83,3.14v1.26L16,24.83ZM17.6,42.74l-.94-.63-.31-1.26,1.26-.63.63,1.26Zm.31-37.08L16.66,5l.63-1.26.94.63V5ZM16.34,49l1.57,1.89-.63,1.89h-2.2V50.28ZM13.2,101.19l1.26-.31,2.2,1.57.63,1.57-1.26.31-1.26-.63-1.57-1.89Zm0-80.77-.63-2.2,1.89-1.89L15.71,16l.94,1.26-.94,1.89-1.57,1.26Zm-.63,3.46-.94-1.26-.94,2.83-3.14,2.2v2.2l3.14,3.77,1.57.31,2.2-1.57L16,33.63l.31,2.51-.63,2.51-5,3.14-.94-.94.63-2.2L8.8,35.51l-1.57-.63L5.66,33V31.74L4.4,29.23l.31-.94L6.29,27V25.46l1.89-2.83L4.71,17.91,4.4,16.66l-.94-.31-.63-1.57,1.26.31.31,1.26L6.6,17l5.66,6Zm2.2,47.45-.31,1.26-2.2,1.57-1.57-.63V72.28l2.2-1.57,1.26.31Zm-3.14,45.57L12.88,115l1.57-.31v2.2l-.94.94-1.57-.31Zm2.83-35.51-1.26-.63.94-.63.31.31ZM6,59.08l-1.26.31L2.83,61,0,55.94V55l.94-.94,3.46.31,2.2-1.26H8.8l.94-1.89V48.71l1.89-1.57.94.63L12.88,49l-.63,2.2.31,2.51,1.57,2.2-1.26,2.51-.31,2.83-1.89.94H9.43l-1.89-.94L6.6,59.71Zm6.6-47.77.63.63L11.94,16H10.06l-.31-1.26.63-2.2,1.57-1.26Zm-2.2,17.6.94-.31.63.94-.31.94-1.26-.63ZM3.14,7.86l.94-.31L4.4,6l.94-.31.31-.94,4.09-.94,1.89.31L7.23,8.17,6,7.86,5,8.49,3.77,8.17Zm3.77,50,.94.63,1.89-.31L8.8,56.25V54.68H8.17L6.29,57.2v.94ZM1.57,43.37,2.2,39.6l1.26,2.2,2.2-.31v1.57l-2.2,1.57L2.2,44.31l-.31-.63Z"/></g></g></svg>