<svg xmlns="http://www.w3.org/2000/svg" viewBox="0 0 787.85 154.05"><defs><style>.cls-1{fill:#fee050;}</style></defs><title>box-decor-2-1</title><g id="Layer_2" data-name="Layer 2"><g id="Layer_1-2" data-name="Layer 1"><path class="cls-1" d="M589.63,54.32v.79l.32.16.63,1.59.48.32.63-.79.32-1.11.63.32.48,1.43,1.27.16.79-.64.64-1.11.64.32,1.43,3.81L598,60l-.48,1.43-.79.79-1.11.48.16,2.54.79.32.63-1.43.79.32.32,1.59L598,67.35l.16,2.22.32.64V72l.32.48-.16.64-.64.16-1-.32-.48-.48-1.75-.64-1.43-.48L592,71.16l-1-.64V70l-1.11-.64h-.64L588.2,70l-1.27-1.75-.16-1.11.32-.64,1.11-.32,1.59.79.32-.32-.16-.64-1.27-1.59.64-1.11,2.86-.48.79-.79L592.33,61h-1l-1.59-1.59-.32-1.59H589V56.55l.64-.79v-.64l-.79-.48.48-.32ZM593.91,28l-.48,1-2.7,2.7-2.86,1.75-1-.48.16-.79,2.38-1.27.16-.32L590.9,30l.16-.64-.79-.79-.64-.16-.79,1.75-.79-.64.79-1.11-.16-1.27.32-.48.79.16,1,.79,1.27.16,1.27-.32.48.32Zm-5.56,17.63.16.16-.64,1h-.79l.16-1H588Zm1.91-20.81-1.75.48-.32.48-.64.16-.32-1.11L589,23.51l1.11.48.16.32Zm-1.59-8.26-1.11-.64.32-1.11h.64l.32.48v1Zm1.59,3-.48,1.11-.79.64-.64-.64.79-1.11.79-.16Zm-.64,16-.64.16-.64-.32v-1l.64-.16.64,1Zm1.11,4,.32.16-.16,1.11-.79,1-1.11.48-.48-.32-.16-.64,1-.79.64-.16Zm-1.27-22.24.63.32-.16.48-.64-.16v-.32Zm1.59-6.19v1.11h-.79l-.16-.79.48-.32Zm2.86,13.82-1.27-.32L591.53,23l.32-.48,2.22.32.48.48-.48,1.27ZM592.8,42.09l-.16.64-.32.16-.32-.48.32-.48.16.16ZM592,50h.48v.64l-.48-.32Zm1.11-15.25.32.48-.32.32h-.64l.32-.64Zm1.43,11.75v1l-.64-.16v-.79Zm15.72-25.89.79-.48,1.27.48.32,1.11,1,.48,1,1-.16.48-.64.32-2.07.16-.64.48.79,2.22,1.27-.48,1,.64v.64l-.32.32h-.64l-1-.79-.64-.16-.64,1.11,1.59,1.75-.79,1.43.16.79,1.11-.32.32-.48h.32l.32-.48h.48l1.11-.79.64-1,.79-.16,1.11-1-1.59-.64-1.11-2.22.48-1.11.48-.16.64.32.16,1.27.79.79,1.11.16.63.64-.16.48.32.32,1.11-.16,1-1.27V25.1L620,24.78l.16-.79,1.11-1.27,1.11.64-.48,1.27,1.11.32.32.64v2.54l.32.48,1.75.16-.16.64-1.91,1.27,1,1.59.64.16,1.43-1.11V30.18l1.75-.48.32.48.16,1.27.48.32,2.7-.32,1,.48.79,1,.64.16.16-.32-.32-1.11.16-.32h.64L637,32.56l.16.64-1.43.79.16.64,1.11.79h1.91l.32-1.11-.79-.79v-1l.79-.79v-.64l.79-.48.32.16-.48,1.75,1,1.11h.32l.48.64h1.11l.16-.48-.48-.79.48-.79,1.75-.79.64.16.64.79-1.75,1.91H643l-.32,1.11,1.91,1.75v1.27l1.59,1.27-.16.79-.63.32-.79-.16-1.11-1.59-1.59.16-.16-.64-.64-.32-.64.48.79,1,.16,1.27.48.48,1.27.16,2.07,3.18-.32.64.32.64.64-.32L647,44.32l1-.48.63-1.75,3,1.43v1.11l-.48.48h-1.75l-.48.79.79,1.43,2.22-.64.32-.32h1.27l.48,1,.64.16,1.11-.32.79,3.18-.48.48-1.27.32-.48.79H654l-.16,1,1.59,1.59v1.27l.79,1.11,1.11-.48.64.16.32.48.64.16,1.11-.32,1.91,1.43,4.61-1,1.27-.48.16-.32-.64-1.75.32-.64.64-.16,2.06,1.59,2.54,1,1.27-.32,2.7,1.75.32,1.27.48.48.16,1.43-.79.64-1.11-.32-.64-1-.16-1.27-.48-.79-1.11-.79-2.7-.32L670,58V59.4l.32.64,1.27.16v.64l-.48.32-1.11-1-.64.16v.32l-1.43.64-2.22.48-.16.48.79,1.11.48.16,3-1.91.16.79-1.27,1.27L668.57,65l-.64.79-.64-.16-1-1.11-1-.32-1.59.32,1.59,2.06-.79.48-1.75-1.11-1.11-.16-1.43,1.43-.16,1.27-.64.64L658.88,68l.16-.64-.48-.79-1.43,1.27-1.75.16.79,2.06-1.27.64h-.64V69.57l-.79-.79h-.64l-.16.64.32,1.27-.32,1H652l-.79-.79.16-1-.32-.64.16-.64.79-.79-2.54-2.06-1.75-1.11v-.32l-2.22-1.43-3.34-2.54-1-.48v-.32l-1.75-1-3-2.54-1.91-1-1.43-1.27-.79-.16-.48.48-2.7-1.43.16-.48-.79-.79L627,50.83l-.16.32.48.64-.32.64-3.49,1.27-.79.64v1l-1.91,1.43-.79.16-1-.64-1.59.79-.48-.32.32-1.27,1.11-.64.16-1.27.64-.16,1,.32,1-1-.16-.64.32-.64h1.27l.79.64.32-.16.16-1.75.79-.64-.16-1.43-.79-1.43-1.75-1-1-1-1.11-.48-.32.48.48,1.27,1.27,1-.32.64-1.11-.16L619,48l-.32,1.11-.64.16-1.11-.64-1.27,1L616.79,51l1,.32.16.48-1,.79-.16.64.32.48-.16,1.43-1.43.32-1.43-.64h-.64l-1,1.75-2.22-1.11-1.91-1.75-1.91-.79-.48.16-.48-.48.48-1.11-.64-.64-1.75.79-.48-.48v-.64l.79-.64.79.48.16-.64-.32-.48.32-1h1.27l1.43-.79.79.48v.32l1.27.32,1-1,1.11-.48,1.91,1.91h.48l.79-.79v-.48l1.27-1V45.74l1.59-1.43,1.27-.64-1.75-1.59-1.11.64-.16.79-.48.32-.63-.16-1.59-1.59.32-.48,1.27-.48.16-.64-1.91-1.11-.64-.79h-.32l-.64-.79h-.48l-.79-1-1.27-1-2.22-1.59h-.32l-.64-.79h-.48l-1.27-1-1.11.32-1.11-.64V31.13l-.32-.64-.48-.16V30l-1.59-1.11-1.59-.79L596,26.37h-1.27l-.48-.48v-.64l3,.79.32-.32V25.1L596.93,24l-.16-1,.48-.64,1.43,1.11,2.7.79.64,1-.16.32-.32-.48-1.27.16-.64.48.48.48h1.43L602,27l1.75-.64,1.11.32,1.27,1V26.37l2.54-2.54-.79-1.59.48-.48.16-1.43.32-.48,1.11.79ZM595,19.85h.16l-.63-1.11.16-.16.16-.32.79.48v.64l-.48.48.48.16v.32l-.63-.16Zm2.22,23-1.11.64-1-1.11.64-.64,1.27,1Zm.48-22.24.32.16-.16.64-.32-.16.16-.32Zm2.7,41.77v.64l.48,1v1.11l-1,.64-.48-.48-.16-1.59.32-.64L598,62.9v-.48l.48-.32,1.11.48.32-.16Zm-.79-16.52-.64.48-.79-1,.48-.48.63.16.16.48Zm.16-6.67-.79-.32.79-.64.16.64Zm-.32-3.18h.32l-.16.64-.32-.32Zm1.59,13-1.11-.64.79-.48.32.79Zm-1,12.55h.48l-.32.16ZM601.22,43l-.16.64-.48.32-.32-.48.16-.64h.64Zm.16,16.36L603,60l.79-1,1.59-1,.32-1.27.48-.32,2.38,1.27L610,58.93l-1,1.59.48.32.64-.16.79.64.16.79.64.16L612.82,61l4.76,1,3.65.64-.32-1.11-1.43-.79-.48-1-.16-1.43,1-.48.64.16,1,1.43h2.7l.32.64-1.59,1-.64,1,.16.32-.48.48.16.32-.32.32-1.27.16-1.27,1.11v.64l.79,1.11,1.11-.64.32-.64,1.11,2.06.79.64,1.27-.32.79.79-.16,1.43-.79,1-4.77,1-2.22.48-.48-.48V70.36l1.11-.48.16-.64-1.11-.32-1.27.48-.64-.16-1-1,.79-.79v-.79l-2.38.79-1.43,1.27-.64.16-2.38-2.38.32-.48,4.77-.32.48-.64-.32-.32-1-.16-.48-1-1.91-.64-.16-1-1-.79v-.48l-1.11-.64V59.4l-.48-.48-.48.16-.79,1,1.43,1.91,1.11.32.64,1.43-2.38,1.43L606.3,65l-.32-.79-2.54-2.54-.32.32-.32,1.43-.32.32-.48-.48-.32-1.27-.48-.64-.48.32-.16-1,.32-.16.16-1Zm-.79,2.22h0Zm2.86,5.56-.16.64-1.91,1.11-.64-1.27.64-1h1.91V67Zm.48-46.86.16.32-.64,1.43-1.11.64-.16-.64,1-1.59.48-.32ZM602.81,6.51l.64.16.16.48H603l-.32-.32Zm1.11,9.37h-.79V14.77h.79l.16.79Zm0,54.64-.32.48-.48-.16v-.48h.48Zm1-53.21-1.11.48-.16-.64.64-.79,1,.16-.16.64Zm-.16,47.81-.48.64-.48-.32.16-1,.64.16.16.32Zm1.75-23.67-1,.16V41.3l1-.16Zm.48,27v.79l-1,1.11-.48-.64.64-1.43h.64Zm-1-26.21,1.59,1.27-.64.79-1.11-.79-.16-.48.32-.48Zm.16-22.87.64.32v.79H606v-1Zm1.43,30-1.11.32-.32.79h1.59l.79-.79V49.4l-.64-.16Zm.79-33.51.48-.32.48.32.32,1.59-1,.32-.48-1.59Zm4.45,54,.48.48-.16,1.11-.64.79L610,71.48,609.8,71l.48-.48,2.22-.64ZM610.43,4.77h.48l-.48.32Zm.16,9.37,1.11.48.48,1-.32.48-.79.16-.64-1.11.16-.64Zm1.75,29.54-.64,1.11-.64.16-.64-.64.32-.79.79-.32.64.16Zm1.27-28.59.64.64.16.64h1.75l.79.64-.79,1.11-1.59.64-2.22-1-.48-1.11,1.43-1.59ZM613.77,45l-.32,1.11-.48.32-.48-.64.64-1h.32Zm2.38,13.66-.16.79-.63-.16-.16-.64.64-.16Zm1.43-39.07.79,1,.64.32.32,1-.64.16-2.22-1.27-.16-.79.79-.32Zm1.91,31.93-.16.79-1-.32.79-.32Zm2.38-49.72v.48l-1,1.11v.79l-.64.64-1.27-1,.48-1.11,1.27-1.27h1Zm-.48,19.54h-1l-.64-.79-.32-1.59.32-.32.64.16,1,1,.16,1.43Zm.32-13.66h.64l.16,1.11.79,1.59-.48.48-.64-.16-.48-2.7Zm4.77,53.21.32.48-.16.64.63,1.91-1.11.48-1.27-.48-1.11.48h-1l-.32.48-.32-.16.16-.32-.48-.48h.64l1-.79h.64l2.06-2.22ZM625.36,14l-.32.64-.64-.32.32-.48H625Zm-.64,2.86,1.11-.16.64.79-.79.64-.64-.32-.32-.64Zm1.75,2.22.64,1.59-.32,1.11-1,.32-1.11-.16.16-2.38,1.27-.64Zm.16,39.55v.48l-.48.32-1-.16.64-1,.64.16ZM629,56.55l-.32.16-.32,1-1.59.79v-.79l-.48-.79-.16-1.11,1.11-.16,1.11.32ZM626.48.32l.48.16-.64.32V.48Zm0,32.24-.16,1.11.48.48,1,.16v-.79l-.63-1Zm1,34-.64.64-.32-.32.64-.48ZM627.11,23h.63l.16.48-.32.32-.48-.16ZM630,34.47h-2.38l.16,1.75,1,.79.64.16.48-.32V35.74l1.11-.48.64-.64-.16-.32Zm3.34,22.08V57L632,58.77l-.16,1.75-.64.32-.48,1.43.32.16.48-.32,1.11.48.16.64-1,.79-1.27-.16-.79.48-1-.64-.32-1.91-1-1.11.32-.64,1.91-1.75L633,56.55Zm-3.81,12.07.64.32v1.27l-1.59,1.11-.48-.48,1.11-2.22ZM629,66.23h.79l-.32,1.11-.64.16.16-1Zm4-41.3-.48,2.38-.32.48L630,27.48V25.73l1.27-1.27,1.27-.16.32.48Zm.64-3.65.32,1.27-1.91.32-.16.32-1,.16-.79-.48.48-.79.32.32,1.59-1,.79-.16ZM630.45,5.72l.64.79-.79.16V5.88Zm5.08,53.21.64,1.75-1.27.32.48,1-.79.64-1.11-.48-.16-.64.64-1.43,1.27-1.11ZM634.26,67l-.16,1h-.64l-.16-.64.48-.32Zm1.11-42.89-.32.16-1.11-1,.32-.64,1.11.79Zm-.64,41-.64-.64.79-.64.32.48h.32l-.48.64Zm1.91,3.18-.48,1-.48-.32.16-1,.48.16Zm-.32-40.19.48-.48,1,.79-.64,1.11h-.48l-.48-1.11Zm1.59-10.64-.16.64-.64.32-.79-.48.48-.79.48-.16.48.32Zm-.16,7.15L636.64,24l-.32-1.11.48-.79.79.64.64,1.11-.32.64Zm6.83,43.2,1.59-1V68l-.79,1-1.43-.64-.64.32H642l-1.75.79-1-.48-.16-.64-2.54-2.54,1.11-.79.63.16,2.22,2.38.64-.16V66.23l-.79-1.11.48-.79h.32L643,66.08l.16.48h.32V67l.79.64ZM637,4.77l.32.16-.16,1h-.32v-1Zm3.65,9.05-.16.64L639,15.57l-.64-.16-.16-1.27.63-.79h1.27ZM642,19.06l-.16,1.11.48,1.59h-.64l-.64-.48H639.5l-.48-1,1.91-1.11.32-.48.64.16Zm0,9.05-.32.48-.64.16-.48-.32.16-.64.63-.16.48.32Zm4.29-6,.16,1.27,1.27.16-.32,1.11-.48.16-2.22-.64-1.11-.79v-.64l1.27-1.11,1.11.32Zm1.59,14.3,1-.48,1.11.48,1.43-1,1.43.48V37l-1,.79-.16.79.79,1v1.11l-.64.16-.48-.32h-.79l-1.27.48-.48-.32-1.27-4.29h-1.75l-1.11-.48v-.32l.64-.16.79-1.11.79-.16.48.32.32,1.59Zm2.38-9.53-.16.64-.48.32L648.24,27l-.48.48v.64l.48.32.32,1.11.32.16-.64.32v1.91l-.64.16-.79-.79-.79-2.7.64-2.22,2.38-.79.16.48,1,.48ZM647.12,4h.48l-.16.79-.32-.48Zm4,17.31-.48,1.11L650,23l-.64-.32-1-1.11v-1l2.38.16.16.32Zm0,11.59-1.59,1.27-1.11.16.16-.79.79-.64.32-.79.79.16Zm4.29-16.68v.64l-1.75.48.64,1.59.64.16,1-.48.79-1.11,1.11-.16.16.32L656.81,20l-4,.64-.64-1.91-1.11-.79L650,17.63l-1.27-.79.48-.48,3.65.64,1.27-1Zm-5.56,12.87.16.32-.48.48-.32-.64h.32Zm.16-4.61-.32.48h-.32l.32-.48ZM649.51,50l.64,1.11.48.32L654,51l.79-1.91-.64-1.27L652,47.33l-1.11,1.59-.79.16-.64.64ZM653,31l-1.91.32-.48-.64,1.59-1,2.54-2.7.64.79-.48,1.27-.64.16-1,1.43Zm-1-16.52-.16.64-.64.16-.16-.32.64-.64Zm1.59,20.33-1.11-.16-1.27-1.27.16-.32h.48l1.75,1.27ZM656,33l-.64.79-.48-.16-.64-.79.48-1,.64.16.48.64Zm1.75,6.83.79.79.63.16.32.48-.32,1.11.16.79-1,1.59-.64.16-3.18-2.06-.16-.64.79-1L654.91,40l.48-.79H656l1.43-1.43.64.16.16.64-.32,1.11Zm-2.86-31,.64.16v.32l-.64-.16ZM656.5.79l-.32.79-.48-.32.16-.48Zm.64,21.92v.79h-.64l-.16-.64.48-.16Zm1.75,48.92h-.79l-1-.79.16-.32h.79l.79.79Zm.64-23-.16,1.27-.32.48-.64.16-.48-.48.32-1.27.48-.64.48.32Zm.64-12.07-.48-.32-.16-1.27.48-1.11h.48l.32.48-.48,2.07ZM660,14.61l.64.16.32.79-.32.16-.64-.32-.16-.64Zm-.16,9.53h.48l-.48.16Zm3.34,26-1.43.16L660,51.46l.16-1.11,1.11-.48,1.59.32Zm-.79-23.83-.32,1.11-1.27-.32-.16-.32.32-.48,1.11-.16ZM664,47.49l1.27-.48.48-.48.63.32,1.59-.64,1,1.43v.64l-.48.64-.64-.16-.32-.48-.64.16-.48,1.11-1.11.48h-1.75l-1.91-3.18v-.48l.64-.16,1.43,1.11Zm-.48-24.62v.64l-1,1.11h-.64V23.35l.48-.48.79-.16Zm0,13.18.64,1,1-.32,1.75,2.22-.32.48-1.11.16-3.18-1.75L661.9,37l1-1Zm.32-16.36-.16,1.11-.79.48-.63-.32v-.79l.48-.48.79-.16Zm-1.27,33.36.16-.64,1-.64,1.59-.48.63,1.27-1.59.79-1.43-.16Zm2.38-27.8V26H663.8l.79-1Zm-1-4,.79.16-.16.32L664,21.6Zm.79,9.37.16.64-.64.16-.16-.48.32-.32Zm.63,29.54-.63-.16v.32l.63.16Zm-.16-18.9,1.11.32-.32.48-.79-.48Zm4.61,26.37v1.11l1.11,1.43.48,1.91-.16.64-.48.32-4.13-1.91-.16-.48,1.91-1.43.16-1.27.32-.48h.64Zm-2.06-16.84.32-.79,1.11.64-.64.79-.64-.32Zm1.59-8.42-.32.32-1-.79.48-.48H669l.32.64Zm.16-4.76-.32.48h-.48l-.16-.79h.79Zm-.48-5.4.64-1.27-.79-2.38.48-.48,1,.32.48.79.32,2.06-.32.64-1.43.48ZM670.79,65v.32l1.11.48.16.32-.32.64-1,.64H670l-.16-.64.63-1.43-.79-1,.32-1.59,1.43.32-.48,1.59Zm1.43-41.14-.16.64-.79.48-.16-.32.32-.64.48-.16Zm1.43,4.92-1.11,1.43-.64.16-.32-.64.16-.64,1.11-1,.48.32Zm-1.43,32.56,1.11.32-.16.79-.64-.16-.32-.48Zm2.86,8.58,1.43-1L677.94,70l-.32.48L672.7,71l-.48-.64.64-1.11.63-.16ZM673.65,32.4v.79h-.48l-.32-.79Zm-.79,26.53h.63l-.16.64-.48-.32Zm.79-22.55-.48.16-.16-.32.64-.16Zm1.43,2.38-.48-.16-1.11.32-.32-.16.16-.64,1-.64.64.16.16.79Zm-1.59,10.48,1,.32v.79l-.48.16-.79-.32.16-.79ZM674.76,20l-.48.32-.64-.16-.16-.64.48-.32.79.48Zm.64,33.67-.79.32-.64-1,.32-.64.64.16.32.79Zm3.34-11.28-.48.32-2.38.48-.16-.64,1-2.07.79-1,1,.79.48,1.75ZM676.67,8.89l.48.32-.16.32-.48-.48Zm1.27,17.47v.32l-.79.48-.64-.16.16-.79h1.11Zm.32,7.78-.79-.32-.16-.48.64-.64.63.32v1Zm1,23V58l-1.43-.16.16-.64,1-.16Zm2.54,13.18-.32.48-.79-.32-1.27.32-.64-.48,1-1.75,1,.16,1,1.27Zm-1.27-25.89-.64,1-.48-.16-.16-.64.32-.64H680l.16.32Zm2.7,8.89-.79,1-1-.32-.64-1.11.48-.16,1.59.48ZM681,61.31h.48l1.91,1.91-1,.79-1.11-.32-.48-2.06Zm2.86-18.9-.64,2.38-.48.16-1.59-2.54-.16-1,.48-.16,2.22.79Zm-1.59,23.35-.64.16-.48-.32v-.32l1-.32.16.48ZM685.09,58l-2.86.64L681.91,57l-.48-.79.63-.48.64.64,1.91.64.48.48Zm-2.54-22.71.63,1.11-.63,1.11h-.64l-.32-.48.16-1.11.48-.48Zm1-1.43-.32,1.43L681.91,34l.48-.79,1,.32Zm1.11,33.51-.32,1.59-.64.79-.63-.16-.48-.79,1.27-2.06.64.32ZM684,10.48l-.48-.16.16-.64.64-.16v.79ZM684.13,50l.79.79.16.64-1,.79-.48-.32-.16-1.11.32-.48Zm.32,10.8-1-.48.16-.79.48-.16.48.32.16.79ZM685.09,40l-.64.32-.79-.32.32-.64.48-.16.48.48Zm2.54-13.5.63.32.79,1h.63l.64.64-.32.64-2.06-1-1.43,1-.64-.16-.79-1L684,27.32v-.48l.48-.48h.64l1.11.64,1.11-.48Zm-1.11,29.86-.64.32-.48-.16-1.11-1.75,1-.64.64.32.64,1.75Zm2.86,12.39-.48.32.32,1-.32.48-2.7.16-.79-.48.16-.64.79-1,1.27-3.49,1.11.64-.32.64.16,1.27.48,1ZM687.47,43h-1.75l-.16-.48.79-1.11,1.27.16.48.48v.64Zm.16,17.63-.64-.16-.64-.64.16-.64,1.11.48.16.64Zm.32-25.41.16.79-.48.48-.79-.64,1.11-1V33.67l.64-.32.79,1-1,1ZM690.8,54l-.32.64h-.64l-.32-.32h-.64l-.64-.64.32-.48,1.43-.16.64.64Zm-.63,3.18-.16,1-.48.64h-1l-.16-.32.64-1.11.79-.32Zm-.64-24.94-.48-.32.48-1.27,1,.48v.48l-.48.48ZM690,37h.64l.48,1,.48.32L693,37.17l.48,1-.48,1,.32,1.27,1.11.48.79,1.11-.32.48-1.11.16L693,43.68l-1.43.79-.32,1.27-.48.32-.63-.32.63-2.38V42.25l1.11-.16V40.82l-1.43-1.11-.64-2.38Zm5.56,24.94-1,1.59.48,1.27-.32.79,1,.79.16,1-.79.16-.16.48,1,.64,1.27-.32v.32l-1.11.64-1.59.32v1.27h-3l.16-.64,1.27-.32.32-.48L693,66.23l-1-.48-.16-.64,2.22-1.43-1.43-.79-1.27.48-1-.32-.16.16-.48-.32v-.64l.79-1,3.34-.79,1.43,1.27ZM690,48l.16.32H690Zm1-23.67,1.27.48.79.64.32.79L693,27.64l-.48.16-.48-.32-.32-1.11-1.43-1.27.48-.48Zm-.48-3h.32v.64h-.32Zm1.75,37,.64.16-.64.32Zm4.13-.48-.48.32-2.38-1-.79-1v-.48h2.22l1.43,1.75ZM694.3,21.28l-.63.48-.48-.32.32-.79.64.48ZM698,32.56l-.16,1.91-.64-.16-.79-.79-1.27.32L694,33.36l.16-.32-.79-.64.79-.48-.48-.48L694,31l-.16-.64.48-.32,2.22,1,.64-.32.16-1.43.79-.48.79.79.16.79-.79,1.75v.32Zm-2.54,13.66-.32.48-.79-.32.32-.64h.48l.16.32Zm-.32-22.71v.64h-.64v-.48l.32-.16Zm3.65,29.07-.48.32-1.11-.48-2.06,1.75-.48-.48,1.27-1.43,1,.16.48-.48H698l.16-.32.64.64Zm-1.43-34.47.79.32-.64,2.06H696.2v-.64l1-.64.16-.79Zm-.79,40.66.64.16-.16.64h-.48l-.16-.48Zm2.22-1.91-.48,1.27h-.64l-.64-1,1.11-.64ZM697,70.21h1v.64h-1Zm1.59-21.44-.16.64h-.79v-.64l.64-.16ZM704,31.93l1.59-.64.79,1.43-1,.48-1-.64L703,34l-.16.64,1.59,1.75.79.64.64,1.75-.79,1.11-2.22-.16-1.59-1-1.43,1.11-1-.48-.63-2.22.48-.32v-.32l1.27-.16,1-1.43,1.27-1.11-.32-.64-1-.79V30.81l.64-1,1.27.48,1,1.43Zm-4.45-9.85.64.16v.32l-.64-.16Zm1.91-6.67-1,1-.79-.79.64-.64,1,.16ZM701,45.27v1.11l-.32.16L700,45.9l.48-.64Zm-.16,6.19-.48-.48,1.27-2.07h.32L701.45,51Zm.79,7.94-.48.48-.64-.16.16-.79.48-.16.32.32Zm.48-4.45-.48.48-.79-.64.48-.79.79.64Zm.64-40H701.6l.32-1.91.48-.32.48.32v1.59Zm-.79,34,.16-.32.16.48Zm1.43-26.68-.79.16.48-.32-.48-1.59.32-.64h1l-.16,1.43-.48.64Zm6.83,1.27-.32,1.27-1,.64-1,4-.48.48-1-.32-1.27.64-.32-.48.16-.64,1.59-1,.32-1.27-.63-1.27.16-.48,2.06-.16,1-1.43Zm-3.81,47.17-.16.64-1,.32v-.79l.64-.48.32.16ZM707,42.41l.32.48-.48,1.27V45l-.48.79-.79-.48.64-1.75-.16-.32.32-.79Zm1.11,14.93L708,58l-.79.79h-.79l-.32-.32v-.64l.64-1.11h.64l.64.48Zm1.43,7.78h-1l.16-.48.64.16Zm.32-36.06-.32.16-.16-.48ZM711.13,61h.64l.48,1.43-.64.64-1.11.16-.32-.32,1-1.59Zm1-10.17h.64v.48l.79.64v1.11l-.32.64-1,.32-1-.48-1-1.11.16-.48Zm.16,20.81h-.64l-1-.79-.32-.64.16-.64h1l.79.79.16,1Zm1.59-30.5-1.27,1.43-.48-.48L711.93,41l.32-.48.64-.16.79.48Zm5.08,25.1-.32,1-.79-.16-1-.79L716.54,65h-.64l-.79,1-1-.32-.32-.48-1.11-.48V64l1.43-1.59h2.06l3.34.79.63.79L720,65.12l-.79,1Zm-4.29-10.48-.16.64-.79.64-.63-.48.79-1.27.64.32Zm-.16-27.48.32.16-.16.48-.32-.16.16-.32Zm.64,38,.79,1-.48.48-.79-.32.48-.79ZM718,26l-.64,1.27-.79-.48.63-1.27.48.32Zm2.54,7.62-.16.64-1.27,1.11-.64-.48-.16-.48,1-.79Zm-1.59-17h.32l-.16.64h-.32l.16-.32ZM721,67.35l.16-.16-.16.48Zm2.06,0-.32.64-1.43-.32v-.32l.48-.32,1,.16Zm.79-37.49L723.68,31l-.64,1-1,.16-.48-1.27.16-.48,1-.79.79.16Zm-2.06,13h.32l.16.64h-.48Zm3.49,20.17-.79-1.11-.48-.16-.48.32-.64,1.27-.48-.32-.32-1.91.48-.48H725l1.11.32v.32l.32.16-.48,1.43Zm0-36.53-.16.32-.79-.16-.32-.48.32-.64H725l.32.64Zm-1,28.27.48.16v.79l-.63-.16V55Zm3.18,1.11L727,57.66l.32,1.27.64.79-.16.32-2.06-.32-1.11-1.11.16-.48,1.11-.16.48-.79-.32-1.27.48-.32.64.16Zm-1.43,10-.16.64-.48.32-.64-.48.32-.48.64-.16Zm.32-45.59V21.6l-.79.48-.16-.64.32-1.11Zm.16,40.5.16.79v-.16h-.32Zm.48,1.43-.32-.64.32.32Zm1.75,5.4-1.11.32-.64-.64.48-.79,1.11.79Zm-.64-1.91.16-.48,1.27-1,.64.32v1.11l-1.91.16Zm1.59-4,.32-.16.64.79-.16.64-.79.32-.32-.48.16-1Zm.79-15.72-.32.32-.64-.32.32-.64.64.16Zm1.91,4.45-.16.64-2.38,1.11v-.48l1.27-1.59h1Zm-1-16-.48-.16-.16-.79h.63l.16.79Zm0,2.06.48,2.07L730.83,38V36.53ZM732.58,70v.64l-.64,1-.63.32-.48-.48.48-1.27.48-.48.63.16Zm-1.11-4.61.48.32-.16.79-.79-.32.32-.48Zm1.75-61.79-1.27.16-.48-.32V2.86l.64-.16,1.11.32Zm-1,57.5.32.32v.64l-.64.16-.16-.32.32-.48Zm1.43-29.38.16.16L733.05,33l-.64-.16.16-.64,1-.16Zm-1,16.84.16-.64,1.11-.32,1,.32.48.64-.16.48-1.11.48-1.27-.64Zm.32,11.91.32.16-.32.79-.32-.48.16-.32ZM735,21.92v.79h-1.27l-.16-.64,1.11-.16Zm1,14.45-.16.79-1.11,1.43h-.32l-.48-.79.16-.64,1.43-1,.16.16Zm0,23.51-.16.64-.48.32L734,61l-.16-.48.32-.48,1.43-.32Zm-1.91-30,.79.16v.32l2.06,1,.79-.16,1.11.48.32.48-.48,1-1.27.48-.48,1h-.63l-.79-.79.64-1v-.64l-1.59-.16L734,30.18Zm4.92,8.26-.48.64-.32-.16-.79.79-.16.64-.64.48h-.79l-.48.79-.32-.48.79-.79.64-1.27,1.11-.32.48-.64h.64ZM736.39,27.8v.64l-.64-.16-.32-.48ZM737.5,45l.48,2.22L737,48l-.64-.16-.32-.64V45.9l1-1Zm0,5.4.48,2.54-.48.48h-.64l-.48-.48-.16-1.27.48-1.11.48-.16Zm2.22-9.21-.48.32.32,1.43L736.87,44l-.48-.48.64-1L739.41,41ZM737,66.23l.79.64-.32.64.48.79,1.59-1,.79.64-.16,1.27-.32.48h-1l-1.43,1-.16-1.27-.64-1,.32-.79-.32-.64.16-.48Zm0-31.45.64.16.16.64h-1l.16-.48Zm1.11-8.89-.48-.32L737.18,23l1.11-.64,1,.79v1.75l-1,1Zm-.79-6.19H738l.16.48,1.11-.32.48,1-.64.32-.79-.79h-1Zm2.86,43.2-.79,1.27-1,.32-1-.16V64l1.91-1.43H740Zm-.64,9.85h-.64v-.64l1.75-1.91,1.59.48-.32,1.11Zm2.54-15.88-2.38-1-.48-.79.79-.79,1.75.64,1.11,1-.64.79Zm-.48,4-.32.48-1,.32-.64-.16.64-1.11.64-.16.48.32Zm.32-31.29-.16,1-.64.16-.32-.32.32-1.11.64.16Zm0-8.74.48,1.27-1,.48-.32-.48.48-1.27Zm-.63,44.63.48,1.27h-.16l-.48-.32v-.64Zm1.43-47,.48,1.11-.32.64-.79.48-.79-1.11.48-1,.63-.16Zm-1,48.29.32-.32-.16.64Zm1.27-53.53.32.48-.16.64-.32.16-.79-1,.48-.32Zm-.32,57.5h-.48l.32-.79.32,1ZM744.17,64,744,66.55l-.64-1.91-.48-.32.16-.48h1ZM743.7,41.3l-.64-.16v-.48l.64.32Zm3.18,27.64L746.4,70l-1.11,1.27v1.75l-.64-.16-1-1.59v-.64l1.43-1.11.32-1,.79-.32Zm8.89-15.25,1.91-.32.48.32-.48,2.22.79.79h.79L761.33,58l.64-.79-1.27-1.59.48-.48,1.59,1.11,1-.16.48.48.32,1.27.79,1.11L764.66,60l-.48.16-.32,1.27,1,1.91-.63,1L762,65.44l-1.27-1.11-.48,1,1,1.27.48,1.27,1.43-.79.79-1.11h.64l1.11,1.59,1.11.16,1.59,1.91v2.07l-1,.32-4.92-.32-5.08-.48h-1l-1-.64,1.11-2.06-2.7-1.91-2.07-1.43v-.64L750,63.85l-1.59-1.11-.48.16L747.51,64v.79l-1.27.64L745,63.85l.48-1.27-1.27-1.11.16-.64L744,59.56l1-.79L747,58l.32.16v.48l-1.11,2.06,1,.79.64.16,1.59-.79.64.64.16.79.48.48,1.27-.48.63-1.11L752,59.72l.16-.64.48-.32.64.16L755,60.2l.48-.48V58.61l1-.32.79-1.11-1.11-.64-1.91.64-1.11-.64L751.8,57,750,56.39l-.32-.48.16-.64h2.22l1,.32,1.43-.16.16-.64H754l-.79-.64-.64-1.27.48-.64,1.27-.16,1.27,1.43ZM745.13,11l.48.79-.79.16.16-.79Zm2.22,41.77-.64.48-1.27-.48-.48-.48.32-1.27.64-.48.79.64.64,1.27Zm-.16-3.34-.64.16-1-.32-.16-.48.32-1,1.43,1ZM749.41,30l-1.11,1.11L747,31l1.27-1.11h.79ZM751,45.27l-.32.64-1.75,1.43h-.64l-.64-2.22.64-.32,2.38.16Zm-.48-3.65-.48.48-.64-.16-1-3,.32-2.06-.48-1.27.16-.48h1.27l.32.48-.16,1.27.64,2.22-.32.64.32,1.59Zm4.29,28.91v.64l-4.29.32h-1.27l-.79-.79.16-1.27.64-1.11,1.27-.32.79-1.11,1,.32,1.27,2.38Zm-4.92-17.31-.48-.32-.48-2.07.16-.48,1-.48.79,1.27L750,53.05Zm2.7-4.29-1,.64-1.11-.32v-1l.64-.32.79.16v.32l.48.16Zm1.11-17.31-1.11.64-.32.48-.64.16-.32-.48.16-1.27.79-.64,1.27.48.16.32Zm2.22,13-1.11,2.54-2.38.16L752,47l.79-2.54h2.86Zm-.48-8.58-.32.32-1.43.16-.32-.79,1.11-.48.79.48ZM757.2.48l-.48,1.27-.48.16-2.06-.79-.32-.48.32-.48L756.72,0l.16.32Zm-.63,50.67-.16.32h-.64l-.79-.64.32-.64.48-.16.79.79Zm3.65-9.85.32.79-.48.64-1.91-.48-.32.16-.32-.32.16-2.07-.63.16-.64,1.27h-.64l-.48-1,.16-1.27,1.27-1.43,1.11.16,2.06,1.27,1,1-.32,1ZM759.1,30l-.64-1.11.64-1.11.16-1.11.79-.79h.48l.16.48-1,3.49-.32.16Zm-.16,14.3h.32l-.16.64-.16-.32ZM761,12.71l.16,1.75-.64.79-.64-.32-.16-1.11.48-1.11Zm1.59,9.53-.64.16-.64-.32.16-.64.64-.16.48.32Zm0,9.37v.79l.64.79V34l-.32.32-1.11-.48.16-2.54Zm2.86,3.65-.16,1.27L764,38.44H762.6l-.48-.64.64-1,2.06-1.91Zm-3,34.15.16-.32-.48-.48v.64Zm3.18-43.68-.16.48-.64.16v-1l.64.16Zm12.07,8.58-.48.64-.64-.16-.79,1-.16.64.64,2.22.48.48,1.59.64.16.64-1.27.64.32,4-1.11,1H775.3L772.92,47l-2.7.16-.79,1.59h-1.27l-.79-1,.16-.48,1.59-.16v-.64l-.48-.79.64-1,1.27.16.79-.79V42.57l1-.48.32-.48-.32-.64L771,40.5l-.79-1H769l-1.11.79-.16.64.32,1.27-.48.48-1.11-.64-1-2.07,1-1.59h2.38l1.75-.64.32-.48,1.91-1.11v-.48l.64-.79-.48-1.43,1.27-1.27,2.22.79,1.27,1Zm-10,24.3H768v.64h-.32Zm4.61-4.29.79.64,1-.64.48-1.59.64-.16,1,.48.79,1-.48.48-1.59.64-.16.64-.79.79h-2.22l-1.11-.64-.64-1.11-.79-.64.32-1,1.11-.32V51.15l.79-.79,1.27.32.48,1.11L772.29,54Zm-2.86-34.47.32-.64,1.27-.16.79.79-.16.64-.48.32-1.59-.64ZM774.83,64l-.16.64-1.27,1.27-1.27.32-2.22-1.11-.16-.64.48-.48,1.43.79,1.11-1.59,1.43.16.48.32Zm-4.45-2.06-.48-.79V60l.64-.48.79.79-.16,1.11-.48.32Zm1.91-34.31-.48,1.11.48,1.59-1.11.48-.64-.32-.48-1.91,1.27-1.43ZM772,10.32h.79v.32l-.79-.16Zm1.43,11.75-.32.48-.79.16.48-1Zm.79,4.92-.79,1.11-.79-.64.79-1,.48.32Zm1.59,34-.32.48-1.11-.16-.48-.48.16-.64,1-.32.79.79Zm-.16-35.42-.64.16-.63-.64.63-.64.64.64Zm1.59,25.25h.32v.48l-.32-.16Zm2.7,10,.16.32L779,62.26l-1.43-1.59V60l2.22.64Zm-1-9.21.48.32.16.64-.63.32-.32-.64Zm-.16,18.74.64.32-.32.64-.48-.32v-.32Zm.79-21.92-.79-1,.32-1h1.11v1.27Zm1.59-26.37-.63.16-1.11-.79-.32-.79.64-.16.64.32.79,1Zm0,40.82L781.5,64l-1,1-.64.16-.48-.64.48-1,.79-.64Zm.32-1.75.48.64.48-1.43L784,59.25V58.13l-1.59-1.91-.79-.16-1.11.79-.79-.64L779.59,55l.32-1.27,2.54-1.59.48.48-.32,1.11.79,1.59.79.32.79,1v.64l.64,1.27-.16.48-.79.64v.79l-1,1.43,1.75,2.38.16.64.48.16.32.79-.64-.16-.16-.64-1.11-.32-2.86-3Zm-1.11-24,.16-.64,1.11-.79.79.32v.64l-1.11.79-.64-.16Zm1.59-23-.64,1-.79.16V14.14l.48-.48.79.16Zm-1.43,17.95.63.32-.48.32-.16-.16Zm4.29,11.28.64-.16,1-.79L787.85,45v.48l-.48.48-1.75-.16-1.11.64h-1.11l-.48,1V48.6l-1,.79-.48-.32-.16-.64.32-1.11-.16-1.27L780.7,45l.64-1.27.16-1.43,1-.48h.63l1,.48.48.79ZM781.5,67.51l-.32-.32.64-2.06h1l.16.64-.32,1.11-.79.64Zm1.11-8.89-.48.16-.32-.48.16-.48.63.32Zm3.65,10.64-.48.16-.16.79-.48.16-.16.48-2.06.48-1-.16,2.22-2.07.64.16.48-.32.64.16ZM784.36,44l-.48-.32-1,.16.48,1v.79h.32l1-1.27v-.48Zm2.7,7.31-.32,1.91-.63-1.11-1.11.16v-.79l1.11-.79.63.16.16.32Z"/><path class="cls-1" d="M392.2,46.57V45l-.63-.31-1.26-3.14-.94-.63-1.26,1.57-.63,2.2-1.26-.63-.94-2.83-2.51-.31-1.57,1.26-1.26,2.2-1.26-.63-2.83-7.54-.31-.94.94-2.83,1.57-1.57,2.2-.94-.31-5-1.57-.63-1.26,2.83-1.57-.63-.63-3.14.63-2.51-.31-4.4-.63-1.26V11.69l-.63-.94.31-1.26,1.26-.31,1.89.63.94.94L381.83,12l2.83.94,2.83.31,1.89,1.26v.94l2.2,1.26h1.26l2.2-1.26,2.51,3.46.31,2.2-.63,1.26L395,23l-3.14-1.57-.63.63.31,1.26,2.51,3.14-1.26,2.2-5.66.94-1.57,1.57,1.26,2.2h1.89l3.14,3.14.63,3.14h.94v2.51l-1.26,1.57V45l1.57.94-.94.63Zm-8.49,52.17.94-1.89L390,91.51l5.66-3.46,1.89.94-.31,1.57-4.71,2.51-.31.63-2.51.94-.31,1.26,1.57,1.57,1.26.31,1.57-3.46,1.57,1.26-1.57,2.2.31,2.51-.63.94-1.57-.31L390,99.37l-2.51-.31-2.51.63-.94-.63Zm11-34.88-.31-.31,1.26-1.89h1.57l-.31,1.89h-1.57ZM390.94,105l3.46-.94.63-.94,1.26-.31.63,2.2-3.46,2.51-2.2-.94-.31-.63Zm3.14,16.34,2.2,1.26-.63,2.2H394.4l-.63-.94V122Zm-3.14-6,.94-2.2,1.57-1.26,1.26,1.26-1.57,2.2-1.57.31Zm1.26-31.74,1.26-.31,1.26.63v1.89l-1.26.31-1.26-1.89ZM390,75.8l-.63-.31.31-2.2,1.57-1.89,2.2-.94.94.63.31,1.26-1.89,1.57-1.26.31Zm2.51,44-1.26-.63.31-.94,1.26.31v.63Zm-3.14,12.26v-2.2h1.57l.31,1.57-.94.63Zm-5.66-27.34,2.51.63,2.2,3.14-.63.94-4.4-.63-.94-.94.94-2.51Zm2.2-33.94.31-1.26.63-.31.63.94-.63.94-.31-.31Zm1.57-15.71h-.94V53.8l.94.63Zm-2.2,30.17-.63-.94.63-.63h1.26l-.63,1.26ZM382.46,62V60.09l1.26.31V62ZM351.35,113.2l-1.57.94-2.51-.94-.63-2.2-1.89-.94-1.89-1.89.31-.94,1.26-.63,4.09-.31,1.26-.94-1.57-4.4-2.51.94-1.89-1.26V99.37l.63-.63h1.26l1.89,1.57,1.26.31,1.26-2.2L346.95,95l1.57-2.83-.31-1.57-2.2.63-.63.94h-.63l-.63.94h-.94L341,94.66l-1.26,1.89-1.57.31-2.2,1.89,3.14,1.26,2.2,4.4-.94,2.2-.94.31-1.26-.63-.31-2.51-1.57-1.57-2.2-.31-1.26-1.26.31-.94-.63-.63-2.2.31-1.89,2.51v2.51l3.77.63-.31,1.57-2.2,2.51-2.2-1.26.94-2.51-2.2-.63-.63-1.26v-5l-.63-.94-3.46-.31.31-1.26,3.77-2.51-1.89-3.14-1.26-.31-2.83,2.2v2.2l-3.46.94-.63-.94-.31-2.51-.94-.63-5.34.63L307,90.88,305.46,89l-1.26-.31-.31.63.63,2.2-.31.63h-1.26l-4.4-2.51-.31-1.26,2.83-1.57-.31-1.26L298.55,84h-3.77l-.63,2.2,1.57,1.57v1.89l-1.57,1.57v1.26l-1.57.94-.63-.31.94-3.46L291,87.43h-.63l-.94-1.26h-2.2l-.31.94.94,1.57-.94,1.57-3.46,1.57-1.26-.31L281,89.94l3.46-3.77h2.2l.63-2.2-3.77-3.46V78l-3.14-2.51.31-1.57,1.26-.63,1.57.31,2.2,3.14,3.14-.31.31,1.26,1.26.63,1.26-.94-1.57-1.89L289.75,73l-.94-.94-2.51-.31-4.09-6.29.63-1.26-.63-1.26-1.26.63-2.2,2.83-1.89.94-1.26,3.46-6-2.83v-2.2l.94-.94H274l.94-1.57-1.57-2.83L269,61.66l-.63.63h-2.51l-.94-1.89-1.26-.31-2.2.63-1.57-6.29.94-.94,2.51-.63.94-1.57h.63l.31-1.89-3.14-3.14V43.75l-1.57-2.2-2.2.94-1.26-.31-.63-.94-1.26-.31-2.2.63-3.77-2.83L240.1,40.6l-2.51.94-.31.63,1.26,3.46-.63,1.26-1.26.31-4.09-3.14-5-1.89L225,42.8l-5.34-3.46L219,36.83l-.94-.94-.31-2.83,1.57-1.26,2.2.63,1.26,1.89.31,2.51.94,1.57,2.2,1.57,5.34.63,1.57-1.26V36.52l-.63-1.26L230,34.95V33.69l.94-.63,2.2,1.89,1.26-.31V34l2.83-1.26,4.4-.94.31-.94-1.57-2.2-.94-.31-6,3.77-.31-1.57L235.7,28l.31-2.51,1.26-1.57,1.26.31,1.89,2.2,1.89.63,3.14-.63-3.14-4.09,1.57-.94,3.46,2.2,2.2.31,2.83-2.83.31-2.51,1.26-1.26,1.26,2.2-.31,1.26.94,1.57,2.83-2.51,3.46-.31-1.57-4.09L263,14.2h1.26v2.2L265.87,18h1.26l.31-1.26-.63-2.51.63-1.89h1.26l1.57,1.57L270,15.78l.63,1.26-.31,1.26-1.57,1.57,5,4.09,3.46,2.2v.63l4.4,2.83,6.6,5,1.89.94v.63l3.46,1.89,6,5L303.26,45l2.83,2.51,1.57.31.94-.94,5.34,2.83-.31.94,1.57,1.57,3.14,1.26.31-.63-.94-1.26.63-1.26,6.91-2.51,1.57-1.26V44.69l3.77-2.83,1.57-.31,1.89,1.26,3.14-1.57.94.63-.63,2.51-2.2,1.26L335,48.15l-1.26.31-1.89-.63L330,49.72l.31,1.26-.63,1.26h-2.51L325.58,51l-.63.31-.31,3.46L323.06,56l.31,2.83,1.57,2.83,3.46,1.89,1.89,1.89,2.2.94.63-.94-.94-2.51L329.66,61l.63-1.26,2.2.31,1.57-.94.63-2.2,1.26-.31,2.2,1.26L340.66,56l-2.2-2.83-1.89-.63-.31-.94L338.15,50l.31-1.26-.63-.94.31-2.83,2.83-.63,2.83,1.26h1.26l1.89-3.46,4.4,2.2,3.77,3.46,3.77,1.57.94-.31.94.94-.94,2.2,1.26,1.26,3.46-1.57.94.94v1.26l-1.57,1.26-1.57-.94L362,55.69l.63.94L362,58.52h-2.51l-2.83,1.57-1.57-.94v-.63l-2.51-.63-1.89,1.89-2.2.94-3.77-3.77h-.94l-1.57,1.57v.94l-2.51,1.89v2.2l-3.14,2.83-2.51,1.26,3.46,3.14,2.2-1.26.31-1.57.94-.63,1.26.31,3.14,3.14-.63.94-2.51.94-.31,1.26,3.77,2.2,1.26,1.57h.63l1.26,1.57h.94l1.57,1.89L353.86,83l4.4,3.14h.63l1.26,1.57h.94l2.51,1.89,2.2-.63,2.2,1.26v2.2l.63,1.26.94.31v.63l3.14,2.2,3.14,1.57,3.77,3.46h2.51l.94.94v1.26l-6-1.57-.63.63v1.26l1.26,2.2.31,1.89-.94,1.26-2.83-2.2L368.95,106l-1.26-1.89.31-.63.63.94,2.51-.31,1.26-.94-.94-.94h-2.83l-.94-1.57-3.46,1.26-2.2-.63-2.51-1.89v2.51l-5,5,1.57,3.14-.94.94-.31,2.83-.63.94L352,113.2Zm30.17,1.57h-.31l1.26,2.2-.31.31-.31.63-1.57-.94v-1.26l.94-.94-.94-.31v-.63l1.26.31Zm-4.4-45.57,2.2-1.26,1.89,2.2-1.26,1.26-2.51-1.89Zm-.94,44-.63-.31.31-1.26.63.31-.31.63Zm-5.34-82.65V29.29l-.94-1.89V25.2l1.89-1.26.94.94L373,28l-.63,1.26,3.14.31v.94l-.94.63-2.2-.94-.63.31Zm1.57,32.68,1.26-.94,1.57,1.89-.94.94L373,64.8l-.31-.94Zm-.31,13.2,1.57.63-1.57,1.26-.31-1.26Zm.63,6.29h-.63l.31-1.26.63.63Zm-3.14-25.77,2.2,1.26-1.57.94-.63-1.57Zm1.89-24.83h-.94l.63-.31Zm-2.2,36.77.31-1.26.94-.63.63.94-.31,1.26h-1.26Zm-.31-32.37-3.14-1.26-1.57,1.89L361.09,39l-.63,2.51-.94.63-4.71-2.51L352,37.46l1.89-3.14-.94-.63-1.26.31-1.57-1.26-.31-1.57-1.26-.31-2.2,2.51-9.43-1.89-7.23-1.26.63,2.2L333.12,34l.94,1.89.31,2.83-1.89.94-1.26-.31-1.89-2.83H324l-.63-1.26,3.14-1.89,1.26-1.89-.31-.63.94-.94-.31-.63.63-.63,2.51-.31,2.51-2.2V24.89l-1.57-2.2L330,23.95l-.63,1.26-2.2-4.09-1.57-1.26-2.51.63-1.57-1.57.31-2.83,1.57-1.89,9.43-1.89,4.4-.94.94.94v2.51l-2.2.94L335.63,17l2.2.63,2.51-.94,1.26.31,1.89,1.89-1.57,1.57v1.57l4.71-1.57L349.46,18l1.26-.31,4.71,4.71-.63.94-9.43.63-.94,1.26.63.63,1.89.31.94,1.89,3.77,1.26.31,1.89,1.89,1.57v.94l2.2,1.26v1.57l.94.94.94-.31,1.57-1.89-2.83-3.77-2.2-.63L353.23,28l4.71-2.83,1.26.31.63,1.57,5,5,.63-.63.63-2.83.63-.63.94.94.63,2.51.94,1.26.94-.63.31,1.89-.63.31-.31,1.89Zm1.57-4.4h0Zm-5.66-11,.31-1.26,3.77-2.2,1.26,2.51-1.26,1.89h-3.77v-.63Zm-.94,92.71-.31-.63,1.26-2.83,2.2-1.26.31,1.26-1.89,3.14-.94.63Zm2.2,27.34-1.26-.31-.31-.94h1.26l.63.63Zm-2.2-18.54h1.57v2.2h-1.57l-.31-1.57Zm0-108.11.63-.94.94.31v.94h-.94ZM362,119.8l2.2-.94.31,1.26-1.26,1.57-1.89-.31.31-1.26Zm.31-94.59.94-1.26.94.63-.31,1.89-1.26-.31-.31-.63ZM358.89,72l1.89-.31v.63l-1.89.31Zm-.94-53.42V17l1.89-2.2.94,1.26-1.26,2.83h-1.26Zm1.89,51.85-3.14-2.51,1.26-1.57,2.2,1.57.31.94-.63.94Zm-.31,45.25-1.26-.63v-1.57h1.57v1.89Zm-2.83-59.4,2.2-.63.63-1.57h-3.14l-1.57,1.57v.63l1.26.31Zm-1.57,66.31-.94.63-.94-.63-.63-3.14,1.89-.63.94,3.14Zm-8.8-106.85-.94-.94.31-2.2,1.26-1.57,5,1.57.31.94-.94.94-4.4,1.26ZM351,144.62h-.94L351,144Zm-.31-18.54-2.2-.94-.94-1.89.63-.94,1.57-.31,1.26,2.2-.31,1.26Zm-3.46-58.45,1.26-2.2,1.26-.31L351,66.37l-.63,1.57-1.57.63-1.26-.31Zm-2.51,56.57-1.26-1.26-.31-1.26h-3.46l-1.57-1.26,1.57-2.2,3.14-1.26,4.4,1.89.94,2.2-2.83,3.14Zm-.31-59.08.63-2.2.94-.63.94,1.26-1.26,1.89h-.63Zm-4.71-27,.31-1.57,1.26.31.31,1.26-1.26.31Zm-2.83,77.31-1.57-1.89-1.26-.63-.63-1.89,1.26-.31,4.4,2.51.31,1.57-1.57.63Zm-3.77-63.17.31-1.57,1.89.63-1.57.63Zm-4.71,98.36v-.94l1.89-2.2v-1.57l1.26-1.26,2.51,1.89-.94,2.2-2.51,2.51h-1.89Zm.94-38.65h1.89l1.26,1.57.63,3.14-.63.63-1.26-.31-1.89-1.89-.31-2.83Zm-.63,27h-1.26l-.31-2.2-1.57-3.14.94-.94,1.26.31.94,5.34ZM319.29,33.69l-.63-.94.31-1.26-1.26-3.77,2.2-.94,2.51.94,2.2-.94h1.89l.63-.94.63.31-.31.63.94.94h-1.26l-1.89,1.57H324l-4.08,4.4Zm2.2,92.71.63-1.26,1.26.63-.63.94h-.63Zm1.26-5.66-2.2.31-1.26-1.57,1.57-1.26,1.26.63.63,1.26Zm-3.46-4.4L318,113.2l.63-2.2,1.89-.63,2.2.31-.31,4.71-2.51,1.26ZM319,38.09v-.94l.94-.63,1.89.31-1.26,1.89-1.26-.31Zm-4.71,4.09.63-.31.63-1.89,3.14-1.57V40l.94,1.57.31,2.2-2.2.31-2.2-.63Zm5,111.25-.94-.31,1.26-.63v.63Zm0-63.8.31-2.2-.94-.94-1.89-.31v1.57L318,89.63Zm-1.89-67.25,1.26-1.26.63.63-1.26.94Zm.63,86.11h-1.26l-.31-.94.63-.63.94.31Zm-5.66-22.63h4.71l-.31-3.46-1.89-1.57-1.26-.31-.94.63v2.2l-2.2.94-1.26,1.26.31.63Zm-6.6-43.68v-.94l2.51-3.46.31-3.46,1.26-.63.94-2.83-.63-.31-.94.63-2.2-.94L306.72,29l1.89-1.57,2.51.31,1.57-.94L314.58,28l.63,3.77,1.89,2.2-.63,1.26-3.77,3.46-6.29,3.46Zm7.54-23.88-1.26-.63V15.15l3.14-2.2.94.94-2.2,4.4Zm.94,4.71h-1.57l.63-2.2,1.26-.31-.31,1.89Zm-7.86,81.71.94-4.71.63-.94,4.4.63v3.46l-2.51,2.51-2.51.31-.63-.94Zm-1.26,7.23-.63-2.51,3.77-.63.31-.63,1.89-.31,1.57.94-.94,1.57-.63-.63-3.14,1.89-1.57.31Zm6.29,30.8-1.26-1.57,1.57-.31v1.57ZM301.38,37.46,300.12,34l2.51-.63-.94-1.89,1.57-1.26,2.2.94.31,1.26-1.26,2.83L302,37.46Zm2.51-16,.31-1.89h1.26l.31,1.26-.94.63Zm-2.2,84.85.63-.31,2.2,1.89-.63,1.26-2.2-1.57Zm1.26-81.08,1.26,1.26-1.57,1.26-.63-.94h-.63l.94-1.26Zm-3.77-6.29.94-1.89.94.63-.31,1.89-.94-.31Zm.63,79.51-.94.94L297,97.8l1.26-2.2h.94l.94,2.2Zm-3.14,21.06.31-1.26,1.26-.63,1.57.94-.94,1.57-.94.31-.94-.63Zm.31-14.14,2.2,1.26.63,2.2-.94,1.57-1.57-1.26-1.26-2.2.63-1.26ZM283.47,19.86l-3.14,1.89v-2.2l1.57-1.89,2.83,1.26,1.26-.63h2.51L292,16.72l1.89.94.31,1.26,5,5L297,25.52l-1.26-.31-4.4-4.71-1.26.31V23l1.57,2.2-.94,1.57h-.63l-3.46-3.46-.31-.94h-.63v-.94l-1.57-1.26Zm15.08,124.76-.63-.31.31-1.89h.63v1.89Zm-7.23-17.91.31-1.26,2.83-2.2,1.26.31.31,2.51-1.26,1.57h-2.51Zm-2.83-10.37.31-2.2-.94-3.14h1.26l1.26.94h3.14l.94,1.89-3.77,2.2-.63.94-1.26-.31Zm0-17.91.63-.94,1.26-.31.94.63L291,99.06l-1.26.31-.94-.63ZM280,110.37l-.31-2.51-2.51-.31.63-2.2.94-.31,4.4,1.26,2.2,1.57v1.26l-2.51,2.2-2.2-.63Zm-3.14-28.28L275,83l-2.2-.94L270,84,267.12,83v-2.2L269,79.26l.31-1.57-1.57-1.89V73.6l1.26-.31.94.63h1.57L274,73l.94.63,2.51,8.48H281l2.2.94v.63l-1.26.31-1.57,2.2-1.57.31-.94-.63-.63-3.14Zm-4.71,18.86.31-1.26.94-.63,2.83,1.57.94-.94V98.43l-.94-.63-.63-2.2-.63-.31,1.26-.63V90.88l1.26-.31,1.57,1.57,1.57,5.34-1.26,4.4-4.71,1.57-.31-.94-1.89-.94Zm6.29,45.25h-.94l.31-1.57.63.94Zm-7.86-34.26.94-2.2,1.26-1.26,1.26.63,1.89,2.2v1.89l-4.71-.31-.31-.63Zm0-22.94,3.14-2.51,2.2-.31-.31,1.57L274,89l-.63,1.57-1.57-.31Zm-8.49,33v-1.26l3.46-.94-1.26-3.14-1.26-.31-1.89.94-1.57,2.2-2.2.31-.31-.63,2.2-4.71,7.86-1.26,1.26,3.77,2.2,1.57,2.2.63,2.51,1.57-.94.94-7.23-1.26-2.51,1.89Zm11-25.46-.31-.63.94-.94.63,1.26h-.63Zm-.31,9.11.63-.94H274l-.63.94Zm.94-50.6-1.26-2.2-.94-.63-6.6.94-1.57,3.77,1.26,2.51,4.08.94,2.2-3.14,1.57-.31,1.26-1.26Zm-6.91,37.71,3.77-.63.94,1.26-3.14,1.89-5,5.34-1.26-1.57.94-2.51,1.26-.31,1.89-2.83Zm1.89,32.68.31-1.26,1.26-.31.31.63-1.26,1.26Zm-3.14-40.23,2.2.31,2.51,2.51-.31.63H269l-3.46-2.51Zm-4.71,3.46,1.26-1.57.94.31L264.3,89l-.94,1.89-1.26-.31-.94-1.26Zm-3.46-13.51-1.57-1.57-1.26-.31-.63-.94.63-2.2-.31-1.57,1.89-3.14,1.26-.31,6.28,4.09.31,1.26-1.57,1.89.63,2.51-.94,1.57h-1.26L258,79.26l-1.26-.31-.31-1.26.63-2.2ZM263,136.45l-1.26-.31v-.63l1.26.31Zm-3.14,16,.63-1.57.94.63-.31.94Zm-1.26-43.37v-1.57h1.26l.31,1.26-.94.31Zm-3.46-96.79h1.57l1.89,1.57-.31.63h-1.57l-1.57-1.57Zm-1.26,45.57.31-2.51.63-.94,1.26-.31.94.94-.63,2.51-.94,1.26-.94-.63Zm-1.26,23.88.94.63.31,2.51-.94,2.2H252l-.63-.94.94-4.09Zm.31,43.37-1.26-.31-.63-1.57.63-.31,1.26.63.31,1.26Zm.31-18.86h-.94l.94-.31Zm-6.6-51.54,2.83-.31,3.46-2.2-.31,2.2-2.2.94-3.14-.63Zm1.57,47.14.63-2.2,2.51.63.31.63-.63.94-2.2.31Zm-3.14-41.8-2.51.94-.94.94-1.26-.63-3.14,1.26-1.89-2.83V58.52l.94-1.26,1.26.31.63.94,1.26-.31.94-2.2,2.2-.94h3.46l3.77,6.29v.94l-1.26.31-2.83-2.2Zm.94,48.71v-1.26l1.89-2.2h1.26v2.51l-.94.94-1.57.31Zm0-26.08-1.26-1.89-1.89.63-3.46-4.4.63-.94,2.2-.31,6.28,3.46.63,1.57-1.89,1.89Zm-.63,32.37.31-2.2,1.57-.94,1.26.63v1.57l-.94.94-1.57.31Zm2.51-66-.31,1.26-1.89,1.26-3.14.94L241.35,50l3.14-1.57,2.83.31Zm-4.71,55v-1.57h2.2l-1.57,1.89Zm1.89,7.86-1.57-.31.31-.63,1.26.31ZM243.55,93.4l-.31-1.26,1.26-.31.31.94-.63.63ZM242.3,34.95l1.26.31v-.63l-1.26-.31Zm.31,37.4-2.2-.63.63-.94,1.57.94ZM233.5,20.18V18l-2.2-2.83-.94-3.77.31-1.26.94-.63,8.17,3.77.31.94L236.33,17,236,19.55l-.63.94h-1.26Zm4.09,33.31L237,55.06l-2.2-1.26L236,52.23l1.26.63Zm-3.14,16.66.63-.63L237,71.09,236,72h-.94l-.63-1.26Zm-.31,9.43.63-.94h.94L236,80.2h-1.57Zm.94,10.69-1.26,2.51,1.57,4.71-.94.94-1.89-.63-.94-1.57L231,92.14l.63-1.26,2.83-.94Zm-3.46-64.74v-.63l-2.2-.94-.31-.63.63-1.26,1.89-1.26h1.57l.31,1.26-1.26,2.83,1.57,1.89-.63,3.14-2.83-.63.94-3.14Zm-2.83,81.39.31-1.26,1.57-.94.31.63-.63,1.26-.94.31ZM226,97.17l2.2-2.83,1.26-.31.63,1.26-.31,1.26-2.2,1.89-.94-.63Zm2.83-64.42-2.2-.63.31-1.57,1.26.31.63.94Zm-5.66-17-2.83,1.89-2.83-2.2.63-.94,9.74-.94.94,1.26L227.53,17l-1.26.31ZM226,89.94V88.37h.94l.63,1.57Zm1.57-52.48h-1.26l.31-1.26.94.63ZM226,82.09l.94-.31.31.63-1.26.31Zm-2.83-4.71.94.31,2.2-.63.63.31-.31,1.26-1.89,1.26-1.26-.31L223.13,78Zm3.14-20.74L224.38,56V54.43l.94-.31,1.57.63-.31,1.57Zm-2.51,57.82.94-.63,1.26.31.31,1.26-.94.63-1.57-.94ZM222.5,47.83l1.57-.63,1.26,1.89-.63,1.26L223.44,50l-.63-1.57Zm-6.6,22.31.94-.63,4.71-.94.31,1.26L220,73.92l-1.57,1.89-1.89-1.57-.94-3.46ZM220,136.45l-.94-.63.31-.63.94.94Zm-2.51-34.57v-.63l1.57-.94,1.26.31L220,102.2h-2.2Zm-.63-15.4,1.57.63.31.94-1.26,1.26-1.26-.63V86.8ZM215,40.92V39.35l2.83.31-.31,1.26-1.89.31Zm-5-26.08.63-.94,1.57.63,2.51-.63,1.26.94L214,18.29,212.13,18l-1.89-2.51Zm2.51,51.22,1.26-1.89.94.31.31,1.26L214.33,67h-.94l-.31-.63Zm-5.34-17.6,1.57-1.89,1.89.63,1.26,2.2-.94.31-3.14-.94Zm4.4-15.71h-.94L206.79,29l1.89-1.57,2.2.63.94,4.09Zm-5.66,37.4,1.26-4.71.94-.31,3.14,5L211.5,72l-.94.31-4.4-1.57ZM209,23.95l1.26-.31.94.63v.63l-1.89.63-.31-.94Zm-5.66,15.4L209,38.09l.63,3.14.94,1.57-1.26.94L208,42.49l-3.77-1.26-.94-.94Zm5,44.94-1.26-2.2,1.26-2.2h1.26l.63.94-.31,2.2L209,84Zm-1.89,2.83.63-2.83,2.51,2.51-.94,1.57-1.89-.63Zm-2.2-66.31.63-3.14,1.26-1.57,1.26.31.94,1.57-2.51,4.09-1.26-.63Zm1.26,112.51.94.31-.31,1.26-1.26.31v-1.57Zm-.31-78.25-1.57-1.57-.31-1.26,1.89-1.57.94.63.31,2.2-.63.94Zm-.63-21.37,1.89.94-.31,1.57-.94.31-.94-.63L204,34.32Zm-1.26,41.17,1.26-.63,1.57.63-.63,1.26-.94.31-.94-.94Zm-5,26.71-1.26-.63-1.57-1.89h-1.26L193,97.8l.63-1.26,4.09,1.89,2.83-1.89,1.26.31,1.57,1.89,2.2,1.26v.94l-.94.94h-1.26l-2.2-1.26-2.2.94Zm2.2-59.08,1.26-.63.94.31,2.2,3.46L203,46.89l-1.26-.63L200.5,42.8ZM194.84,18l.94-.63-.63-1.89.63-.94,5.34-.31,1.57.94-.31,1.26-1.57,1.89L198.3,25.2l-2.2-1.26.63-1.26-.31-2.51-.94-1.89Zm3.77,50.91h3.46l.31.94L200.81,72l-2.51-.31-.94-.94V69.51ZM198.3,34l1.26.31,1.26,1.26-.31,1.26-2.2-.94L198,34.63Zm-.63,50.28-.31-1.57.94-.94L199.87,83l-2.2,1.89v2.51l-1.26.63-1.57-1.89,1.89-1.89ZM192,47.2l.63-1.26h1.26l.63.63h1.26L197,47.83l-.63.94-2.83.31-1.26-1.26Zm1.26-6.29.31-1.89.94-1.26h1.89l.31.63-1.26,2.2-1.57.63Zm1.26,49.34.94.63-.94,2.51-1.89-.94v-.94l.94-.94Zm-.94-9.43h-1.26l-.94-1.89-.94-.63-2.83,2.2-.94-1.89.94-1.89L187,74.23l-2.2-.94-1.57-2.2.63-.94,2.2-.31,1.57-2.2,2.83-1.57.63-2.51.94-.63,1.26.63L192,68.26v2.2l-2.2.31v2.51l2.83,2.2,1.26,4.71Zm-11-49.34,1.89-3.14-.94-2.51.63-1.57-1.89-1.57L182,20.8l1.57-.31.31-.94L182,18.29l-2.51.63v-.63l2.2-1.26,3.14-.63V13.89h6l-.31,1.26-2.51.63-.63.94.31,6.29,1.89.94.31,1.26L185.42,28l2.83,1.57,2.51-.94,1.89.63L193,29l.94.63v1.26l-1.57,1.89-6.6,1.57L182.9,31.8Zm11,27.65-.31-.63h.31ZM191.7,106l-2.51-.94-1.57-1.26L187,102.2l.63-2.83.94-.31.94.63.63,2.2L193,104.4l-.94.94Zm.94,6H192v-1.26h.63Zm-3.46-73.22-1.26-.31,1.26-.63Zm-8.17.94L182,39l4.71,1.89,1.57,1.89v.94h-4.4L181,40.29Zm4.09,72.28,1.26-.94.94.63-.63,1.57-1.26-.94Zm-7.23-22.31.31-3.77,1.26.31L181,87.74l2.51-.63,2.2.94-.31.63L187,89.94l-1.57.94.94.94-.63.94L186,94l-.94.63-4.4-1.89-1.26.63-.31,2.83-1.57.94L176,95.6,175.67,94l1.57-3.46v-.63Zm5-27,.63-.94,1.57.63-.63,1.26h-.94l-.31-.63Zm.63,44.94v-1.26h1.26v.94l-.63.31ZM176.3,50l.94-.63,2.2.94,4.09-3.46.94.94L182,50.66l-1.89-.31-.94.94h-1.26l-.31.63-1.26-1.26Zm2.83,68.19-1.57-.63,1.26-4.09h2.51v1.26L179.44,116l-.31,1.57Zm1.57-80.45-1.26-.31.31-1.26h.94l.31.94Zm-4.4,3.77.94-2.51h1.26l1.26,1.89-2.2,1.26Zm3.46-26.4h-1.89V13.89h1.89Zm-3.14,42.43.31-1.26h1.57v1.26l-1.26.31ZM165.93,90.88l-3.14,1.26-1.57-2.83,1.89-.94L165,89.63l2.83-2.83.31-1.26L165,82.09l-1.57-1.26-1.26-3.46,1.57-2.2,4.4.31,3.14,1.89,2.83-2.2,1.89.94,1.26,4.4-.94.63v.63l-2.51.31-1.89,2.83-2.51,2.2.63,1.26,1.89,1.57v3.14L170.65,95,168.13,94l-1.89-2.83Zm8.8,19.48-1.26-.31v-.63l1.26.31ZM171,123.57l1.89-1.89,1.57,1.57-1.26,1.26-1.89-.31Zm.94-59.08v-2.2l.63-.31,1.26,1.26-.94,1.26Zm.31-12.26.94.94-2.51,4.09H170l.94-4.09Zm-1.57-15.71.94-.94,1.26.31-.31,1.57-.94.31-.63-.63Zm-.94,8.8.94-.94,1.57,1.26-.94,1.57-1.57-1.26Zm-1.26,79.19h2.2l-.63,3.77-.94.63-.94-.63v-3.14ZM170,57.26l-.31.63-.31-.94Zm-2.83,52.8,1.57-.31-.94.63.94,3.14-.63,1.26h-1.89l.31-2.83.94-1.26Zm-13.51-2.51.63-2.51,1.89-1.26,1.89-7.86L159,95l1.89.63,2.51-1.26.63.94-.31,1.26-3.14,1.89-.63,2.51,1.26,2.51-.31.94-4.09.31-1.89,2.83Zm7.54-93.34.31-1.26,1.89-.63v1.57l-1.26.94-.63-.31ZM160,70.14l-.63-.94.94-2.51V65.12l.94-1.57,1.57.94-1.26,3.46.31.63-.63,1.57Zm-2.2-29.54.31-1.26,1.57-1.57h1.57l.63.63v1.26l-1.26,2.2h-1.26l-1.26-.94Zm-2.83-15.4h1.89l-.31.94-1.26-.31Zm-.63,71.34.63-.31.31.94Zm-2.51-63.17h-1.26l-.94-2.83,1.26-1.26L153,29l.63.63-1.89,3.14ZM149.9,53.49h-1.26v-.94l-1.57-1.26v-2.2l.63-1.26,1.89-.63,1.89.94,1.89,2.2-.31.94Zm-.31-41.17h1.26l1.89,1.57.63,1.26L153,16.4h-1.89l-1.57-1.57-.31-1.89Zm-3.14,60.34L149,69.83l.94.94.31,2.2-.63.94-1.26.31-1.57-.94ZM136.39,23l.63-1.89,1.57.31L140.48,23l.63,2.51h1.26l1.57-1.89,1.89.63.63.94,2.2.94V27.4l-2.83,3.14h-4.09L135.13,29l-1.26-1.57.31-2.2,1.57-1.89Zm8.49,20.74.31-1.26,1.57-1.26,1.26.94-1.57,2.51-1.26-.63Zm.31,54.37-.63-.31.31-.94.63.31-.31.63ZM143.93,23l-1.57-1.89.94-.94,1.57.63-.94,1.57Zm-5.66,79.51,1.26-2.51,1.57.94-1.26,2.51-.94-.63Zm-5-15.08.31-1.26,2.51-2.2,1.26.94.31.94-1.89,1.57Zm3.14,33.63h-.63l.31-1.26h.63l-.31.63ZM132.3,20.8l-.31.31.31-.94Zm-4.09,0,.63-1.26,2.83.63v.63l-.94.63-1.89-.31ZM126.65,95l.31-2.2,1.26-1.89,1.89-.31.94,2.51-.31.94-1.89,1.57-1.57-.31Zm4.09-25.77h-.63l-.31-1.26h.94Zm-6.91-39.91,1.57,2.2.94.31.94-.63,1.26-2.51.94.63.63,3.77-.94.94h-4.71l-2.2-.63v-.63l-.63-.31.94-2.83Zm0,72.28.31-.63,1.57.31.63.94-.63,1.26h-1.26l-.63-1.26Zm1.89-55.94-.94-.31V43.75l1.26.31v1.26Zm-6.29-2.2.94-3.46-.63-2.51-1.26-1.57.31-.63,4.08.63,2.2,2.2-.31.94-2.2.31-.94,1.57.63,2.51-.94.63L120,43.75Zm2.83-19.8.31-1.26.94-.63,1.26.94-.63.94-1.26.31Zm-.63,90.19v-2.51l1.57-.94.31,1.26-.63,2.2Zm-.31-80.14L121,32.12v.31h.63Zm-.94-2.83.63,1.26-.63-.63Zm-3.46-10.68,2.2-.63,1.26,1.26-.94,1.57-2.2-1.57Zm1.26,3.77-.31.94-2.51,1.89-1.26-.63v-2.2l3.77-.31ZM115,31.8l-.63.31-1.26-1.57.31-1.26,1.57-.63.63.94-.31,1.89Zm-1.57,31.11.63-.63,1.26.63-.63,1.26-1.26-.31Zm-3.77-8.8.31-1.26,4.71-2.2v.94l-2.51,3.14h-1.89Zm1.89,31.74.94.31.31,1.57h-1.26l-.31-1.57Zm0-4.09-.94-4.09,2.2,1.26v2.83Zm-2.2-66.31V14.2l1.26-1.89,1.26-.63.94.94-.94,2.51-.94.94-1.26-.31Zm2.2,9.11-.94-.63.31-1.57,1.57.63-.63.94Zm-3.46,122.25,2.51-.31.94.63v1.26l-1.26.31-2.2-.63ZM110,33.06l-.63-.63V31.17l1.26-.31.31.63-.63.94ZM107.16,91.2l-.31-.31,1.57-2.2,1.26.31-.31,1.26-1.89.31ZM109,57.89l-.31,1.26-2.2.63-1.89-.63-.94-1.26.31-.94,2.2-.94,2.51,1.26Zm-.63-23.57-.63-.31.63-1.57.63.94-.31.63Zm-3.77,76.37v-1.57h2.51l.31,1.26-2.2.31Zm-1.89-28.6.31-1.57,2.2-2.83h.63l.94,1.57-.31,1.26-2.83,1.89-.31-.31Zm0-46.51.31-1.26.94-.63,2.51-.31.31.94-.63.94-2.83.63ZM106.54,95,105,94.66V94l-4.08-1.89-1.57.31-2.2-.94-.63-.94.94-1.89,2.51-.94.94-1.89h1.26l1.57,1.57-1.26,1.89v1.26l3.14.31.94,3.46ZM96.79,78.63l.94-1.26.63.31,1.57-1.57.31-1.26,1.26-.94h1.57l.94-1.57.63.94-1.57,1.57-1.26,2.51-2.2.63-.94,1.26H97.42Zm5,20.43V97.8l1.26.31.63.94Zm-2.2-33.94-.94-4.4,1.89-1.57,1.26.31.63,1.26v2.51l-1.89,1.89Zm0-10.69-.94-5,.94-.94h1.26l.94.94.31,2.51-.94,2.2-.94.31Zm-4.4,18.23.94-.63-.63-2.83,5.34-2.2.94.94-1.26,1.89L95.85,73ZM100.56,23,99,21.75l.63-1.26-.94-1.57L95.54,20.8,94,19.55,94.28,17l.63-.94h1.89l2.83-1.89.31,2.51,1.26,1.89-.63,1.57.63,1.26-.31.94Zm0,62.22-1.26-.31L99,83.66h1.89l-.31.94Zm-2.2,17.6.94.63.94,5L98,109.74l-1.89-1.57v-3.46L98,102.83Zm1.57,12.26H98.68l-.31-.94-2.2.63-.94-1.89,1.26-.63L98,113.83h1.89ZM94.28,29.6l1.57-2.51,1.89-.63,1.89.31v.63l-3.77,2.83H94.59Zm1.26-19.48h1.26v1.26l-3.46,3.77-3.14-.94.63-2.2Zm-5,31.43,4.71,1.89L96.16,45l-1.57,1.57-3.46-1.26-2.2-1.89,1.26-1.57Zm.94-7.86.63-.94L94,32.12l1.26.31L94,34.63l-1.26.31-.94-.63ZM90.82,95.6l.31-1.89,1.26-.31L93,94l-.63,2.2-1.26-.31Zm0,17.28-.94-2.51,1.89-.94.63.94-.94,2.51Zm1.26-88.31-.94-2.51h.31l.94.63v1.26Zm-2.83,93-.94-2.2.63-1.26,1.57-.94,1.57,2.2-.94,1.89-1.26.31Zm1.89-95.54-.63.63.31-1.26ZM88.62,128,88,127l.31-1.26.63-.31,1.57,1.89-.94.63ZM89.25,14.2h.94l-.63,1.57-.63-1.89ZM86.42,27.4l.31-5L88,26.15l.94.63-.31.94H86.74Zm.94,44.94,1.26.31v.94L87.37,73ZM81.08,17.66l.94-2.2,2.2-2.51V9.49l1.26.31,1.89,3.14V14.2l-2.83,2.2-.63,1.89-1.57.63ZM63.48,47.83l-3.77.63-.94-.63.94-4.4-1.57-1.57H56.57l-4.09-2.51-1.26,1.57,2.51,3.14L52.8,45l-3.14-2.2-1.89.31-.94-.94-.63-2.51-1.57-2.2,1.26-2.2.94-.31.63-2.51-1.89-3.77,1.26-1.89,4.4-2.2,2.51,2.2.94-1.89L52.8,22.38l-.94-2.51L49,21.43l-1.57,2.2H46.2L44,20.49l-2.2-.31L38.65,16.4V12.32l1.89-.63,9.74.63,10.06.94h1.89l1.89,1.26-2.2,4.09,5.34,3.77,4.09,2.83v1.26l3.46,1.26,3.14,2.2.94-.31.94-2.2V25.83l2.51-1.26,2.51,3.14-.94,2.51,2.51,2.2-.31,1.26.63,2.51-1.89,1.57-4.08,1.57L80.14,39v-.94L82.34,34l-1.89-1.57-1.26-.31-3.14,1.57-1.26-1.26-.31-1.57-.94-.94L71,30.86l-1.26,2.2L71,35.89l-.31,1.26-.94.63-1.26-.31-3.46-2.51-.94.94v2.2l-1.89.63-1.57,2.2,2.2,1.26,3.77-1.26,2.2,1.26,2.51-.94,3.46,1.26.63.94-.31,1.26h-4.4l-1.89-.63L66,44.37l-.31,1.26h1.26l1.57,1.26,1.26,2.51-.94,1.26L66.31,51,63.8,48.15Zm21.06,84.54-.94-1.57,1.57-.31-.31,1.57Zm-4.4-82.65,1.26-.94,2.51.94.94.94-.63,2.51L83,54.12l-1.57-1.26-1.26-2.51Zm.31,6.6L81.71,56l1.89.63.31.94-.63,1.89-2.83-1.89Zm-4.4,38.34,2.2-2.2,2.51.31L78.25,95H76.68ZM72.91,64.49l.63-1.26L77,60.4h1.26l1.26,4.4-1.26.63-4.71-.31Zm.94,7.23.94-.94,1.26.31,1.89,6-.63,4.09.94,2.51-.31.94H75.42l-.63-.94.31-2.51-1.26-4.4.63-1.26-.63-3.14Zm-8.48-57.2V13.26l8.48-.63h2.51l1.57,1.57-.31,2.51-1.26,2.2-2.51.63-1.57,2.2-1.89-.63L67.88,16.4Zm9.74,34.25.94.63L77,53.49l-.31.94-1.89.94-1.57-2.51,1.57-3.77Zm-5.34,8.49L71.65,56l2.2.63v1.89l-1.26.63L71,58.83V58.2l-.94-.31Zm-2.2,34.25,2.2-1.26.63-.94L71.65,89l.63.94L72,92.46,70.4,93.71l-2.51-.94-.31-.63Zm-4.4-25.77,2.2-5,4.71-.31L71,61l-1.57,5H63.8Zm.94,17,.63-.63,2.83-.31.63,1.57-2.2.94-1.57-.94Zm-3.46,70.4.94-2.51.94-.31,4.09,1.57.63.94-.63.94-5,.31-.31-.63ZM61.91,52.86l.31-.63h1.26l1.57,1.26-.63,1.26-.94.31-1.57-1.57ZM54.68,72.34l-.63-1.57L55,69.51l3.77.94.63-.31.63.63-.31,4.09L61,74.54,62.22,72h1.26l.94,1.89-.31,2.51L61.6,79.26l-2.2-.31-4.09-2.51-1.89-1.89.63-1.89Zm2.2,22.31,1.26,2.2-1.26,2.2-.31,2.2L55,102.83h-.94l-.31-.94L55.63,95l.63-.31Zm.31-28.28h-.63l.31-1.26.31.63Zm-4.09,62.54-.31-3.46,1.26-1.57,1.26.63.31,2.2-.94,2.2ZM50,110.06l1.26-.31,1.26.63-.31,1.26-1.26.31-.94-.63Zm0-18.54V89.94l-1.26-1.57V86.8l.63-.63,2.2.94-.31,5Zm-5.66-7.23.31-2.51L47.14,78H50l.94,1.26-1.26,1.89-4.09,3.77Zm6-67.57-.31.63.94.94V17ZM44,103.14l.31-.94,1.26-.31v1.89l-1.26-.31Zm-23.88-17,.94-1.26,1.26.31,1.57-1.89.31-1.26-1.26-4.4L22,76.74l-3.14-1.26-.31-1.26L21.06,73l-.63-7.86,2.2-1.89h2.2L29.54,61l5.34-.31,1.57-3.14H39l1.57,1.89-.31.94-3.14.31V62L38,63.54l-1.26,1.89-2.51-.31-1.57,1.57v3.14l-1.89.94-.63.94L30.8,73l2.51.94,1.57,1.89H37.4l2.2-1.57L39.91,73l-.63-2.51.94-.94,2.2,1.26,1.89,4.09L42.43,78H37.71l-3.46,1.26-.63.94-3.77,2.2v.94L28.6,84.91l.94,2.83L27,90.26l-4.4-1.57L20.11,86.8Zm19.8-48.08h-.63V36.83h.63ZM30.8,46.57l-1.57-1.26-1.89,1.26-.94,3.14L25.14,50l-1.89-.94L21.68,47.2l.94-.94L25.77,45l.31-1.26,1.57-1.57h4.4l2.2,1.26,1.26,2.2,1.57,1.26-.63,1.89-2.2.63v3.46l-1.57,1.57-2.51-.63-.94-2.2,1.57-4.4Zm5.66,68.19L35.83,116l-2.51.31-1.57-1.57.31-1.26.94-.63,3.14,1.26ZM25.77,27.4l.31-1.26,2.51-2.51L31.11,23l4.4,2.2.31,1.26-.94.94-2.83-1.57L29.85,29,27,28.66,26.08,28Zm8.8,4.09.94,1.57v2.2l-1.26.94-1.57-1.57.31-2.2.94-.63ZM30.8,99.37l.94-2.2L30.8,94l2.2-.94,1.26.63.94,3.77-2.51,2.83Zm.63,34.25H29.85V133l1.57.31ZM28.6,110.37l.63-.94,1.57-.31L29.85,111ZM27,100.63l1.57-2.2,1.57,1.26-1.57,1.89-.94-.63ZM23.88,33.37l.63-.94,2.2.31.94.94-.31,1.26-1.89.63L23.88,34Zm.31,70.08,1.26-.31,1.26,1.26-1.26,1.26L24.2,104.4Zm-3.14-50h-.63v-.94l.63.31Zm-5.34-19.8-.31-.63,2.2-2.2L20.43,34v1.26L16,34ZM17.6,51.92l-.94-.63L16.34,50l1.26-.63.63,1.26Zm.31-37.08-1.26-.63.63-1.26.94.63v.63ZM16.34,58.2l1.57,1.89L17.28,62h-2.2V59.46ZM13.2,110.37l1.26-.31,2.2,1.57.63,1.57-1.26.31-1.26-.63L13.2,111Zm0-80.77-.63-2.2,1.89-1.89,1.26-.31.94,1.26-.94,1.89L14.14,29.6Zm-.63,3.46-.94-1.26-.94,2.83-3.14,2.2V39l3.14,3.77,1.57.31,2.2-1.57L16,42.8l.31,2.51-.63,2.51-5,3.14L9.74,50l.63-2.2L8.8,44.69l-1.57-.63L5.66,42.17V40.92L4.4,38.4l.31-.94L6.29,36.2V34.63L8.17,31.8,4.71,27.09,4.4,25.83l-.94-.31-.63-1.57,1.26.31.31,1.26,2.2.63,5.66,6Zm2.2,47.45-.31,1.26-2.2,1.57-1.57-.63V81.46l2.2-1.57,1.26.31Zm-3.14,45.57,1.26-1.89,1.57-.31v2.2l-.94.94-1.57-.31Zm2.83-35.51-1.26-.63.94-.63.31.31ZM6,68.26l-1.26.31L2.83,70.14,0,65.12v-.94l.94-.94,3.46.31,2.2-1.26H8.8l.94-1.89V57.89l1.89-1.57.94.63.31,1.26-.63,2.2.31,2.51,1.57,2.2-1.26,2.51-.31,2.83-1.89.94H9.43l-1.89-.94L6.6,68.89Zm6.6-47.77.63.63L11.94,25.2H10.06l-.31-1.26.63-2.2,1.57-1.26Zm-2.2,17.6.94-.31.63.94-.31.94L10.37,39ZM3.14,17l.94-.31.31-1.57.94-.31.31-.94,4.09-.94,1.89.31-4.4,4.09L6,17,5,17.66l-1.26-.31ZM6.91,67l.94.63,1.89-.31L8.8,65.43V63.86H8.17L6.29,66.37v.94ZM1.57,52.54l.63-3.77L3.46,51l2.2-.31v1.57L3.46,53.8,2.2,53.49l-.31-.63Z"/></g></g></svg>