<svg id="Layer_1" data-name="Layer 1" xmlns="http://www.w3.org/2000/svg" viewBox="0 0 396.6 144.56"><defs><style>.cls-1{fill:#382e2b;}</style></defs><title>box-decor-1-2</title><path class="cls-1" d="M391.26,37.08V35.51l-.63-.31-1.26-3.14-.94-.63L387.17,33l-.63,2.2-1.26-.63-.94-2.83-2.51-.31-1.57,1.26L379,34.88l-1.26-.63-2.83-7.54-.31-.94.94-2.83,1.57-1.57,2.2-.94-.31-5-1.57-.63-1.26,2.83L374.6,17,374,13.83l.63-2.51-.31-4.4-.63-1.26V2.2L373,1.26,373.35,0l1.26-.31,1.89.63.94.94,3.46,1.26,2.83.94,2.83.31L388.43,5V6l2.2,1.26h1.26L394.09,6l2.51,3.46.31,2.2-.63,1.26-2.2.63-3.14-1.57-.63.63.31,1.26L393.14,17l-1.26,2.2-5.66.94-1.57,1.57,1.26,2.2h1.89L390.94,27l.63,3.14h.94v2.51l-1.26,1.57v1.26l1.57.94-.94.63Zm-8.49,52.17.94-1.89L389.06,82l5.66-3.46,1.89.94-.31,1.57-4.71,2.51-.31.63-2.51.94-.31,1.26L390,88l1.26.31,1.57-3.46,1.57,1.26-1.57,2.2.31,2.51-.63.94-1.57-.31-1.89-1.57-2.51-.31-2.51.63-.94-.63Zm11-34.88-.31-.31,1.26-1.89h1.57L396,54.05H394.4ZM390,95.54l3.46-.94.63-.94,1.26-.31.63,2.2-3.46,2.51-2.2-.94-.31-.63Zm3.14,16.34,2.2,1.26-.63,2.2h-1.26l-.63-.94v-1.89Zm-3.14-6,.94-2.2,1.57-1.26,1.26,1.26-1.57,2.2-1.57.31Zm1.26-31.74,1.26-.31,1.26.63v1.89l-1.26.31-1.26-1.89Zm-2.2-7.86-.63-.31.31-2.2,1.57-1.89,2.2-.94.94.63.31,1.26-1.89,1.57-1.26.31Zm2.51,44-1.26-.63.31-.94,1.26.31v.63Zm-3.14,12.26v-2.2H390l.31,1.57-.94.63Zm-5.66-27.34,2.51.63,2.2,3.14-.63.94-4.4-.63-.94-.94.94-2.51ZM385,61.28l.31-1.26.63-.31.63.94-.63.94-.31-.31Zm1.57-15.71h-.94V44.31l.94.63Zm-2.2,30.17-.63-.94.63-.63h1.26L385,75.42Zm-2.83-23.26V50.6l1.26.31v1.57ZM350.4,103.71l-1.57.94-2.51-.94-.63-2.2-1.89-.94-1.89-1.89.31-.94,1.26-.63,4.09-.31,1.26-.94-1.57-4.4-2.51.94-1.89-1.26V89.88l.63-.63h1.26l1.89,1.57,1.26.31,1.26-2.2L346,85.48l1.57-2.83-.31-1.57-2.2.63-.63.94h-.63l-.63.94h-.94L340,85.17l-1.26,1.89-1.57.31L335,89.25l3.14,1.26,2.2,4.4-.94,2.2-.94.31-1.26-.63-.31-2.51-1.57-1.57-2.2-.31-1.26-1.26.31-.94-.63-.63-2.2.31-1.89,2.51v2.51l3.77.63-.31,1.57-2.2,2.51-2.2-1.26.94-2.51-2.2-.63L324.63,94v-5L324,88l-3.46-.31.31-1.26,3.77-2.51-1.89-3.14-1.26-.31-2.83,2.2v2.2l-3.46.94-.63-.94-.31-2.51-.94-.63-5.34.63-1.89-.94-1.57-1.89-1.26-.31-.31.63.63,2.2-.31.63H302l-4.4-2.51-.31-1.26,2.83-1.57-.31-1.26-2.2-1.57h-3.77l-.63,2.2,1.57,1.57v1.89l-1.57,1.57V83l-1.57.94-.63-.31.94-3.46-1.89-2.2h-.63l-.94-1.26h-2.2l-.31.94.94,1.57L286,80.77l-3.46,1.57L281.27,82,280,80.45l3.46-3.77h2.2l.63-2.2L282.52,71V68.51L279.38,66l.31-1.57L281,63.8l1.57.31,2.2,3.14,3.14-.31.31,1.26,1.26.63,1.26-.94L289.12,66l-.31-2.51-.94-.94-2.51-.31-4.09-6.29.63-1.26-.63-1.26-1.26.63-2.2,2.83-1.89.94-1.26,3.46-6-2.83v-2.2l.94-.94h3.46l.94-1.57-1.57-2.83-4.4,1.26-.63.63h-2.51L264,50.91l-1.26-.31-2.2.63L259,44.94l.94-.94,2.51-.63.94-1.57H264l.31-1.89-3.14-3.14V34.25l-1.57-2.2-2.2.94-1.26-.31-.63-.94-1.26-.31-2.2.63-3.77-2.83-9.11,1.89-2.51.94-.31.63,1.26,3.46L237,37.4l-1.26.31-4.09-3.14-5-1.89-2.51.63-5.34-3.46-.63-2.51-.94-.94-.31-2.83,1.57-1.26,2.2.63,1.26,1.89.31,2.51.94,1.57,2.2,1.57,5.34.63,1.57-1.26V27l-.63-1.26-2.51-.31V24.2l.94-.63,2.2,1.89,1.26-.31v-.63l2.83-1.26,4.4-.94.31-.94-1.57-2.2-.94-.31-6,3.77-.31-1.57,2.51-2.51.31-2.51,1.26-1.57,1.26.31,1.89,2.2,1.89.63L244.5,17l-3.14-4.09,1.57-.94,3.46,2.2,2.2.31,2.83-2.83.31-2.51L253,7.86l1.26,2.2-.31,1.26.94,1.57,2.83-2.51,3.46-.31L259.58,6l2.51-1.26h1.26v2.2l1.57,1.57h1.26l.31-1.26-.63-2.51.63-1.89h1.26l1.57,1.57L269,6.29l.63,1.26-.31,1.26-1.57,1.57,5,4.09,3.46,2.2v.63l4.4,2.83,6.6,5,1.89.94v.63l3.46,1.89,6,5,3.77,1.89L305.15,38l1.57.31.94-.94L313,40.23l-.31.94,1.57,1.57L317.41,44l.31-.63-.94-1.26.63-1.26,6.91-2.51,1.57-1.26V35.2l3.77-2.83,1.57-.31,1.89,1.26,3.14-1.57.94.63-.63,2.51-2.2,1.26-.31,2.51-1.26.31-1.89-.63L329,40.23l.31,1.26-.63,1.26h-2.51l-1.57-1.26-.63.31-.31,3.46-1.57,1.26.31,2.83L324,52.17l3.46,1.89,1.89,1.89,2.2.94.63-.94-.94-2.51-2.51-1.89.63-1.26,2.2.31,1.57-.94.63-2.2,1.26-.31,2.2,1.26,2.51-1.89-2.2-2.83-1.89-.63-.31-.94,1.89-1.57.31-1.26-.63-.94.31-2.83,2.83-.63,2.83,1.26h1.26L346,32.68l4.4,2.2,3.77,3.46,3.77,1.57.94-.31.94.94-.94,2.2L360.15,44l3.46-1.57.94.94v1.26L363,45.88l-1.57-.94-.31,1.26.63.94L361.09,49h-2.51l-2.83,1.57-1.57-.94V49l-2.51-.63-1.89,1.89-2.2.94-3.77-3.77h-.94L341.29,49V50l-2.51,1.89v2.2l-3.14,2.83-2.51,1.26,3.46,3.14,2.2-1.26.31-1.57.94-.63,1.26.31,3.14,3.14-.63.94-2.51.94L341,64.42l3.77,2.2L346,68.19h.63l1.26,1.57h.94l1.57,1.89,2.51,1.89,4.4,3.14h.63l1.26,1.57h.94l2.51,1.89,2.2-.63,2.2,1.26V83l.63,1.26.94.31v.63l3.14,2.2,3.14,1.57,3.77,3.46h2.51l.94.94v1.26l-6-1.57-.63.63v1.26l1.26,2.2.31,1.89-.94,1.26-2.83-2.2L368,96.48l-1.26-1.89.31-.63.63.94,2.51-.31,1.26-.94-.94-.94h-2.83l-.94-1.57-3.46,1.26-2.2-.63-2.51-1.89v2.51l-5,5,1.57,3.14-.94.94-.31,2.83-.63.94-2.2-1.57Zm30.17,1.57h-.31l1.26,2.2-.31.31-.31.63-1.57-.94v-1.26l.94-.94-.94-.31v-.63l1.26.31Zm-4.4-45.57,2.2-1.26,1.89,2.2L379,61.91,376.49,60Zm-.94,44-.63-.31.31-1.26.63.31-.31.63Zm-5.34-82.65V19.8l-.94-1.89v-2.2l1.89-1.26.94.94.31,3.14-.63,1.26,3.14.31v.94l-.94.63-2.2-.94-.63.31Zm1.57,32.68,1.26-.94,1.57,1.89-.94.94-1.26-.31-.31-.94Zm-.31,13.2,1.57.63-1.57,1.26-.31-1.26Zm.63,6.29h-.63l.31-1.26.63.63Zm-3.14-25.77,2.2,1.26-1.57.94-.63-1.57Zm1.89-24.83h-.94l.63-.31Zm-2.2,36.77.31-1.26.94-.63.63.94-.31,1.26h-1.26ZM368,27l-3.14-1.26-1.57,1.89-3.14,1.89-.63,2.51-.94.63-4.71-2.51L351,28l1.89-3.14L352,24.2l-1.26.31-1.57-1.26-.31-1.57-1.26-.31-2.2,2.51L335.95,22l-7.23-1.26.63,2.2,2.83,1.57.94,1.89.31,2.83-1.89.94-1.26-.31L328.41,27h-5.34l-.63-1.26,3.14-1.89L326.84,22l-.31-.63.94-.94-.31-.63.63-.63,2.51-.31,2.51-2.2V15.4l-1.57-2.2L329,14.46l-.63,1.26-2.2-4.09-1.57-1.26-2.51.63-1.57-1.57.31-2.83,1.57-1.89,9.43-1.89,4.4-.94.94.94V5.34l-2.2.94-.31,1.26,2.2.63,2.51-.94,1.26.31,1.89,1.89L341,11v1.57L345.69,11l2.83-2.51,1.26-.31,4.71,4.71-.63.94-9.43.63-.94,1.26.63.63,1.89.31.94,1.89,3.77,1.26.31,1.89,1.89,1.57v.94l2.2,1.26V27l.94.94.94-.31,1.57-1.89L355.75,22l-2.2-.63-1.26-2.83L357,15.71l1.26.31.63,1.57,5,5,.63-.63.63-2.83.63-.63.94.94.63,2.51.94,1.26.94-.63.31,1.89-.63.31-.31,1.89Zm1.57-4.4h0Zm-5.66-11,.31-1.26L368,8.17l1.26,2.51L368,12.57h-3.77v-.63ZM363,104.34l-.31-.63,1.26-2.83,2.2-1.26.31,1.26L364.55,104l-.94.63Zm2.2,27.34-1.26-.31-.31-.94h1.26l.63.63ZM363,113.13h1.57v2.2H363l-.31-1.57ZM363,5l.63-.94.94.31v.94h-.94Zm-1.89,105.28,2.2-.94.31,1.26-1.26,1.57-1.89-.31.31-1.26Zm.31-94.59.94-1.26.94.63L363,17l-1.26-.31L361.4,16Zm-3.46,46.83,1.89-.31v.63l-1.89.31ZM357,9.11V7.54l1.89-2.2.94,1.26-1.26,2.83h-1.26ZM358.89,61l-3.14-2.51L357,56.88l2.2,1.57.31.94-.63.94Zm-.31,45.25-1.26-.63V104h1.57v1.89Zm-2.83-59.4,2.2-.63.63-1.57h-3.14l-1.57,1.57v.63l1.26.31Zm-1.57,66.31-.94.63-.94-.63-.63-3.14,1.89-.63.94,3.14ZM345.38,6.29l-.94-.94.31-2.2L346,1.57l5,1.57.31.94L350.4,5,346,6.29Zm4.71,128.85h-.94l.94-.63Zm-.31-18.54-2.2-.94-.94-1.89.63-.94,1.57-.31,1.26,2.2-.31,1.26Zm-3.46-58.45,1.26-2.2,1.26-.31,1.26,1.26-.63,1.57-1.57.63-1.26-.31Zm-2.51,56.57-1.26-1.26-.31-1.26h-3.46l-1.57-1.26,1.57-2.2,3.14-1.26,4.4,1.89.94,2.2-2.83,3.14Zm-.31-59.08.63-2.2.94-.63.94,1.26-1.26,1.89h-.63Zm-4.71-27,.31-1.57,1.26.31.31,1.26-1.26.31Zm-2.83,77.31L334.38,104l-1.26-.63-.63-1.89,1.26-.31,4.4,2.51.31,1.57-1.57.63Zm-3.77-63.17.31-1.57,1.89.63-1.57.63Zm-4.71,98.36v-.94l1.89-2.2v-1.57l1.26-1.26,2.51,1.89-.94,2.2-2.51,2.51h-1.89Zm.94-38.65h1.89l1.26,1.57.63,3.14-.63.63-1.26-.31-1.89-1.89-.31-2.83Zm-.63,27h-1.26l-.31-2.2-1.57-3.14.94-.94,1.26.31.94,5.34ZM318.35,24.2l-.63-.94L318,22l-1.26-3.77,2.2-.94,2.51.94,2.2-.94h1.89l.63-.94.63.31-.31.63.94.94h-1.26l-1.89,1.57h-1.26L319,24.2Zm2.2,92.71.63-1.26,1.26.63-.63.94h-.63Zm1.26-5.66-2.2.31L318.35,110l1.57-1.26,1.26.63.63,1.26Zm-3.46-4.4-1.26-3.14.63-2.2,1.89-.63,2.2.31-.31,4.71L319,107.16ZM318,28.6v-.94L319,27l1.89.31-1.26,1.89-1.26-.31Zm-4.71,4.09.63-.31.63-1.89,3.14-1.57v1.57l.94,1.57.31,2.2-2.2.31-2.2-.63Zm5,111.25-.94-.31,1.26-.63v.63Zm0-63.8.31-2.2-.94-.94-1.89-.31v1.57l1.26,1.89Zm-1.89-67.25,1.26-1.26.63.63-1.26.94ZM317.09,99h-1.26l-.31-.94.63-.63.94.31Zm-5.66-22.63h4.71l-.31-3.46L314,71.34,312.69,71l-.94.63v2.2l-2.2.94-1.26,1.26.31.63Zm-6.6-43.68v-.94l2.51-3.46.31-3.46,1.26-.63.94-2.83-.63-.31-.94.63-2.2-.94-.31-1.26,1.89-1.57,2.51.31,1.57-.94,1.89,1.26.63,3.77,1.89,2.2-.63,1.26-3.77,3.46-6.29,3.46ZM312.38,8.8l-1.26-.63V5.66l3.14-2.2.94.94L313,8.8Zm.94,4.71h-1.57l.63-2.2,1.26-.31-.31,1.89Zm-7.86,81.71.94-4.71.63-.94,4.4.63v3.46l-2.51,2.51-2.51.31-.63-.94Zm-1.26,7.23-.63-2.51,3.77-.63.31-.63,1.89-.31,1.57.94-.94,1.57-.63-.63-3.14,1.89-1.57.31Zm6.29,30.8-1.26-1.57,1.57-.31v1.57ZM300.44,28l-1.26-3.46,2.51-.63L300.75,22l1.57-1.26,2.2.94.31,1.26-1.26,2.83L301.06,28Zm2.51-16,.31-1.89h1.26l.31,1.26-.94.63Zm-2.2,84.85.63-.31,2.2,1.89L303,99.62l-2.2-1.57ZM302,15.71,303.26,17l-1.57,1.26-.63-.94h-.63l.94-1.26Zm-3.77-6.29.94-1.89.94.63-.31,1.89-.94-.31Zm.63,79.51-.94.94L296,88.31l1.26-2.2h.94l.94,2.2ZM295.72,110l.31-1.26,1.26-.63,1.57.94-.94,1.57-.94.31-.94-.63ZM296,95.85l2.2,1.26.63,2.2-.94,1.57-1.57-1.26-1.26-2.2.63-1.26ZM282.52,10.37l-3.14,1.89v-2.2L281,8.17l2.83,1.26L285,8.8h2.51L291,7.23l1.89.94.31,1.26,5,5L296,16l-1.26-.31L290.38,11l-1.26.31v2.2l1.57,2.2-.94,1.57h-.63l-3.46-3.46-.31-.94h-.63v-.94l-1.57-1.26Zm15.08,124.76-.63-.31.31-1.89h.63v1.89Zm-7.23-17.91.31-1.26,2.83-2.2,1.26.31.31,2.51-1.26,1.57h-2.51Zm-2.83-10.37.31-2.2-.94-3.14h1.26l1.26.94h3.14l.94,1.89-3.77,2.2-.63.94-1.26-.31Zm0-17.91.63-.94,1.26-.31.94.63-.31,1.26-1.26.31-.94-.63Zm-8.49,11.94-.31-2.51-2.51-.31.63-2.2.94-.31,4.4,1.26,2.2,1.57v1.26l-2.51,2.2-2.2-.63Zm-3.14-28.28-1.89.94-2.2-.94L269,74.48l-2.83-.94v-2.2l1.89-1.57.31-1.57-1.57-1.89v-2.2l1.26-.31.94.63h1.57l2.51-.94.94.63,2.51,8.48H280l2.2.94v.63l-1.26.31-1.57,2.2-1.57.31-.94-.63-.63-3.14Zm-4.71,18.86.31-1.26.94-.63,2.83,1.57.94-.94V88.94l-.94-.63-.63-2.2-.63-.31,1.26-.63V81.39l1.26-.31,1.57,1.57L279.7,88l-1.26,4.4L273.72,94l-.31-.94-1.89-.94Zm6.29,45.25h-.94l.31-1.57.63.94Zm-7.86-34.26.94-2.2L271.84,99l1.26.63,1.89,2.2v1.89l-4.71-.31-.31-.63Zm0-22.94L272.78,77l2.2-.31-.31,1.57-1.57,1.26-.63,1.57-1.57-.31Zm-8.49,33v-1.26l3.46-.94-1.26-3.14-1.26-.31-1.89.94-1.57,2.2-2.2.31-.31-.63,2.2-4.71,7.86-1.26,1.26,3.77,2.2,1.57,2.2.63,2.51,1.57-.94.94-7.23-1.26-2.51,1.89Zm11-25.46-.31-.63.94-.94.63,1.26h-.63Zm-.31,9.11.63-.94h.63l-.63.94Zm.94-50.6-1.26-2.2-.94-.63-6.6.94-1.57,3.77L263.67,50l4.08.94,2.2-3.14,1.57-.31,1.26-1.26Zm-6.91,37.71,3.77-.63.94,1.26-3.14,1.89-5,5.34-1.26-1.57.94-2.51,1.26-.31,1.89-2.83ZM267.75,116l.31-1.26,1.26-.31.31.63-1.26,1.26Zm-3.14-40.23,2.2.31,2.51,2.51-.31.63h-.94l-3.46-2.51Zm-4.71,3.46,1.26-1.57.94.31,1.26,1.57-.94,1.89-1.26-.31-.94-1.26Zm-3.46-13.51-1.57-1.57-1.26-.31-.63-.94.63-2.2-.31-1.57,1.89-3.14,1.26-.31,6.28,4.09L263,61l-1.57,1.89.63,2.51-.94,1.57H259.9l-2.83,2.83-1.26-.31-.31-1.26.63-2.2ZM262.1,127l-1.26-.31V126l1.26.31ZM259,143l.63-1.57.94.63-.31.94ZM257.7,99.62V98.05H259l.31,1.26-.94.31ZM254.24,2.83h1.57L257.7,4.4l-.31.63h-1.57l-1.57-1.57ZM253,48.4l.31-2.51.63-.94,1.26-.31.94.94-.63,2.51-.94,1.26-.94-.63Zm-1.26,23.88.94.63.31,2.51-.94,2.2h-.94l-.63-.94.94-4.09Zm.31,43.37-1.26-.31-.63-1.57.63-.31,1.26.63.31,1.26Zm.31-18.86h-.94l.94-.31Zm-6.6-51.54,2.83-.31,3.46-2.2-.31,2.2-2.2.94-3.14-.63Zm1.57,47.14.63-2.2,2.51.63.31.63-.63.94-2.2.31Zm-3.14-41.8-2.51.94-.94.94-1.26-.63-3.14,1.26-1.89-2.83V49l.94-1.26,1.26.31.63.94,1.26-.31.94-2.2,2.2-.94h3.46l3.77,6.29v.94l-1.26.31-2.83-2.2Zm.94,48.71V98.05l1.89-2.2h1.26v2.51l-.94.94-1.57.31Zm0-26.08-1.26-1.89L242,72l-3.46-4.4.63-.94,2.2-.31,6.28,3.46.63,1.57-1.89,1.89Zm-.63,32.37.31-2.2,1.57-.94,1.26.63v1.57l-.94.94-1.57.31Zm2.51-66-.31,1.26-1.89,1.26-3.14.94-1.26-2.51L243.56,39l2.83.31Zm-4.71,55V93h2.2l-1.57,1.89Zm1.89,7.86-1.57-.31.31-.63,1.26.31Zm-1.57-18.54-.31-1.26,1.26-.31.31.94-.63.63Zm-1.26-58.45,1.26.31v-.63l-1.26-.31Zm.31,37.4-2.2-.63.63-.94,1.57.94Zm-9.11-52.17V8.48l-2.2-2.83-.94-3.77.31-1.26.94-.63,8.17,3.77.31.94-3.77,2.83-.31,2.51-.63.94h-1.26ZM236.64,44,236,45.57l-2.2-1.26,1.26-1.57,1.26.63ZM233.5,60.65l.63-.63L236,61.6l-.94.94h-.94l-.63-1.26Zm-.31,9.43.63-.94h.94l.31,1.57H233.5Zm.94,10.69-1.26,2.51L234.44,88l-.94.94-1.89-.63-.94-1.57L230,82.65l.63-1.26,2.83-.94ZM230.67,16V15.4l-2.2-.94-.31-.63.63-1.26,1.89-1.26h1.57l.31,1.26L231.3,15.4l1.57,1.89-.63,3.14-2.83-.63.94-3.14Zm-2.83,81.39.31-1.26,1.57-.94.31.63-.63,1.26-.94.31ZM225,87.68l2.2-2.83,1.26-.31.63,1.26-.31,1.26-2.2,1.89-.94-.63Zm2.83-64.42-2.2-.63.31-1.57,1.26.31.63.94Zm-5.66-17-2.83,1.89L216.53,6l.63-.94,9.74-.94.94,1.26-1.26,2.2-1.26.31ZM225,80.45V78.88H226l.63,1.57ZM226.58,28h-1.26l.31-1.26.94.63ZM225,72.59l.94-.31.31.63-1.26.31Zm-2.83-4.71.94.31,2.2-.63.63.31-.31,1.26-1.89,1.26-1.26-.31-.31-1.57Zm3.14-20.74-1.89-.63V44.94l.94-.31,1.57.63-.31,1.57ZM222.81,105l.94-.63,1.26.31.31,1.26-.94.63-1.57-.94Zm-1.26-66.62,1.57-.63,1.26,1.89-.63,1.26-1.26-.31L221.87,39ZM215,60.65l.94-.63,4.71-.94.31,1.26L219,64.42l-1.57,1.89-1.89-1.57-.94-3.46ZM219,127l-.94-.63.31-.63.94.94Zm-2.51-34.57v-.63l1.57-.94,1.26.31L219,92.71h-2.2ZM215.9,77l1.57.63.31.94-1.26,1.26-1.26-.63V77.31ZM214,31.43V29.85l2.83.31-.31,1.26-1.89.31ZM209,5.34l.63-.94,1.57.63,2.51-.63,1.26.94L213.07,8.8l-1.89-.31L209.3,6Zm2.51,51.22,1.26-1.89.94.31.31,1.26-.63,1.26h-.94l-.31-.63ZM206.16,39l1.57-1.89,1.89.63,1.26,2.2-.94.31-3.14-.94Zm4.4-15.71h-.94l-3.77-3.77,1.89-1.57,2.2.63.94,4.09Zm-5.66,37.4,1.26-4.71.94-.31,3.14,5,.31,1.89-.94.31-4.4-1.57ZM208,14.46l1.26-.31.94.63v.63l-1.89.63-.31-.94Zm-5.66,15.4L208,28.6l.63,3.14.94,1.57-1.26.94L207.1,33l-3.77-1.26-.94-.94Zm5,44.94-1.26-2.2,1.26-2.2h1.26l.63.94-.31,2.2-.94.94Zm-1.89,2.83.63-2.83,2.51,2.51-.94,1.57-1.89-.63Zm-2.2-66.31L204,8.17l1.26-1.57,1.26.31.94,1.57-2.51,4.09-1.26-.63Zm1.26,112.51.94.31-.31,1.26-1.26.31v-1.57Zm-.31-78.25L202.7,44l-.31-1.26,1.89-1.57.94.63.31,2.2-.63.94Zm-.63-21.37,1.89.94-.31,1.57-.94.31-.94-.63L203,24.83Zm-1.26,41.17,1.26-.63,1.57.63-.63,1.26-.94.31L202.7,66Zm-5,26.71-1.26-.63-1.57-1.89h-1.26L192,88.31l.63-1.26,4.09,1.89,2.83-1.89,1.26.31,1.57,1.89,2.2,1.26v.94l-.94.94h-1.26l-2.2-1.26-2.2.94ZM199.56,33l1.26-.63.94.31,2.2,3.46-1.89,1.26-1.26-.63-1.26-3.46ZM193.9,8.48l.94-.63L194.22,6l.63-.94,5.34-.31,1.57.94-.31,1.26L199.87,8.8l-2.51,6.91-2.2-1.26.63-1.26-.31-2.51-.94-1.89Zm3.77,50.91h3.46l.31.94-1.57,2.2-2.51-.31-.94-.94V60Zm-.31-34.88,1.26.31,1.26,1.26-.31,1.26-2.2-.94L197,25.14Zm-.63,50.28-.31-1.57.94-.94,1.57,1.26-2.2,1.89v2.51l-1.26.63-1.57-1.89,1.89-1.89Zm-5.66-37.08.63-1.26H193l.63.63h1.26l1.26,1.26-.63.94-2.83.31-1.26-1.26Zm1.26-6.29.31-1.89.94-1.26h1.89l.31.63-1.26,2.2-1.57.63Zm1.26,49.34.94.63-.94,2.51L191.7,83V82l.94-.94Zm-.94-9.43h-1.26l-.94-1.89-.94-.63L186.67,71l-.94-1.89.94-1.89L186,64.74l-2.2-.94-1.57-2.2.63-.94,2.2-.31,1.57-2.2,2.83-1.57.63-2.51.94-.63,1.26.63-1.26,4.71V61l-2.2.31V63.8L191.7,66,193,70.71ZM181.64,22l1.89-3.14-.94-2.51.63-1.57-1.89-1.57L181,11.31l1.57-.31.31-.94L181,8.8l-2.51.63V8.8l2.2-1.26,3.14-.63V4.4h6l-.31,1.26L187,6.29l-.63.94.31,6.29,1.89.94.31,1.26-4.4,2.83,2.83,1.57,2.51-.94,1.89.63.31-.31.94.63v1.26l-1.57,1.89-6.6,1.57L182,22.31Zm11,27.65-.31-.63h.31Zm-1.89,46.83-2.51-.94-1.57-1.26L186,92.71l.63-2.83.94-.31.94.63.63,2.2L192,94.91l-.94.94Zm.94,6h-.63v-1.26h.63Zm-3.46-73.22L187,28.91l1.26-.63Zm-8.17.94.94-.63,4.71,1.89,1.57,1.89v.94h-4.4l-2.83-3.46Zm4.09,72.28,1.26-.94.94.63-.63,1.57-1.26-.94Zm-7.23-22.31.31-3.77,1.26.31,1.57,1.57,2.51-.63,2.2.94-.31.63L186,80.45l-1.57.94.94.94-.63.94.31,1.26-.94.63-4.4-1.89-1.26.63-.31,2.83-1.57.94L175,86.11l-.31-1.57,1.57-3.46v-.63Zm5-27,.63-.94,1.57.63-.63,1.26h-.94l-.31-.63Zm.63,44.94V96.79h1.26v.94l-.63.31Zm-7.23-57.51.94-.63,2.2.94,4.09-3.46.94.94L181,41.17l-1.89-.31-.94.94h-1.26l-.31.63-1.26-1.26Zm2.83,68.19-1.57-.63,1.26-4.09h2.51v1.26l-1.89,1.26-.31,1.57Zm1.57-80.45L178.5,28l.31-1.26h.94l.31.94Zm-4.4,3.77.94-2.51h1.26l1.26,1.89-2.2,1.26Zm3.46-26.4h-1.89V4.4h1.89Zm-3.14,42.43.31-1.26h1.57v1.26l-1.26.31ZM165,81.39l-3.14,1.26-1.57-2.83,1.89-.94L164,80.14l2.83-2.83.31-1.26L164,72.59l-1.57-1.26-1.26-3.46,1.57-2.2,4.4.31,3.14,1.89,2.83-2.2,1.89.94L176.3,71l-.94.63v.63l-2.51.31L171,75.42l-2.51,2.2.63,1.26L171,80.45v3.14l-1.26,1.89-2.51-.94-1.89-2.83Zm8.8,19.48-1.26-.31v-.63l1.26.31ZM170,114.08l1.89-1.89,1.57,1.57L172.22,115l-1.89-.31ZM171,55V52.8l.63-.31,1.26,1.26L171.9,55Zm.31-12.26.94.94-2.51,4.09h-.63l.94-4.09ZM169.7,27l.94-.94,1.26.31L171.59,28l-.94.31-.63-.63Zm-.94,8.8.94-.94,1.57,1.26-.94,1.57-1.57-1.26ZM167.5,115h2.2l-.63,3.77-.94.63-.94-.63v-3.14Zm1.57-67.25-.31.63-.31-.94Zm-2.83,52.8,1.57-.31-.94.63.94,3.14-.63,1.26H165.3l.31-2.83.94-1.26Zm-13.51-2.51.63-2.51,1.89-1.26,1.89-7.86.94-.94,1.89.63,2.51-1.26.63.94-.31,1.26-3.14,1.89L159,91.45,160.27,94l-.31.94-4.09.31L154,98.05Zm7.54-93.34.31-1.26,1.89-.63V4.4l-1.26.94L160.59,5ZM159,60.65l-.63-.94.94-2.51V55.62l.94-1.57,1.57.94-1.26,3.46.31.63-.63,1.57Zm-2.2-29.54.31-1.26,1.57-1.57h1.57l.63.63v1.26l-1.26,2.2h-1.26l-1.26-.94ZM154,15.71h1.89l-.31.94-1.26-.31Zm-.63,71.34.63-.31.31.94Zm-2.51-63.17h-1.26l-.94-2.83,1.26-1.26,2.2-.31.63.63-1.89,3.14ZM149,44H147.7v-.94l-1.57-1.26V39.6l.63-1.26,1.89-.63,1.89.94,1.89,2.2-.31.94Zm-.31-41.17h1.26l1.89,1.57.63,1.26-.31,1.26h-1.89l-1.57-1.57-.31-1.89ZM145.5,63.17,148,60.34l.94.94.31,2.2-.63.94-1.26.31-1.57-.94ZM135.45,13.51l.63-1.89,1.57.31,1.89,1.57.63,2.51h1.26L143,14.14l1.89.63.63.94,2.2.94v1.26l-2.83,3.14h-4.09l-6.6-1.57-1.26-1.57.31-2.2,1.57-1.89Zm8.49,20.74.31-1.26,1.57-1.26,1.26.94L145.5,35.2l-1.26-.63Zm.31,54.37-.63-.31.31-.94.63.31-.31.63ZM143,13.51l-1.57-1.89.94-.94,1.57.63L143,12.88ZM137.33,93l1.26-2.51,1.57.94L138.91,94l-.94-.63Zm-5-15.08.31-1.26,2.51-2.2,1.26.94.31.94-1.89,1.57Zm3.14,33.63h-.63l.31-1.26h.63l-.31.63ZM131.36,11.31l-.31.31.31-.94Zm-4.09,0,.63-1.26,2.83.63v.63l-.94.63-1.89-.31Zm-1.57,74.17.31-2.2,1.26-1.89,1.89-.31.94,2.51-.31.94-1.89,1.57-1.57-.31Zm4.09-25.77h-.63l-.31-1.26h.94ZM122.88,19.8l1.57,2.2.94.31.94-.63,1.26-2.51.94.63.63,3.77-.94.94h-4.71l-2.2-.63v-.63l-.63-.31.94-2.83Zm0,72.28.31-.63,1.57.31.63.94L124.76,94h-1.26l-.63-1.26Zm1.89-55.94-.94-.31V34.25l1.26.31v1.26Zm-6.29-2.2.94-3.46L118.79,28l-1.26-1.57.31-.63,4.08.63,2.2,2.2-.31.94-2.2.31-.94,1.57.63,2.51-.94.63-1.26-.31Zm2.83-19.8.31-1.26.94-.63,1.26.94-.63.94-1.26.31Zm-.63,90.19v-2.51l1.57-.94.31,1.26-.63,2.2Zm-.31-80.14L120,22.63v.31h.63Zm-.94-2.83.63,1.26-.63-.63ZM116,10.69l2.2-.63,1.26,1.26-.94,1.57-2.2-1.57Zm1.26,3.77-.31.94-2.51,1.89-1.26-.63v-2.2l3.77-.31Zm-3.14,7.86-.63.31-1.26-1.57.31-1.26,1.57-.63.63.94L114.39,22Zm-1.57,31.11.63-.63,1.26.63-.63,1.26-1.26-.31Zm-3.77-8.8.31-1.26,4.71-2.2v.94l-2.51,3.14h-1.89Zm1.89,31.74.94.31.31,1.57h-1.26l-.31-1.57Zm0-4.09-.94-4.09,2.2,1.26v2.83ZM108.42,6V4.71l1.26-1.89,1.26-.63.94.94-.94,2.51L110,6.6l-1.26-.31Zm2.2,9.11-.94-.63.31-1.57,1.57.63-.63.94Zm-3.46,122.25,2.51-.31.94.63v1.26l-1.26.31-2.2-.63ZM109,23.57l-.63-.63V21.68l1.26-.31L110,22l-.63.94Zm-2.83,58.14-.31-.31,1.57-2.2,1.26.31-.31,1.26-1.89.31Zm1.89-33.31-.31,1.26-2.2.63-1.89-.63-.94-1.26.31-.94,2.2-.94,2.51,1.26Zm-.63-23.57-.63-.31.63-1.57.63.94-.31.63Zm-3.77,76.37V99.62h2.51l.31,1.26-2.2.31Zm-1.89-28.6.31-1.57,2.2-2.83H105l.94,1.57L105.59,71l-2.83,1.89-.31-.31Zm0-46.51.31-1.26.94-.63,2.51-.31.31.94-.63.94-2.83.63Zm3.77,59.4L104,85.17v-.63l-4.08-1.89L98.36,83,96.16,82l-.63-.94.94-1.89L99,78.25l.94-1.89h1.26l1.57,1.57-1.26,1.89v1.26l3.14.31.94,3.46ZM95.85,69.14l.94-1.26.63.31L99,66.62l.31-1.26,1.26-.94h1.57l.94-1.57.63.94-1.57,1.57-1.26,2.51-2.2.63-.94,1.26H96.48Zm5,20.43V88.31l1.26.31.63.94Zm-2.2-33.94-.94-4.4,1.89-1.57,1.26.31.63,1.26v2.51l-1.89,1.89Zm0-10.69-.94-5,.94-.94h1.26l.94.94.31,2.51-.94,2.2-.94.31Zm-4.4,18.23.94-.63-.63-2.83,5.34-2.2.94.94-1.26,1.89-4.71,3.14Zm5.34-49.65-1.57-1.26L98.68,11l-.94-1.57-3.14,1.89L93,10.06l.31-2.51L94,6.6h1.89l2.83-1.89L99,7.23l1.26,1.89-.63,1.57.63,1.26-.31.94Zm0,62.22-1.26-.31-.31-1.26h1.89l-.31.94Zm-2.2,17.6.94.63.94,5-2.2,1.26-1.89-1.57V95.22l1.89-1.89ZM99,105.59H97.74l-.31-.94-2.2.63-.94-1.89,1.26-.63,1.57,1.57H99ZM93.34,20.11l1.57-2.51L96.79,17l1.89.31v.63l-3.77,2.83H93.65ZM94.59.63h1.26V1.89L92.39,5.66l-3.14-.94.63-2.2Zm-5,31.43,4.71,1.89.94,1.57-1.57,1.57-3.46-1.26L88,33.94l1.26-1.57Zm.94-7.86.63-.94L93,22.63l1.26.31L93,25.14l-1.26.31-.94-.63Zm-.63,61.91.31-1.89,1.26-.31.63.63-.63,2.2-1.26-.31Zm0,17.28-.94-2.51,1.89-.94.63.94-.94,2.51Zm1.26-88.31-.94-2.51h.31l.94.63v1.26Zm-2.83,93-.94-2.2.63-1.26,1.57-.94,1.57,2.2-.94,1.89-1.26.31Zm1.89-95.54-.63.63.31-1.26ZM87.68,118.48l-.63-.94.31-1.26L88,116l1.57,1.89-.94.63ZM88.31,4.71h.94l-.63,1.57L88,4.4Zm-2.83,13.2.31-5,1.26,3.77.94.63-.31.94H85.79Zm.94,44.94,1.26.31v.94l-1.26-.63ZM80.14,8.17,81.08,6l2.2-2.51V0l1.26.31,1.89,3.14V4.71l-2.83,2.2L83,8.8l-1.57.63ZM62.54,38.34,58.77,39l-.94-.63.94-4.4L57.2,32.37H55.63l-4.09-2.51-1.26,1.57,2.51,3.14-.94.94-3.14-2.2-1.89.31-.94-.94-.63-2.51L43.68,28l1.26-2.2.94-.31.63-2.51-1.89-3.77,1.26-1.89,4.4-2.2,2.51,2.2.94-1.89-1.89-2.51-.94-2.51-2.83,1.57-1.57,2.2H45.25L43.05,11l-2.2-.31L37.71,6.91V2.83L39.6,2.2l9.74.63,10.06.94h1.89L63.17,5,61,9.11l5.34,3.77,4.09,2.83V17l3.46,1.26L77,20.43l.94-.31.94-2.2V16.34l2.51-1.26,2.51,3.14L83,20.74l2.51,2.2-.31,1.26.63,2.51-1.89,1.57-4.08,1.57-.63-.31V28.6l2.2-4.09-1.89-1.57-1.26-.31L75.11,24.2l-1.26-1.26-.31-1.57-.94-.94-2.51.94-1.26,2.2,1.26,2.83-.31,1.26-.94.63L67.57,28l-3.46-2.51-.94.94v2.2l-1.89.63-1.57,2.2,2.2,1.26,3.77-1.26,2.2,1.26,2.51-.94L73.85,33l.63.94-.31,1.26h-4.4l-1.89-.63-2.83.31-.31,1.26H66l1.57,1.26,1.26,2.51-.94,1.26-2.51.31-2.51-2.83Zm21.06,84.54-.94-1.57,1.57-.31-.31,1.57Zm-4.4-82.65,1.26-.94,2.51.94.94.94-.63,2.51L82,44.63l-1.57-1.26-1.26-2.51Zm.31,6.6,1.26-.31,1.89.63.31.94L82.34,50l-2.83-1.89Zm-4.4,38.34,2.2-2.2,2.51.31-2.51,2.2H75.74ZM72,55l.63-1.26,3.46-2.83h1.26l1.26,4.4-1.26.63-4.71-.31Zm.94,7.23.94-.94,1.26.31,1.89,6-.63,4.09.94,2.51-.31.94H74.48l-.63-.94.31-2.51-1.26-4.4L73.54,66l-.63-3.14ZM64.42,5V3.77l8.48-.63h2.51L77,4.71l-.31,2.51-1.26,2.2-2.51.63-1.57,2.2-1.89-.63L66.94,6.91Zm9.74,34.25.94.63L76.05,44l-.31.94-1.89.94-1.57-2.51,1.57-3.77Zm-5.34,8.49,1.89-1.26,2.2.63V49l-1.26.63-1.57-.31v-.63l-.94-.31ZM66.62,82l2.2-1.26.63-.94,1.26-.31.63.94L71,83l-1.57,1.26-2.51-.94-.31-.63Zm-4.4-25.77,2.2-5,4.71-.31.94.63-1.57,5H62.85Zm.94,17,.63-.63,2.83-.31.63,1.57-2.2.94-1.57-.94Zm-3.46,70.4.94-2.51.94-.31,4.09,1.57.63.94-.63.94-5,.31-.31-.63ZM61,43.37l.31-.63h1.26L64.11,44l-.63,1.26-.94.31L61,44ZM53.74,62.85l-.63-1.57L54.05,60l3.77.94.63-.31.63.63-.31,4.09L60,65.05l1.26-2.51h1.26l.94,1.89-.31,2.51-2.51,2.83-2.2-.31-4.09-2.51-1.89-1.89.63-1.89Zm2.2,22.31,1.26,2.2-1.26,2.2-.31,2.2-1.57,1.57h-.94l-.31-.94,1.89-6.91.63-.31Zm.31-28.28h-.63l.31-1.26.31.63Zm-4.09,62.54L51.85,116l1.26-1.57,1.26.63.31,2.2-.94,2.2ZM49,100.56l1.26-.31,1.26.63-.31,1.26-1.26.31-.94-.63ZM49,82V80.45l-1.26-1.57V77.31l.63-.63,2.2.94-.31,5Zm-5.66-7.23.31-2.51,2.51-3.77H49L50,69.77l-1.26,1.89-4.09,3.77Zm6-67.57L49,7.86,50,8.8V7.54ZM43.05,93.65l.31-.94,1.26-.31v1.89L43.37,94Zm-23.88-17,.94-1.26,1.26.31,1.57-1.89.31-1.26L22,68.19l-.94-.94L17.91,66l-.31-1.26,2.51-1.26-.63-7.86,2.2-1.89h2.2l4.71-2.2,5.34-.31,1.57-3.14H38L39.6,50l-.31.94-3.14.31v1.26l.94,1.57-1.26,1.89-2.51-.31L31.74,57.2v3.14l-1.89.94-.63.94.63,1.26,2.51.94,1.57,1.89h2.51l2.2-1.57L39,63.48,38.34,61l.94-.94,2.2,1.26,1.89,4.09-1.89,3.14H36.77l-3.46,1.26-.63.94-3.77,2.2v.94l-1.26,1.57.94,2.83-2.51,2.51-4.4-1.57-2.51-1.89ZM39,28.6h-.63V27.34H39Zm-9.11,8.49-1.57-1.26L26.4,37.08l-.94,3.14-1.26.31-1.89-.94-1.57-1.89.94-.94,3.14-1.26.31-1.26,1.57-1.57h4.4l2.2,1.26,1.26,2.2,1.57,1.26-.63,1.89-2.2.63v3.46l-1.57,1.57-2.51-.63-.94-2.2,1.57-4.4Zm5.66,68.19-.63,1.26-2.51.31-1.57-1.57.31-1.26.94-.63,3.14,1.26ZM24.83,17.91l.31-1.26,2.51-2.51,2.51-.63,4.4,2.2L34.88,17l-.94.94-2.83-1.57-2.2,3.14-2.83-.31-.94-.63ZM33.63,22l.94,1.57v2.2l-1.26.94-1.57-1.57.31-2.2.94-.63ZM29.85,89.88l.94-2.2-.94-3.14,2.2-.94,1.26.63L34.26,88l-2.51,2.83Zm.63,34.25H28.91v-.63l1.57.31Zm-2.83-23.26.63-.94,1.57-.31-.94,1.89Zm-1.57-9.74,1.57-2.2,1.57,1.26-1.57,1.89-.94-.63ZM22.94,23.88l.63-.94,2.2.31.94.94-.31,1.26-1.89.63-1.57-1.57ZM23.26,94l1.26-.31,1.26,1.26-1.26,1.26-1.26-1.26ZM20.11,44h-.63v-.94l.63.31ZM14.77,24.2l-.31-.63,2.2-2.2,2.83,3.14v1.26l-4.4-1.26Zm1.89,18.23-.94-.63-.31-1.26,1.26-.63.63,1.26ZM17,5.34l-1.26-.63.63-1.26.94.63v.63ZM15.4,48.71,17,50.6l-.63,1.89h-2.2V50Zm-3.14,52.17,1.26-.31,2.2,1.57.63,1.57-1.26.31-1.26-.63-1.57-1.89Zm0-80.77-.63-2.2L13.51,16l1.26-.31L15.71,17l-.94,1.89L13.2,20.11Zm-.63,3.46-.94-1.26-.94,2.83L6.6,27.34v2.2l3.14,3.77,1.57.31,2.2-1.57,1.57,1.26.31,2.51-.63,2.51-5,3.14-.94-.94.63-2.2L7.86,35.2l-1.57-.63L4.71,32.68V31.43L3.46,28.91,3.77,28l1.57-1.26V25.14l1.89-2.83L3.77,17.6l-.31-1.26L2.51,16l-.63-1.57,1.26.31L3.46,16l2.2.63,5.66,6ZM13.83,71l-.31,1.26-2.2,1.57-1.57-.63V72l2.2-1.57,1.26.31Zm-3.14,45.57,1.26-1.89,1.57-.31v2.2l-.94.94L11,117.22Zm2.83-35.51-1.26-.63.94-.63.31.31ZM5,58.77l-1.26.31L1.89,60.65l-2.83-5v-.94L0,53.74l3.46.31,2.2-1.26h2.2l.94-1.89V48.4l1.89-1.57.94.63.31,1.26-.63,2.2.31,2.51,1.57,2.2-1.26,2.51L11.63,61l-1.89.94H8.49L6.6,61,5.66,59.4ZM11.63,11l.63.63L11,15.71H9.11L8.8,14.46l.63-2.2L11,11ZM9.43,28.6l.94-.31.63.94-.31.94-1.26-.63ZM2.2,7.54l.94-.31.31-1.57.94-.31.31-.94L8.8,3.46l1.89.31L6.29,7.86,5,7.54l-.94.63L2.83,7.86ZM6,57.51l.94.63,1.89-.31-.94-1.89V54.37H7.23L5.34,56.88v.94ZM.63,43.05l.63-3.77,1.26,2.2,2.2-.31v1.57l-2.2,1.57L1.26,44l-.31-.63Z"/></svg>