<svg id="Layer_1" data-name="Layer 1" xmlns="http://www.w3.org/2000/svg" viewBox="0 0 788.67 154.33"><defs><style>.cls-1{fill:#382e2b;}</style></defs><title>box-decor-1-1</title><path class="cls-1" d="M590.15,54.5v.79l.32.16.63,1.59.48.32.63-.79.32-1.11.63.32.48,1.43,1.27.16.79-.64.64-1.11.64.32,1.43,3.81.16.48-.48,1.43-.79.79-1.11.48.16,2.54.79.32.63-1.43.79.32.32,1.59-.32,1.27.16,2.22.32.64v1.75l.32.48-.16.64-.64.16-1-.32-.48-.48L595.4,72,594,71.49l-1.43-.16-1-.64v-.48l-1.11-.64h-.64l-1.11.64-1.27-1.75-.16-1.11.32-.64,1.11-.32,1.59.79.32-.32-.16-.64-1.27-1.59.64-1.11,2.86-.48.79-.79-.64-1.11h-1l-1.59-1.59L590,58h-.48V56.72l.64-.79v-.64l-.79-.48.48-.32Zm4.29-26.37-.48,1-2.7,2.7-2.86,1.75-1-.48.16-.79L590,31l.16-.32,1.27-.48.16-.64-.79-.79-.64-.16-.79,1.75-.79-.64.79-1.11-.16-1.27.32-.48.79.16,1,.79,1.27.16,1.27-.32.48.32Zm-5.56,17.63.16.16-.64,1h-.79l.16-1h.79ZM590.79,25l-1.75.48-.32.48-.64.16L587.77,25l1.75-1.27,1.11.48.16.32ZM589.2,16.7l-1.11-.64.32-1.11H589l.32.48v1Zm1.59,3-.48,1.11-.79.64-.64-.64.79-1.11.79-.16Zm-.64,16-.64.16-.64-.32v-1l.64-.16.64,1Zm1.11,4,.32.16L591.43,41l-.79,1-1.11.48-.48-.32-.16-.64,1-.79.64-.16ZM590,17.49l.63.32-.16.48-.64-.16v-.32Zm1.59-6.19v1.11h-.79l-.16-.79.48-.32Zm2.86,13.82-1.27-.32-1.11-1.59.32-.48,2.22.32.48.48-.48,1.27Zm-1.11,17.15-.16.64-.32.16-.32-.48.32-.48.16.16Zm-.79,7.94H593v.64l-.48-.32ZM593.65,35l.32.48-.32.32H593l.32-.64Zm1.43,11.75v1l-.64-.16v-.79ZM610.8,20.83l.79-.48,1.27.48.32,1.11,1,.48,1,1-.16.48-.64.32-2.07.16-.64.48.79,2.22,1.27-.48,1,.64v.64l-.32.32h-.64l-1-.79-.64-.16-.64,1.11L613,30l-.79,1.43.16.79,1.11-.32.32-.48h.32l.32-.48h.48L616,30.2l.64-1,.79-.16,1.11-1L617,27.5l-1.11-2.22.48-1.11.48-.16.64.32.16,1.27.79.79,1.11.16.63.64-.16.48.32.32,1.11-.16,1-1.27V25.27L620.49,25l.16-.79,1.11-1.27,1.11.64-.48,1.27,1.11.32.32.64v2.54l.32.48,1.75.16-.16.64-1.91,1.27,1,1.59.64.16,1.43-1.11V30.36l1.75-.48.32.48.16,1.27.48.32,2.7-.32,1,.48.79,1,.64.16.16-.32-.32-1.11.16-.32h.64l2.22,1.27.16.64-1.43.79.16.64,1.11.79h1.91l.32-1.11-.79-.79v-1l.79-.79v-.64l.79-.48.32.16-.48,1.75,1,1.11h.32l.48.64h1.11l.16-.48-.48-.79.48-.79,1.75-.79.64.16.64.79-1.75,1.91h-1.11l-.32,1.11,1.91,1.75v1.27l1.59,1.27-.16.79-.63.32-.79-.16L644,39.25l-1.59.16-.16-.64-.64-.32-.64.48.79,1,.16,1.27.48.48,1.27.16L645.75,45l-.32.64.32.64.64-.32,1.11-1.43,1-.48.63-1.75,3,1.43v1.11l-.48.48h-1.75l-.48.79.79,1.43,2.22-.64.32-.32H654l.48,1,.64.16,1.11-.32.79,3.18-.48.48-1.27.32-.48.79h-.32l-.16,1,1.59,1.59v1.27l.79,1.11,1.11-.48.64.16.32.48.64.16,1.11-.32,1.91,1.43,4.61-1L668.3,57l.16-.32L667.83,55l.32-.64.64-.16,2.07,1.59,2.54,1,1.27-.32,2.7,1.75.32,1.27.48.48.16,1.43-.79.64-1.11-.32-.64-1-.16-1.27-.48-.79L674,57.83l-2.7-.32-.79.64v1.43l.32.64,1.27.16V61l-.48.32-1.11-1-.64.16v.32l-1.43.64-2.22.48-.16.48.79,1.11.48.16,3-1.91.16.79-1.27,1.27-.16,1.27-.64.79-.64-.16-1-1.11-1-.32-1.59.32,1.59,2.06-.79.48-1.75-1.11-1.11-.16-1.43,1.43-.16,1.27-.64.64-.64-1.11.16-.64-.48-.79L657.66,68l-1.75.16.79,2.06-1.27.64h-.64V69.75L654,69h-.64l-.16.64.32,1.27-.32,1h-.63l-.79-.79.16-1-.32-.64.16-.64.79-.79L650,65.94l-1.75-1.11v-.32l-2.22-1.43-3.34-2.54-1-.48v-.32l-1.75-1-3-2.54-1.91-1L633.68,54l-.79-.16-.48.48-2.7-1.43.16-.48-.79-.79L627.48,51l-.16.32.48.64-.32.64L624,53.86l-.79.64v1l-1.91,1.43-.79.16-1-.64L618,57.2l-.48-.32.32-1.27L618.9,55l.16-1.27.64-.16,1,.32,1-1-.16-.64.32-.64H623l.79.64.32-.16.16-1.75.79-.64-.16-1.43-.79-1.43-1.75-1-1-1-1.11-.48L620,45l.48,1.27,1.27,1-.32.64-1.11-.16-.79.48-.32,1.11-.64.16-1.11-.64-1.27,1,1.11,1.43,1,.32.16.48-1,.79-.16.64.32.48-.16,1.43-1.43.32L614.62,55H614l-1,1.75-2.22-1.11-1.91-1.75L607,53.07l-.48.16-.48-.48.48-1.11-.64-.64-1.75.79-.48-.48v-.64l.79-.64.79.48.16-.64-.32-.48.32-1h1.27l1.43-.79.79.48v.32l1.27.32,1-1,1.11-.48,1.91,1.91h.48l.79-.79V48l1.27-1V45.92l1.59-1.43,1.27-.64-1.75-1.59-1.11.64-.16.79L616,44l-.63-.16-1.59-1.59.32-.48,1.27-.48.16-.64-1.91-1.11-.64-.79h-.32l-.64-.79h-.48l-.79-1-1.27-1-2.22-1.59H607l-.64-.79h-.48l-1.27-1-1.11.32-1.11-.64V31.31l-.32-.64-.48-.16V30.2L600,29.08l-1.59-.79-1.91-1.75h-1.27l-.48-.48v-.64l3,.79.32-.32v-.64l-.64-1.11-.16-1,.48-.64,1.43,1.11,2.7.79.64,1-.16.32-.32-.48-1.27.16-.64.48.48.48h1.43l.48.79,1.75-.64,1.11.32,1.27,1V26.54L609.21,24l-.79-1.59.48-.48.16-1.43.32-.48,1.11.79ZM595.56,20h.16l-.63-1.11.16-.16.16-.32.79.48v.64l-.48.48.48.16v.32l-.63-.16Zm2.22,23-1.11.64-1-1.11.64-.64,1.27,1Zm.48-22.24.32.16-.16.64-.32-.16.16-.32ZM601,62.6v.64l.48,1V65.3l-1,.64-.48-.48-.16-1.59.32-.64-1.59-.16V62.6l.48-.32,1.11.48.32-.16Zm-.79-16.52-.64.48-.79-1,.48-.48.63.16.16.48Zm.16-6.67-.79-.32.79-.64.16.64ZM600,36.23h.32l-.16.64-.32-.32Zm1.59,13-1.11-.64.79-.48.32.79Zm-1,12.55h.48l-.32.16Zm1.11-18.58-.16.64-.48.32-.32-.48.16-.64h.64Zm.16,16.36,1.59.64.79-1,1.59-1L606.2,57l.48-.32L609.06,58l1.43,1.11-1,1.59L610,61l.64-.16.79.64.16.79.64.16,1.11-1.27,4.76,1,3.65.64-.32-1.11L620,60.85l-.48-1-.16-1.43,1-.48.64.16,1,1.43h2.7l.32.64-1.59,1-.64,1,.16.32-.48.48.16.32-.32.32-1.27.16-1.27,1.11v.64l.79,1.11,1.11-.64.32-.64L623,67.36l.79.64,1.27-.32.79.79-.16,1.43-.79,1-4.77,1-2.22.48-.48-.48V70.54l1.11-.48.16-.64-1.11-.32-1.27.48-.64-.16-1-1,.79-.79v-.79l-2.38.79L611.76,69l-.64.16-2.38-2.38.32-.48,4.77-.32.48-.64L614,65l-1-.16-.48-1-1.91-.64-.16-1-1-.79V61l-1.11-.64v-.79l-.48-.48-.48.16-.79,1,1.43,1.91,1.11.32.64,1.43-2.38,1.43-.64-.16-.32-.79L604,61.81l-.32.32-.32,1.43-.32.32-.48-.48-.32-1.27-.48-.64-.48.32-.16-1,.32-.16.16-1Zm-.79,2.22h0ZM604,67.36l-.16.64-1.91,1.11-.64-1.27.64-1h1.91v.32Zm.48-46.86.16.32L604,22.26l-1.11.64-.16-.64,1-1.59.48-.32ZM603.34,6.69l.64.16.16.48h-.64L603.18,7Zm1.11,9.37h-.79V14.95h.79l.16.79Zm0,54.64-.32.48-.48-.16v-.48h.48Zm1-53.21-1.11.48-.16-.64.64-.79,1,.16-.16.64Zm-.16,47.81-.48.64-.48-.32.16-1,.64.16.16.32ZM607,41.63l-1,.16v-.32l1-.16Zm.48,27v.79l-1,1.11-.48-.64.64-1.43h.64Zm-1-26.21,1.59,1.27-.64.79-1.11-.79-.16-.48.32-.48Zm.16-22.87.64.32v.79h-.79v-1Zm1.43,30-1.11.32-.32.79h1.59l.79-.79v-.32l-.64-.16Zm.79-33.51.48-.32.48.32.32,1.59-1,.32-.48-1.59Zm4.45,54,.48.48-.16,1.11-.64.79-2.54-.79-.16-.48.48-.48,2.22-.64ZM611,4.94h.48l-.48.32Zm.16,9.37,1.11.48.48,1-.32.48-.79.16L611,15.27l.16-.64Zm1.75,29.54L612.23,45l-.64.16-.64-.64.32-.79.79-.32.64.16Zm1.27-28.59.64.64.16.64h1.75l.79.64-.79,1.11-1.59.64-2.22-1-.48-1.11,1.43-1.59Zm.16,29.86L614,46.24l-.48.32-.48-.64.64-1H614Zm2.38,13.66-.16.79-.63-.16-.16-.64.64-.16Zm1.43-39.07.79,1,.64.32.32,1-.64.16L617,20.83l-.16-.79.79-.32ZM620,51.64l-.16.79-1-.32.79-.32ZM622.4,1.92V2.4l-1,1.11v.79l-.64.64-1.27-1L620,2.88l1.27-1.27h1Zm-.48,19.54h-1l-.64-.79L620,19.08l.32-.32.64.16,1,1,.16,1.43Zm.32-13.66h.64L623,8.91l.79,1.59-.48.48-.64-.16-.48-2.7ZM627,61l.32.48-.16.64L627.8,64l-1.11.48L625.42,64l-1.11.48h-1L623,65l-.32-.16.16-.32L622.4,64H623l1-.79h.64L626.69,61Zm-1.11-46.86-.32.64-.64-.32.32-.48h.32ZM625.26,17l1.11-.16.64.79-.79.64-.64-.32-.32-.64ZM627,19.24l.64,1.59-.32,1.11-1,.32-1.11-.16.16-2.38,1.27-.64Zm.16,39.55v.48l-.48.32-1-.16.64-1,.64.16Zm2.38-2.06-.32.16-.32,1-1.59.79v-.79l-.48-.79-.16-1.11,1.11-.16,1.11.32ZM627,.49l.48.16-.64.32V.65Zm0,32.24-.16,1.11.48.48,1,.16v-.79l-.63-1Zm1,34-.64.64L627,67l.64-.48Zm-.32-43.52h.63l.16.48-.32.32-.48-.16Zm2.86,11.44h-2.38l.16,1.75,1,.79.64.16.48-.32V35.91l1.11-.48.64-.64-.16-.32Zm3.34,22.08v.48l-1.27,1.75-.16,1.75-.64.32-.48,1.43.32.16.48-.32,1.11.48.16.64-1,.79L631.13,64l-.79.48-1-.64L629.07,62l-1-1.11.32-.64,1.91-1.75,3.18-1.75ZM630,68.79l.64.32v1.27l-1.59,1.11-.48-.48,1.11-2.22Zm-.48-2.38h.79L630,67.52l-.64.16.16-1Zm4-41.3L633,27.5l-.32.48-2.22-.32V25.91l1.27-1.27,1.27-.16.32.48Zm.64-3.65.32,1.27-1.91.32-.16.32-1,.16-.79-.48.48-.79.32.32,1.59-1,.79-.16ZM631,5.89l.64.79-.79.16V6.05Zm5.08,53.21.64,1.75-1.27.32.48,1-.79.64L634,62.28l-.16-.64.64-1.43,1.27-1.11Zm-1.27,8.1-.16,1H634l-.16-.64.48-.32Zm1.11-42.89-.32.16-1.11-1,.32-.64,1.11.79Zm-.63,41-.64-.64.79-.64.32.48h.32l-.48.64Zm1.91,3.18-.48,1-.48-.32.16-1,.48.16Zm-.32-40.19.48-.48,1,.79-.64,1.11h-.48l-.48-1.11Zm1.59-10.64-.16.64-.64.32-.79-.48.48-.79.48-.16.48.32Zm-.16,7.15-1.11-.64L636.85,23l.48-.79.79.64.64,1.11-.32.64ZM645.11,68l1.59-1v1.11l-.79,1-1.43-.64-.64.32h-1.27l-1.75.79-1-.48-.16-.64-2.54-2.54,1.11-.79.63.16,2.22,2.38.64-.16V66.41L641,65.3l.48-.79h.32l1.75,1.75.16.48H644v.48l.79.64ZM637.49,4.94l.32.16-.16,1h-.32v-1ZM641.14,14l-.16.64-1.43,1.11-.64-.16-.16-1.27.63-.79h1.27Zm1.43,5.24-.16,1.11.48,1.59h-.64l-.64-.48H640l-.48-1,1.91-1.11.32-.48.64.16Zm0,9.05-.32.48-.64.16-.48-.32.16-.64.63-.16.48.32Zm4.29-6,.16,1.27,1.27.16L648,24.8l-.48.16-2.22-.64-1.11-.79v-.64l1.27-1.11,1.11.32Zm1.59,14.3,1-.48,1.11.48,1.43-1,1.43.48v1.11l-1,.79-.16.79.79,1v1.11l-.64.16-.48-.32h-.79l-1.27.48-.48-.32-1.27-4.29h-1.75l-1.11-.48v-.32l.64-.16.79-1.11.79-.16.48.32.32,1.59ZM650.83,27l-.16.64-.48.32-1.43-.79-.48.48v.64l.48.32.32,1.11.32.16-.64.32V32.1l-.64.16-.79-.79-.79-2.7.64-2.22,2.38-.79.16.48,1,.48ZM647.65,4.15h.48l-.16.79-.32-.48Zm4,17.31-.48,1.11-.64.64-.64-.32-1-1.11v-1l2.38.16.16.32Zm0,11.59L650,34.33l-1.11.16.16-.79.79-.64.32-.79.79.16Zm4.29-16.68V17l-1.75.48.64,1.59.64.16,1-.48.79-1.11,1.11-.16.16.32-1.11,2.38-4,.64-.64-1.91-1.11-.79-1.11-.32L649.24,17l.48-.48,3.65.64,1.27-1Zm-5.56,12.87.16.32L650,30l-.32-.64H650Zm.16-4.61-.32.48h-.32l.32-.48ZM650,50.21l.64,1.11.48.32,3.34-.48.79-1.91L654.64,48l-2.06-.48-1.11,1.59-.79.16-.64.64Zm3.49-19.06-1.91.32-.48-.64,1.59-1,2.54-2.7.64.79-.48,1.27-.64.16-1,1.43Zm-1-16.52-.16.64-.64.16-.16-.32.64-.64ZM654.17,35l-1.11-.16-1.27-1.27.16-.32h.48l1.75,1.27Zm2.38-1.75-.64.79-.48-.16-.64-.79.48-1,.64.16.48.64ZM658.3,40l.79.79.63.16.32.48-.32,1.11.16.79-1,1.59-.64.16-3.18-2.06-.16-.64.79-1-.32-1.27.48-.79h.64L658,38l.64.16.16.64-.32,1.11Zm-2.86-31,.64.16v.32l-.64-.16ZM657,1l-.32.79-.48-.32.16-.48Zm.64,21.92v.79H657l-.16-.64.48-.16Zm1.75,48.92h-.79l-1-.79.16-.32h.79l.79.79Zm.64-23-.16,1.27-.32.48-.64.16-.48-.48.32-1.27.48-.64.48.32Zm.64-12.07-.48-.32L660,35.12l.48-1.11H661l.32.48-.48,2.06Zm-.16-21.92.64.16.32.79-.32.16-.64-.32-.16-.64Zm-.16,9.53h.48l-.48.16Zm3.34,26-1.43.16-1.75,1.11.16-1.11,1.11-.48,1.59.32Zm-.79-23.83-.32,1.11-1.27-.32-.16-.32.32-.48,1.11-.16Zm1.59,21.13,1.27-.48.48-.48.63.32,1.59-.64,1,1.43v.64l-.48.64-.64-.16-.32-.48-.64.16-.48,1.11-1.11.48H664L662.11,47v-.48l.64-.16,1.43,1.11ZM664,23v.64l-1,1.11h-.64V23.53l.48-.48.79-.16Zm0,13.18.64,1,1-.32,1.75,2.22-.32.48-1.11.16L662.74,38l-.32-.79,1-1Zm.32-16.36L664.17,21l-.79.48-.63-.32v-.79l.48-.48.79-.16Zm-1.27,33.36.16-.64,1-.64,1.59-.48.63,1.27-1.59.79-1.43-.16Zm2.38-27.8v.79h-1.11l.79-1Zm-1-4,.79.16-.16.32-.64-.16Zm.79,9.37.16.64-.64.16-.16-.48.32-.32Zm.63,29.54-.63-.16v.32l.63.16Zm-.16-18.9,1.11.32-.32.48-.79-.48Zm4.61,26.37V69l1.11,1.43.48,1.91-.16.64-.48.32-4.13-1.91-.16-.48,1.91-1.43.16-1.27.32-.48H670ZM668.3,51l.32-.79,1.11.64-.64.79-.64-.32Zm1.59-8.42-.32.32-1-.79.48-.48h.48l.32.64Zm.16-4.76-.32.48h-.48l-.16-.79h.79Zm-.48-5.4.64-1.27-.79-2.38.48-.48,1,.32.48.79.32,2.06-.32.64-1.43.48Zm1.75,32.72v.32l1.11.48.16.32-.32.64-1,.64h-.79l-.16-.64.63-1.43-.79-1,.32-1.59,1.43.32-.48,1.59ZM672.75,24l-.16.64-.79.48-.16-.32.32-.64.48-.16Zm1.43,4.92-1.11,1.43-.64.16-.32-.64.16-.64,1.11-1,.48.32Zm-1.43,32.56,1.11.32-.16.79-.64-.16-.32-.48Zm2.86,8.58,1.43-1,1.43,1.11-.32.48-4.92.48-.48-.64.64-1.11.63-.16Zm-1.43-37.49v.79h-.48l-.32-.79Zm-.79,26.53H674l-.16.64-.48-.32Zm.79-22.55-.48.16-.16-.32.64-.16Zm1.43,2.38-.48-.16-1.11.32-.32-.16.16-.64,1-.64.64.16.16.79ZM674,49.42l1,.32v.79l-.48.16-.79-.32.16-.79Zm1.27-29.23-.48.32-.64-.16-.16-.64.48-.32.79.48Zm.64,33.67-.79.32-.64-1,.32-.64.64.16.32.79Zm3.34-11.28-.48.32-2.38.48-.16-.64,1-2.06.79-1,1,.79.48,1.75ZM677.2,9.07l.48.32-.16.32L677,9.23Zm1.27,17.47v.32l-.79.48-.64-.16.16-.79h1.11Zm.32,7.78L678,34l-.16-.48.64-.64.63.32v1Zm1,23v.79L678.31,58l.16-.64,1-.16Zm2.54,13.18L682,71l-.79-.32L679.9,71l-.64-.48,1-1.75,1,.16,1,1.27ZM681,44.65l-.64,1-.48-.16-.16-.64.32-.64h.48l.16.32Zm2.7,8.89-.79,1-1-.32-.64-1.11.48-.16,1.59.48Zm-2.22,7.94H682l1.91,1.91-1,.79-1.11-.32-.48-2.06Zm2.86-18.9L683.71,45l-.48.16-1.59-2.54-.16-1,.48-.16,2.22.79Zm-1.59,23.35-.64.16-.48-.32v-.32l1-.32.16.48Zm2.86-7.78-2.86.64-.32-1.59L682,56.4l.63-.48.64.64,1.91.64.48.48Zm-2.54-22.71.63,1.11-.63,1.11h-.64l-.32-.48.16-1.11.48-.48ZM684,34l-.32,1.43-1.27-1.27.48-.79,1,.32Zm1.11,33.51-.32,1.59-.64.79-.63-.16-.48-.79,1.27-2.06.64.32Zm-.63-56.86L684,10.5l.16-.64.64-.16v.79Zm.16,39.55.79.79.16.64-1,.79-.48-.32L684,51l.32-.48ZM685,61l-1-.48.16-.79.48-.16.48.32.16.79Zm.64-20.81-.64.32-.79-.32.32-.64.48-.16.48.48Zm2.54-13.5.63.32.79,1h.63l.64.64-.32.64-2.06-1-1.43,1-.64-.16-.79-1-1.11-.64V27l.48-.48h.64l1.11.64,1.11-.48ZM687,56.56l-.64.32-.48-.16L684.82,55l1-.64.64.32L687,56.4ZM689.9,69l-.48.32.32,1-.32.48-2.7.16-.79-.48.16-.64.79-1,1.27-3.49,1.11.64-.32.64.16,1.27.48,1ZM688,43.22h-1.75l-.16-.48.79-1.11,1.27.16.48.48v.64Zm.16,17.63-.64-.16-.64-.64.16-.64,1.11.48.16.64Zm.32-25.41.16.79-.48.48-.79-.64,1.11-1V33.85l.64-.32.79,1-1,1Zm2.86,18.74-.32.64h-.64l-.32-.32h-.64l-.64-.64.32-.48,1.43-.16.64.64Zm-.63,3.18-.16,1-.48.64h-1l-.16-.32.64-1.11.79-.32Zm-.64-24.94-.48-.32.48-1.27,1,.48v.48l-.48.48Zm.48,4.77h.64l.48,1,.48.32,1.43-1.11.48,1-.48,1,.32,1.27L695,41l.79,1.11-.32.48-1.11.16-.79,1.11-1.43.79-.32,1.27-.48.32-.63-.32.63-2.38V42.43l1.11-.16V41L691,39.89l-.64-2.38Zm5.56,24.94-1,1.59.48,1.27-.32.79,1,.79.16,1-.79.16-.16.48,1,.64,1.27-.32v.32l-1.11.64-1.59.32V71h-3l.16-.64,1.27-.32.32-.48-.16-3.18-1-.48-.16-.64,2.22-1.43-1.43-.79-1.27.48-1-.32-.16.16-.48-.32v-.64l.79-1,3.34-.79L695.94,62Zm-5.56-14,.16.32h-.16Zm1-23.67,1.27.48.79.64.32.79-.32,1.43-.48.16-.48-.32-.32-1.11-1.43-1.27.48-.48Zm-.48-3h.32v.64H691Zm1.75,37,.64.16-.64.32Zm4.13-.48-.48.32-2.38-1-.79-1v-.48h2.22l1.43,1.75Zm-2.06-36.53-.63.48-.48-.32.32-.79.64.48Zm3.65,11.28-.16,1.91-.64-.16-.79-.79-1.27.32-1.11-.48.16-.32-.79-.64.79-.48-.48-.48.32-.48-.16-.64.48-.32,2.22,1,.64-.32.16-1.43.79-.48.79.79.16.79-.79,1.75v.32ZM695.94,46.4l-.32.48-.79-.32.32-.64h.48l.16.32Zm-.32-22.71v.64H695v-.48l.32-.16Zm3.65,29.07-.48.32-1.11-.48-2.06,1.75-.48-.48,1.27-1.43,1,.16.48-.48h.64l.16-.32.64.64Zm-1.43-34.47.79.32L698,20.67h-1.27V20l1-.64.16-.79Zm-.79,40.66.64.16-.16.64h-.48l-.16-.48ZM699.27,57l-.48,1.27h-.64l-.64-1,1.11-.64Zm-1.75,13.34h1V71h-1Zm1.59-21.44-.16.64h-.79v-.64l.64-.16Zm5.4-16.84,1.59-.64.79,1.43-1,.48-1-.64-1.43,1.43-.16.64L705,36.55l.79.64.64,1.75L705.63,40l-2.22-.16-1.59-1L700.39,40l-1-.48-.63-2.22.48-.32v-.32l1.27-.16,1-1.43L702.77,34l-.32-.64-1-.79V31l.64-1,1.27.48,1,1.43Zm-4.45-9.85.64.16v.32l-.64-.16ZM702,15.58l-1,1-.79-.79.64-.64,1,.16Zm-.48,29.86v1.11l-.32.16-.64-.64.48-.64Zm-.16,6.19-.48-.48,1.27-2.06h.32L702,51.16Zm.79,7.94-.48.48L701,59.9l.16-.79.48-.16.32.32Zm.48-4.45-.48.48-.79-.64.48-.79.79.64Zm.64-40h-1.11l.32-1.91.48-.32.48.32v1.59Zm-.79,34,.16-.32.16.48Zm1.43-26.68-.79.16.48-.32-.48-1.59.32-.64h1l-.16,1.43-.48.64Zm6.83,1.27L710.39,25l-1,.64-1,4L708,30l-1-.32-1.27.64-.32-.48.16-.64,1.59-1,.32-1.27-.63-1.27.16-.48,2.06-.16,1-1.43ZM706.9,70.86l-.16.64-1,.32V71l.64-.48.32.16Zm.63-28.27.32.48-.48,1.27v.79l-.48.79-.79-.48.64-1.75-.16-.32.32-.79Zm1.11,14.93-.16.64-.79.79h-.79l-.32-.32V58l.64-1.11h.64l.64.48Zm1.43,7.78h-1l.16-.48.64.16Zm.32-36.06-.32.16-.16-.48Zm1.27,31.93h.64l.48,1.43-.64.64-1.11.16-.32-.32,1-1.59Zm1-10.17h.64v.48l.79.64v1.11l-.32.64-1,.32-1-.48-1-1.11.16-.48Zm.16,20.81h-.64l-1-.79-.32-.64.16-.64h1l.79.79.16,1Zm1.59-30.5-1.27,1.43-.48-.48-.16-1.11.32-.48.64-.16.79.48Zm5.08,25.1-.32,1-.79-.16-1-.79-.32-1.27h-.64l-.79,1-1-.32-.32-.48-1.11-.48v-.64l1.43-1.59h2.06l3.34.79.63.79-.16,1.11-.79,1Zm-4.29-10.48-.16.64-.79.64-.63-.48.79-1.27.64.32ZM715,28.45l.32.16-.16.48-.32-.16.16-.32Zm.64,38,.79,1-.48.48-.79-.32.48-.79Zm2.86-40.19-.64,1.27-.79-.48.63-1.27.48.32ZM721,33.85l-.16.64-1.27,1.11-.64-.48-.16-.48,1-.79Zm-1.59-17h.32l-.16.64h-.32l.16-.32Zm2.07,50.67.16-.16-.16.48Zm2.06,0-.32.64-1.43-.32v-.32l.48-.32,1,.16ZM724.37,30l-.16,1.11-.64,1-1,.16L722.15,31l.16-.48,1-.79.79.16Zm-2.06,13h.32l.16.64h-.48Zm3.49,20.17L725,62.12l-.48-.16-.48.32-.64,1.27-.48-.32-.32-1.91.48-.48h2.38l1.11.32v.32l.32.16-.48,1.43Zm0-36.53-.16.32-.79-.16-.32-.48.32-.64h.64l.32.64Zm-1,28.27.48.16v.79l-.63-.16v-.64ZM728,56.09l-.48,1.75.32,1.27.64.79-.16.32-2.06-.32-1.11-1.11.16-.48,1.11-.16.48-.79-.32-1.27.48-.32.64.16Zm-1.43,10-.16.64L726,67l-.64-.48.32-.48.64-.16Zm.32-45.59v1.27l-.79.48-.16-.64.32-1.11Zm.16,40.5.16.79v-.16h-.32Zm.48,1.43-.32-.64.32.32Zm1.75,5.4-1.11.32-.64-.64.48-.79,1.11.79Zm-.64-1.91.16-.48,1.27-1,.64.32v1.11l-1.91.16Zm1.59-4,.32-.16.64.79-.16.64-.79.32-.32-.48.16-1ZM731,46.24l-.32.32-.64-.32.32-.64.64.16Zm1.91,4.45-.16.64-2.38,1.11V52l1.27-1.59h1Zm-1-16-.48-.16-.16-.79H732l.16.79Zm0,2.06.48,2.06-1.11-.64V36.71Zm1.11,33.51v.64l-.64,1-.63.32-.48-.48.48-1.27.48-.48.63.16ZM732,65.62l.48.32-.16.79-.79-.32.32-.48Zm1.75-61.79L732.47,4,732,3.67V3l.64-.16,1.11.32Zm-1,57.5.32.32v.64l-.64.16-.16-.32.32-.48Zm1.43-29.38.16.16-.79,1.11-.64-.16.16-.64,1-.16Zm-1,16.84.16-.64,1.11-.32,1,.32.48.64-.16.48-1.11.48-1.27-.64Zm.32,11.91.32.16-.32.79-.32-.48.16-.32Zm1.91-38.6v.79h-1.27l-.16-.64,1.11-.16Zm1,14.45-.16.79-1.11,1.43h-.32l-.48-.79.16-.64,1.43-1,.16.16Zm0,23.51-.16.64-.48.32-1.27.16-.16-.48.32-.48,1.43-.32Zm-1.91-30,.79.16v.32l2.06,1,.79-.16,1.11.48.32.48-.48,1-1.27.48-.48,1h-.63l-.79-.79.64-1v-.64L735,32.1l-.48-1.75Zm4.92,8.26-.48.64-.32-.16-.79.79-.16.64-.64.48h-.79l-.48.79-.32-.48.79-.79.63-1.27,1.11-.32.48-.64h.64ZM736.92,28v.64l-.63-.16L736,28ZM738,45.13l.48,2.22-1,.79-.64-.16-.32-.64V46.08l1-1Zm0,5.4.48,2.54-.48.48h-.64l-.48-.48-.16-1.27.48-1.11.48-.16Zm2.22-9.21-.48.32.32,1.43-2.7,1.11-.48-.48.64-1,2.38-1.59Zm-2.7,25.1.79.64-.32.64.48.79,1.59-1,.79.64-.16,1.27-.32.48h-1l-1.43,1-.16-1.27-.64-1,.32-.79-.32-.64.16-.48Zm0-31.45.64.16.16.64h-1l.16-.48Zm1.11-8.89-.48-.32-.48-2.54,1.11-.64,1,.79v1.75l-1,1Zm-.79-6.19h.64l.16.48,1.11-.32.48,1-.64.32-.79-.79h-1Zm2.86,43.2-.79,1.27-1,.32-1-.16v-.32l1.91-1.43h.64Zm-.64,9.85h-.64v-.64l1.75-1.91,1.59.48L742.48,72ZM742.64,57l-2.38-1-.48-.79.79-.79,1.75.64,1.11,1-.64.79Zm-.48,4-.32.48-1,.32-.64-.16.64-1.11.64-.16.48.32Zm.32-31.29-.16,1-.64.16-.32-.32.32-1.11.64.16Zm0-8.74.48,1.27-1,.48-.32-.48.48-1.27Zm-.63,44.63.48,1.27h-.16l-.48-.32v-.64Zm1.43-47,.48,1.11-.32.64-.79.48-.79-1.11.48-1,.64-.16Zm-1,48.29.32-.32-.16.64Zm1.27-53.53.32.48-.16.64-.32.16-.79-1,.48-.32Zm-.32,57.5h-.48l.32-.79.32,1Zm1.43-6.67-.16,2.54-.64-1.91-.48-.32.16-.48h1Zm-.48-22.71-.64-.16v-.48l.64.32Zm3.18,27.64-.48,1.11-1.11,1.27v1.75l-.64-.16-1-1.59v-.64l1.43-1.11.32-1,.79-.32Zm8.89-15.25,1.91-.32.48.32-.48,2.22.79.79h.79l2.06,1.27.64-.79-1.27-1.59.48-.48,1.59,1.11,1-.16.48.48L765,58l.79,1.11-.64,1.11-.48.16-.32,1.27,1,1.91-.63,1-2.22,1.11-1.27-1.11-.48,1,1,1.27.48,1.27,1.43-.79.79-1.11H765l1.11,1.59,1.11.16,1.59,1.91v2.06l-1,.32L763,71.81l-5.08-.48h-1l-1-.64,1.11-2.06-2.7-1.91-2.06-1.43v-.64L750.58,64,749,62.92l-.48.16L748,64.19V65l-1.27.64L745.5,64l.48-1.27-1.27-1.11.16-.64-.32-1.27,1-.79,2.06-.79.32.16v.48l-1.11,2.06,1,.79.64.16,1.59-.79.64.64.16.79.48.48,1.27-.48.63-1.11-.63-1.43.16-.64.48-.32.64.16,1.75,1.27.48-.48V58.79l1-.32.79-1.11-1.11-.64-1.91.64-1.11-.64-1.27.48-1.75-.64-.32-.48.16-.64h2.22l1,.32,1.43-.16.16-.64h-.63l-.79-.64-.64-1.27.48-.64,1.27-.16,1.27,1.43ZM745.65,11.14l.48.79-.79.16.16-.79Zm2.22,41.77-.64.48L746,52.91l-.48-.48.32-1.27.64-.48.79.64.64,1.27Zm-.16-3.34-.64.16-1-.32-.16-.48.32-1,1.43,1Zm2.22-19.38-1.11,1.11-1.27-.16L748.83,30h.79Zm1.59,15.25-.32.64-1.75,1.43h-.64l-.64-2.22.64-.32,2.38.16Zm-.48-3.65-.48.48-.64-.16-1-3,.32-2.06-.48-1.27.16-.48h1.27l.32.48L750.42,37l.64,2.22-.32.64.32,1.59Zm4.29,28.91v.64l-4.29.32h-1.27l-.79-.79.16-1.27.64-1.11,1.27-.32.79-1.11,1,.32,1.27,2.38Zm-4.92-17.31-.48-.32L749.47,51l.16-.48,1-.48.79,1.27-.79,1.91Zm2.7-4.29-1,.64-1.11-.32v-1l.64-.32.79.16v.32l.48.16Zm1.11-17.31-1.11.64-.32.48-.64.16-.32-.48.16-1.27.79-.64,1.27.48.16.32Zm2.22,13-1.11,2.54-2.38.16-.48-.32.79-2.54h2.86ZM756,36.23l-.32.32-1.43.16-.32-.79,1.11-.48.79.48ZM757.73.65l-.48,1.27-.48.16-2.06-.79-.32-.48.32-.48,2.54-.16.16.32Zm-.63,50.67-.16.32h-.64L755.5,51l.32-.64.48-.16.79.79Zm3.65-9.85.32.79-.48.64-1.91-.48-.32.16-.32-.32.16-2.07-.63.16-.64,1.27h-.64l-.48-1,.16-1.27L757.25,38l1.11.16,2.06,1.27,1,1-.32,1ZM759.63,30.2,759,29.08l.64-1.11.16-1.11.79-.79h.48l.16.48-1,3.49-.32.16Zm-.16,14.3h.32l-.16.64-.16-.32Zm2.06-31.61.16,1.75-.64.79-.64-.32L760.27,14l.48-1.11Zm1.59,9.53-.64.16-.64-.32.16-.64.64-.16.48.32Zm0,9.37v.79l.64.79v.79l-.32.32L762.33,34l.16-2.54ZM766,35.44l-.16,1.27-1.27,1.91h-1.43l-.48-.64.64-1,2.06-1.91Zm-3,34.15.16-.32-.48-.48v.64Zm3.18-43.68-.16.48-.64.16v-1l.64.16Zm12.07,8.58-.48.64L777.1,35l-.79,1-.16.64.64,2.22.48.48,1.59.64.16.64-1.27.64.32,4-1.11,1h-1.11l-2.38,1.11-2.7.16L770,48.94h-1.27l-.79-1,.16-.48,1.59-.16v-.64l-.48-.79.64-1,1.27.16.79-.79V42.74l1-.48.32-.48-.32-.64-1.27-.48-.79-1h-1.27l-1.11.79-.16.64.32,1.27-.48.48-1.11-.64-1-2.07,1-1.59h2.38l1.75-.64.32-.48,1.91-1.11v-.48l.64-.79-.48-1.43,1.27-1.27,2.22.79,1.27,1Zm-10,24.3h.32v.64h-.32Zm4.61-4.29.79.64,1-.64.48-1.59.64-.16,1,.48.79,1-.48.48-1.59.64-.16.64-.79.79h-2.22l-1.11-.64L770.43,55l-.79-.64.32-1,1.11-.32V51.32l.79-.79,1.27.32.48,1.11-.79,2.22ZM770,20l.32-.64,1.27-.16.79.79-.16.64-.48.32-1.59-.64Zm5.4,44.16-.16.64-1.27,1.27-1.27.32-2.22-1.11-.16-.64.48-.48,1.43.79,1.11-1.59,1.43.16.48.32Zm-4.45-2.07-.48-.79V60.22l.64-.48.79.79-.16,1.11-.48.32Zm1.91-34.31-.48,1.11.48,1.59L771.7,31l-.64-.32-.48-1.91,1.27-1.43ZM772.5,10.5h.79v.32l-.79-.16Zm1.43,11.75-.32.48-.79.16.48-1Zm.79,4.92-.79,1.11-.79-.64.79-1,.48.32Zm1.59,34-.32.48-1.11-.16L774.4,61l.16-.64,1-.32.79.79Zm-.16-35.42-.64.16-.63-.64.63-.64.64.64ZM777.74,51h.32v.48l-.32-.16Zm2.7,10,.16.32-1.11,1.11-1.43-1.59v-.64l2.22.64Zm-1-9.21.48.32.16.64-.63.32-.32-.64Zm-.16,18.74.64.32-.32.64-.48-.32v-.32Zm.79-21.92-.79-1,.32-1h1.11V48Zm1.59-26.37-.63.16L780,21.62l-.32-.79.64-.16.64.32.79,1Zm0,40.82.32,1.11-1,1-.64.16-.48-.64.48-1,.79-.64Zm.32-1.75.48.64.48-1.43,1.59-1.11V58.31L783,56.4l-.79-.16-1.11.79-.79-.64-.16-1.27.32-1.27L783,52.28l.48.48-.32,1.11.79,1.59.79.32.79,1v.64l.64,1.27-.16.48-.79.64v.79l-1,1.43L786,64.35l.16.64.48.16.32.79-.64-.16-.16-.64L785,64.82l-2.86-3Zm-1.11-24,.16-.64,1.11-.79.79.32v.64l-1.11.79-.64-.16Zm1.59-23-.64,1-.79.16V14.31l.48-.48.79.16Zm-1.43,17.95.63.32-.48.32-.16-.16Zm4.29,11.28.64-.16,1-.79,1.43,2.54v.48l-.48.48-1.75-.16-1.11.64h-1.11l-.48,1v1.27l-1,.79-.48-.32-.16-.64.32-1.11L782,46.24l-.79-1.11.64-1.27.16-1.43,1-.48h.63l1,.48.48.79ZM782,67.68l-.32-.32.64-2.06h1l.16.64L783.14,67l-.79.64Zm1.11-8.89-.48.16-.32-.48.16-.48.63.32Zm3.65,10.64-.48.16-.16.79-.48.16-.16.48-2.06.48-1-.16,2.22-2.07.64.16.48-.32.64.16Zm-1.91-25.25-.48-.32-1,.16.48,1v.79h.32l1-1.27V44Zm2.7,7.31-.32,1.91-.63-1.11-1.11.16v-.79l1.11-.79.63.16.16.32Z"/><path class="cls-1" d="M392.73,46.75V45.18l-.63-.31-1.26-3.14-.94-.63-1.26,1.57-.63,2.2-1.26-.63-.94-2.83-2.51-.31-1.57,1.26-1.26,2.2-1.26-.63-2.83-7.54-.31-.94.94-2.83L378.59,31l2.2-.94-.31-5-1.57-.63-1.26,2.83-1.57-.63-.63-3.14.63-2.51-.31-4.4-.63-1.26V11.87l-.63-.94.31-1.26,1.26-.31L378,10l.94.94,3.46,1.26,2.83.94,2.83.31,1.89,1.26v.94l2.2,1.26h1.26l2.2-1.26,2.51,3.46.31,2.2-.63,1.26-2.2.63-3.14-1.57-.63.63.31,1.26,2.51,3.14-1.26,2.2-5.66.94-1.57,1.57,1.26,2.2h1.89l3.14,3.14.63,3.14H394v2.51l-1.26,1.57v1.26l1.57.94-.94.63Zm-8.49,52.17.94-1.89,5.34-5.34,5.66-3.46,1.89.94-.31,1.57L393,93.26l-.31.63-2.51.94-.31,1.26,1.57,1.57,1.26.31,1.57-3.46,1.57,1.26L394.3,98l.31,2.51-.63.94-1.57-.31-1.89-1.57L388,99.23l-2.51.63-.94-.63Zm11-34.88-.31-.31,1.26-1.89h1.57l-.31,1.89h-1.57Zm-3.77,41.17,3.46-.94.63-.94,1.26-.31.63,2.2L394,107.72l-2.2-.94-.31-.63Zm3.14,16.34,2.2,1.26-.63,2.2h-1.26l-.63-.94v-1.89Zm-3.14-6,.94-2.2,1.57-1.26,1.26,1.26-1.57,2.2-1.57.31Zm1.26-31.74,1.26-.31,1.26.63V86l-1.26.31-1.26-1.89ZM390.53,76l-.63-.31.31-2.2,1.57-1.89,2.2-.94.94.63.31,1.26-1.89,1.57-1.26.31ZM393,120l-1.26-.63.31-.94,1.26.31v.63Zm-3.14,12.26V130h1.57l.31,1.57-.94.63Zm-5.66-27.34,2.51.63,2.2,3.14-.63.94-4.4-.63L383,108l.94-2.51Zm2.2-33.94.31-1.26.63-.31.63.94-.63.94-.31-.31ZM388,55.24h-.94V54l.94.63Zm-2.2,30.17-.63-.94.63-.63h1.26l-.63,1.26ZM383,62.15V60.26l1.26.31v1.57Zm-31.11,51.23-1.57.94-2.51-.94-.63-2.2-1.89-.94-1.89-1.89.31-.94,1.26-.63,4.09-.31,1.26-.94-1.57-4.4-2.51.94-1.89-1.26V99.55l.63-.63h1.26l1.89,1.57,1.26.31,1.26-2.2-3.14-3.46L349,92.32l-.31-1.57-2.2.63-.63.94h-.63l-.63.94h-.94l-2.2,1.57-1.26,1.89-1.57.31-2.2,1.89,3.14,1.26,2.2,4.4-.94,2.2-.94.31-1.26-.63-.31-2.51-1.57-1.57-2.2-.31-1.26-1.26.31-.94-.63-.63-2.2.31-1.89,2.51v2.51l3.77.63-.31,1.57-2.2,2.51L328,108l.94-2.51-2.2-.63-.63-1.26v-5l-.63-.94L322,97.35l.31-1.26,3.77-2.51-1.89-3.14L323,90.12l-2.83,2.2v2.2l-3.46.94-.63-.94L315.74,92l-.94-.63-5.34.63-1.89-.94L306,89.18l-1.26-.31-.31.63.63,2.2-.31.63h-1.26l-4.4-2.51-.31-1.26L301.59,87l-.31-1.26-2.2-1.57h-3.77l-.63,2.2,1.57,1.57V89.8l-1.57,1.57v1.26l-1.57.94-.63-.31.94-3.46-1.89-2.2h-.63L290,86.35h-2.2l-.31.94.94,1.57-.94,1.57L284,92l-1.26-.31-1.26-1.57,3.46-3.77h2.2l.63-2.2L284,80.69V78.18l-3.14-2.51.31-1.57,1.26-.63,1.57.31,2.2,3.14,3.14-.31.31,1.26,1.26.63,1.26-.94-1.57-1.89-.31-2.51-.94-.94-2.51-.31-4.09-6.29.63-1.26-.63-1.26-1.26.63-2.2,2.83-1.89.94-1.26,3.46-6-2.83v-2.2l.94-.94h3.46l.94-1.57-1.57-2.83-4.4,1.26-.63.63H266.4l-.94-1.89-1.26-.31-2.2.63-1.57-6.29.94-.94,2.51-.63.94-1.57h.63l.31-1.89-3.14-3.14V43.92l-1.57-2.2-2.2.94-1.26-.31-.63-.94-1.26-.31-2.2.63-3.77-2.83-9.11,1.89-2.51.94-.31.63,1.26,3.46-.63,1.26-1.26.31-4.09-3.14-5-1.89-2.51.63-5.34-3.46L219.57,37l-.94-.94-.31-2.83L219.89,32l2.2.63,1.26,1.89.31,2.51.94,1.57,2.2,1.57,5.34.63,1.57-1.26V36.69l-.63-1.26-2.51-.31V33.87l.94-.63,2.2,1.89,1.26-.31v-.63l2.83-1.26,4.4-.94.31-.94-1.57-2.2-.94-.31-6,3.77-.31-1.57,2.51-2.51.31-2.51,1.26-1.57,1.26.31,1.89,2.2,1.89.63,3.14-.63-3.14-4.09,1.57-.94,3.46,2.2,2.2.31,2.83-2.83.31-2.51,1.26-1.26,1.26,2.2L255.4,21l.94,1.57L259.17,20l3.46-.31-1.57-4.09,2.51-1.26h1.26v2.2l1.57,1.57h1.26L268,16.9l-.63-2.51L268,12.5h1.26l1.57,1.57L270.48,16l.63,1.26-.31,1.26L269.22,20l5,4.09,3.46,2.2V27l4.4,2.83,6.6,5,1.89.94v.63l3.46,1.89,6,5,3.77,1.89,2.83,2.51,1.57.31.94-.94,5.34,2.83-.31.94,1.57,1.57,3.14,1.26.31-.63-.94-1.26.63-1.26L325.79,48l1.57-1.26V44.87L331.13,42l1.57-.31L334.59,43l3.14-1.57.94.63L338,44.55l-2.2,1.26-.31,2.51-1.26.31L332.39,48l-1.89,1.89.31,1.26-.63,1.26h-2.51l-1.57-1.26-.63.31-.31,3.46-1.57,1.26.31,2.83,1.57,2.83,3.46,1.89,1.89,1.89,2.2.94.63-.94-.94-2.51-2.51-1.89.63-1.26,2.2.31,1.57-.94.63-2.2,1.26-.31,2.2,1.26,2.51-1.89L339,53.35l-1.89-.63-.31-.94,1.89-1.57L339,49l-.63-.94.31-2.83,2.83-.63,2.83,1.26h1.26l1.89-3.46,4.4,2.2L355.65,48l3.77,1.57.94-.31.94.94-.94,2.2,1.26,1.26,3.46-1.57L366,53v1.26l-1.57,1.26-1.57-.94-.31,1.26.63.94-.63,1.89H360l-2.83,1.57-1.57-.94v-.63l-2.51-.63-1.89,1.89-2.2.94-3.77-3.77h-.94l-1.57,1.57v.94l-2.51,1.89v2.2l-3.14,2.83-2.51,1.26L338,70.95l2.2-1.26.31-1.57.94-.63,1.26.31,3.14,3.14-.63.94-2.51.94-.31,1.26,3.77,2.2,1.26,1.57h.63l1.26,1.57h.94l1.57,1.89,2.51,1.89,4.4,3.14h.63l1.26,1.57h.94l2.51,1.89,2.2-.63,2.2,1.26v2.2l.63,1.26.94.31v.63l3.14,2.2,3.14,1.57,3.77,3.46h2.51l.94.94v1.26l-6-1.57-.63.63v1.26l1.26,2.2.31,1.89-.94,1.26-2.83-2.2-5.34-1.57-1.26-1.89.31-.63.63.94,2.51-.31,1.26-.94-.94-.94h-2.83l-.94-1.57-3.46,1.26-2.2-.63L360,99.55v2.51l-5,5,1.57,3.14-.94.94-.31,2.83-.63.94-2.2-1.57ZM382,114.95h-.31l1.26,2.2-.31.31-.31.63-1.57-.94v-1.26l.94-.94-.94-.31V114l1.26.31Zm-4.4-45.57,2.2-1.26,1.89,2.2-1.26,1.26L378,69.69Zm-.94,44-.63-.31.31-1.26.63.31-.31.63Zm-5.34-82.65V29.47l-.94-1.89v-2.2l1.89-1.26.94.94.31,3.14-.63,1.26,3.14.31v.94l-.94.63-2.2-.94-.63.31Zm1.57,32.68,1.26-.94,1.57,1.89-.94.94L373.56,65l-.31-.94Zm-.31,13.2,1.57.63-1.57,1.26-.31-1.26Zm.63,6.29h-.63l.31-1.26.63.63ZM370.1,57.12l2.2,1.26-1.57.94-.63-1.57ZM372,32.29H371l.63-.31Zm-2.2,36.77.31-1.26.94-.63.63.94-.31,1.26H370.1Zm-.31-32.37-3.14-1.26-1.57,1.89-3.14,1.89L361,41.72l-.94.63-4.71-2.51-2.83-2.2,1.89-3.14-.94-.63-1.26.31-1.57-1.26-.31-1.57L349,31l-2.2,2.51-9.43-1.89-7.23-1.26.63,2.2,2.83,1.57.94,1.89.31,2.83-1.89.94-1.26-.31-1.89-2.83h-5.34l-.63-1.26L327,33.55l1.26-1.89L328,31l.94-.94-.31-.63.63-.63,2.51-.31,2.51-2.2V25.07l-1.57-2.2-2.2,1.26-.63,1.26-2.2-4.09L326.11,20l-2.51.63L322,19.1l.31-2.83,1.57-1.89,9.43-1.89,4.4-.94.94.94V15l-2.2.94-.31,1.26,2.2.63,2.51-.94,1.26.31L344,19.1l-1.57,1.57v1.57l4.71-1.57L350,18.15l1.26-.31L356,22.55l-.63.94-9.43.63L345,25.38l.63.63,1.89.31.94,1.89,3.77,1.26.31,1.89,1.89,1.57v.94l2.2,1.26v1.57l.94.94.94-.31L360,35.44l-2.83-3.77L355,31l-1.26-2.83,4.71-2.83,1.26.31.63,1.57,5,5,.63-.63.63-2.83.63-.63.94.94.63,2.51.94,1.26.94-.63.31,1.89-.63.31-.31,1.89Zm1.57-4.4h0Zm-5.66-11L365.7,20l3.77-2.2,1.26,2.51-1.26,1.89H365.7v-.63ZM364.45,114l-.31-.63,1.26-2.83,2.2-1.26.31,1.26L366,113.69l-.94.63Zm2.2,27.34-1.26-.31-.31-.94h1.26l.63.63Zm-2.2-18.54H366V125h-1.57l-.31-1.57Zm0-108.11.63-.94.94.31V15h-.94ZM362.56,120l2.2-.94.31,1.26-1.26,1.57-1.89-.31.31-1.26Zm.31-94.59.94-1.26.94.63-.31,1.89-1.26-.31-.31-.63Zm-3.46,46.83,1.89-.31v.63l-1.89.31Zm-.94-53.42V17.21l1.89-2.2.94,1.26L360,19.1h-1.26Zm1.89,51.85-3.14-2.51,1.26-1.57,2.2,1.57.31.94-.63.94ZM360,115.89l-1.26-.63v-1.57h1.57v1.89Zm-2.83-59.4,2.2-.63.63-1.57H356.9l-1.57,1.57v.63l1.26.31Zm-1.57,66.31-.94.63-.94-.63-.63-3.14L355,119l.94,3.14ZM346.85,16,345.9,15l.31-2.2,1.26-1.57,5,1.57.31.94-.94.94L347.48,16Zm4.71,128.85h-.94l.94-.63Zm-.31-18.54-2.2-.94-.94-1.89.63-.94,1.57-.31,1.26,2.2-.31,1.26Zm-3.46-58.45,1.26-2.2,1.26-.31,1.26,1.26-.63,1.57-1.57.63-1.26-.31Zm-2.51,56.57L344,123.12l-.31-1.26h-3.46l-1.57-1.26,1.57-2.2,3.14-1.26,4.4,1.89.94,2.2-2.83,3.14ZM345,65.29l.63-2.2.94-.63.94,1.26-1.26,1.89h-.63Zm-4.71-27,.31-1.57,1.26.31.31,1.26-1.26.31Zm-2.83,77.31-1.57-1.89-1.26-.63-.63-1.89,1.26-.31,4.4,2.51.31,1.57-1.57.63Zm-3.77-63.17.31-1.57,1.89.63-1.57.63Zm-4.71,98.36v-.94l1.89-2.2v-1.57l1.26-1.26,2.51,1.89-.94,2.2-2.51,2.51h-1.89Zm.94-38.65h1.89l1.26,1.57.63,3.14-.63.63-1.26-.31-1.89-1.89-.31-2.83Zm-.63,27H328l-.31-2.2-1.57-3.14.94-.94,1.26.31.94,5.34ZM319.82,33.87l-.63-.94.31-1.26-1.26-3.77,2.2-.94,2.51.94,2.2-.94H327l.63-.94.63.31L328,27l.94.94h-1.26l-1.89,1.57h-1.26l-4.08,4.4Zm2.2,92.71.63-1.26,1.26.63-.63.94h-.63Zm1.26-5.66-2.2.31-1.26-1.57,1.57-1.26,1.26.63.63,1.26Zm-3.46-4.4-1.26-3.14.63-2.2,1.89-.63,2.2.31-.31,4.71-2.51,1.26Zm-.31-78.25v-.94l.94-.63,1.89.31-1.26,1.89-1.26-.31Zm-4.71,4.09.63-.31.63-1.89,3.14-1.57v1.57l.94,1.57.31,2.2-2.2.31-2.2-.63Zm5,111.25-.94-.31,1.26-.63v.63Zm0-63.8.31-2.2-.94-.94-1.89-.31v1.57l1.26,1.89Zm-1.89-67.25,1.26-1.26.63.63-1.26.94Zm.63,86.11h-1.26l-.31-.94.63-.63.94.31ZM312.91,86h4.71l-.31-3.46L315.42,81l-1.26-.31-.94.63v2.2l-2.2.94-1.26,1.26.31.63Zm-6.6-43.68v-.94L308.82,38l.31-3.46,1.26-.63.94-2.83-.63-.31-.94.63-2.2-.94-.31-1.26,1.89-1.57,2.51.31,1.57-.94,1.89,1.26.63,3.77,1.89,2.2L317,35.44l-3.77,3.46-6.29,3.46Zm7.54-23.88-1.26-.63V15.32l3.14-2.2.94.94-2.2,4.4Zm.94,4.71h-1.57l.63-2.2,1.26-.31-.31,1.89Zm-7.86,81.71.94-4.71.63-.94,4.4.63v3.46l-2.51,2.51-2.51.31-.63-.94Zm-1.26,7.23-.63-2.51,3.77-.63.31-.63L311,108l1.57.94-.94,1.57-.63-.63-3.14,1.89-1.57.31Zm6.29,30.8-1.26-1.57,1.57-.31v1.57ZM301.91,37.64l-1.26-3.46,2.51-.63-.94-1.89,1.57-1.26,2.2.94.31,1.26-1.26,2.83-2.51,2.2Zm2.51-16,.31-1.89H306l.31,1.26-.94.63Zm-2.2,84.85.63-.31,2.2,1.89-.63,1.26-2.2-1.57Zm1.26-81.08,1.26,1.26-1.57,1.26-.63-.94h-.63l.94-1.26Zm-3.77-6.29.94-1.89.94.63-.31,1.89-.94-.31Zm.63,79.51-.94.94L297.51,98l1.26-2.2h.94l.94,2.2Zm-3.14,21.06.31-1.26,1.26-.63,1.57.94-.94,1.57-.94.31-.94-.63Zm.31-14.14,2.2,1.26.63,2.2-.94,1.57-1.57-1.26-1.26-2.2.63-1.26ZM284,20l-3.14,1.89v-2.2l1.57-1.89,2.83,1.26,1.26-.63H289l3.46-1.57,1.89.94.31,1.26,5,5-2.2,1.57-1.26-.31-4.4-4.71-1.26.31v2.2l1.57,2.2L291.22,27h-.63l-3.46-3.46-.31-.94h-.63v-.94l-1.57-1.26ZM299.08,144.8l-.63-.31.31-1.89h.63v1.89Zm-7.23-17.91.31-1.26,2.83-2.2,1.26.31.31,2.51-1.26,1.57h-2.51ZM289,116.52l.31-2.2-.94-3.14h1.26l1.26.94h3.14L295,114l-3.77,2.2-.63.94-1.26-.31Zm0-17.91.63-.94,1.26-.31.94.63-.31,1.26-1.26.31-.94-.63Zm-8.49,11.94-.31-2.51-2.51-.31.63-2.2.94-.31,4.4,1.26,2.2,1.57v1.26l-2.51,2.2-2.2-.63ZM277.4,82.26l-1.89.94-2.2-.94-2.83,1.89-2.83-.94V81l1.89-1.57.31-1.57L268.28,76v-2.2l1.26-.31.94.63h1.57l2.51-.94.94.63L278,82.26h3.46l2.2.94v.63l-1.26.31-1.57,2.2-1.57.31-.94-.63-.63-3.14Zm-4.71,18.86.31-1.26.94-.63,2.83,1.57.94-.94V98.6l-.94-.63-.63-2.2-.63-.31,1.26-.63V91.06l1.26-.31,1.57,1.57,1.57,5.34-1.26,4.4-4.71,1.57-.31-.94-1.89-.94ZM279,146.37H278l.31-1.57.63.94Zm-7.86-34.26.94-2.2,1.26-1.26,1.26.63,1.89,2.2v1.89l-4.71-.31-.31-.63Zm0-22.94,3.14-2.51,2.2-.31-.31,1.57-1.57,1.26-.63,1.57-1.57-.31Zm-8.49,33v-1.26l3.46-.94-1.26-3.14-1.26-.31-1.89.94-1.57,2.2-2.2.31-.31-.63,2.2-4.71,7.86-1.26,1.26,3.77,2.2,1.57,2.2.63,2.51,1.57-.94.94-7.23-1.26-2.51,1.89Zm11-25.46-.31-.63.94-.94.63,1.26h-.63Zm-.31,9.11.63-.94h.63l-.63.94Zm.94-50.6L273,53l-.94-.63-6.6.94-1.57,3.77,1.26,2.51,4.08.94,2.2-3.14,1.57-.31,1.26-1.26Zm-6.91,37.71,3.77-.63.94,1.26-3.14,1.89-5,5.34-1.26-1.57.94-2.51,1.26-.31,1.89-2.83Zm1.89,32.68.31-1.26,1.26-.31.31.63-1.26,1.26Zm-3.14-40.23,2.2.31,2.51,2.51-.31.63h-.94l-3.46-2.51Zm-4.71,3.46,1.26-1.57.94.31,1.26,1.57-.94,1.89-1.26-.31-.94-1.26Zm-3.46-13.51-1.57-1.57-1.26-.31-.63-.94.63-2.2-.31-1.57,1.89-3.14,1.26-.31,6.28,4.09.31,1.26-1.57,1.89.63,2.51-.94,1.57h-1.26l-2.83,2.83-1.26-.31L257,77.86l.63-2.2Zm5.66,61.28-1.26-.31v-.63l1.26.31Zm-3.14,16,.63-1.57.94.63-.31.94Zm-1.26-43.37v-1.57h1.26l.31,1.26-.94.31ZM255.71,12.5h1.57l1.89,1.57-.31.63h-1.57l-1.57-1.57Zm-1.26,45.57.31-2.51.63-.94,1.26-.31.94.94L257,57.75,256,59l-.94-.63ZM253.2,81.95l.94.63.31,2.51-.94,2.2h-.94l-.63-.94.94-4.09Zm.31,43.37-1.26-.31-.63-1.57.63-.31,1.26.63.31,1.26Zm.31-18.86h-.94l.94-.31Zm-6.6-51.54,2.83-.31,3.46-2.2-.31,2.2-2.2.94-3.14-.63Zm1.57,47.14.63-2.2,2.51.63.31.63-.63.94-2.2.31Zm-3.14-41.8-2.51.94-.94.94-1.26-.63-3.14,1.26-1.89-2.83V58.69l.94-1.26,1.26.31.63.94,1.26-.31.94-2.2,2.2-.94h3.46l3.77,6.29v.94l-1.26.31-2.83-2.2ZM246.6,109v-1.26l1.89-2.2h1.26V108l-.94.94-1.57.31Zm0-26.08L245.34,81l-1.89.63L240,77.23l.63-.94,2.2-.31,6.28,3.46.63,1.57-1.89,1.89ZM246,115.26l.31-2.2,1.57-.94,1.26.63v1.57l-.94.94-1.57.31Zm2.51-66-.31,1.26-1.89,1.26-3.14.94-1.26-2.51L245,48.64l2.83.31Zm-4.71,55v-1.57H246l-1.57,1.89Zm1.89,7.86-1.57-.31.31-.63,1.26.31Zm-1.57-18.54-.31-1.26L245,92l.31.94-.63.63Zm-1.26-58.45,1.26.31v-.63l-1.26-.31Zm.31,37.4-2.2-.63.63-.94,1.57.94ZM234,20.35v-2.2l-2.2-2.83-.94-3.77.31-1.26.94-.63,8.17,3.77.31.94-3.77,2.83-.31,2.51-.63.94h-1.26Zm4.09,33.31-.63,1.57L235.28,54l1.26-1.57,1.26.63ZM235,70.32l.63-.63,1.89,1.57-.94.94h-.94L235,70.95Zm-.31,9.43.63-.94h.94l.31,1.57H235Zm.94,10.69-1.26,2.51,1.57,4.71-.94.94L233.08,98l-.94-1.57-.63-4.09.63-1.26,2.83-.94ZM232.14,25.7v-.63l-2.2-.94-.31-.63.63-1.26L232.14,21h1.57l.31,1.26-1.26,2.83L234.34,27l-.63,3.14-2.83-.63.94-3.14Zm-2.83,81.39.31-1.26,1.57-.94.31.63-.63,1.26-.94.31Zm-2.83-9.74,2.2-2.83,1.26-.31.63,1.26-.31,1.26-2.2,1.89-.94-.63Zm2.83-64.42-2.2-.63.31-1.57,1.26.31.63.94Zm-5.66-17-2.83,1.89L218,15.64l.63-.94,9.74-.94.94,1.26-1.26,2.2-1.26.31Zm2.83,74.17V88.55h.94l.63,1.57Zm1.57-52.48H226.8l.31-1.26.94.63Zm-1.57,44.63.94-.31.31.63-1.26.31Zm-2.83-4.71.94.31,2.2-.63.63.31-.31,1.26-1.89,1.26L224,79.75l-.31-1.57Zm3.14-20.74-1.89-.63V54.61l.94-.31,1.57.63-.31,1.57Zm-2.51,57.82.94-.63,1.26.31.31,1.26-.94.63-1.57-.94ZM223,48l1.57-.63,1.26,1.89-.63,1.26L224,50.21l-.63-1.57Zm-6.6,22.31.94-.63,4.71-.94L222.4,70l-1.89,4.09L218.94,76l-1.89-1.57-.94-3.46Zm4.09,66.31-.94-.63.31-.63.94.94ZM218,102.06v-.63l1.57-.94,1.26.31-.31,1.57h-2.2Zm-.63-15.4,1.57.63.31.94L218,89.49l-1.26-.63V87Zm-1.89-45.57V39.52l2.83.31L218,41.09l-1.89.31Zm-5-26.08.63-.94,1.57.63,2.51-.63,1.26.94-1.89,3.46-1.89-.31-1.89-2.51ZM213,66.23l1.26-1.89.94.31.31,1.26-.63,1.26h-.94l-.31-.63Zm-5.34-17.6,1.57-1.89,1.89.63,1.26,2.2-.94.31L208.26,49ZM212,32.92h-.94l-3.77-3.77,1.89-1.57,2.2.63.94,4.09Zm-5.66,37.4,1.26-4.71.94-.31,3.14,5,.31,1.89-.94.31-4.4-1.57Zm3.14-46.2,1.26-.31.94.63v.63l-1.89.63-.31-.94Zm-5.66,15.4,5.66-1.26.63,3.14.94,1.57-1.26.94-1.26-1.26-3.77-1.26-.94-.94Zm5,44.94-1.26-2.2,1.26-2.2h1.26l.63.94-.31,2.2-.94.94ZM207,87.29l.63-2.83L210.14,87l-.94,1.57-1.89-.63ZM204.8,21l.63-3.14,1.26-1.57,1.26.31.94,1.57-2.51,4.09-1.26-.63Zm1.26,112.51.94.31-.31,1.26-1.26.31V133.8Zm-.31-78.25-1.57-1.57-.31-1.26,1.89-1.57.94.63.31,2.2-.63.94Zm-.63-21.37,1.89.94-.31,1.57-.94.31-.94-.63-.31-1.57ZM203.86,75l1.26-.63,1.57.63-.63,1.26-.94.31-.94-.94Zm-5,26.71-1.26-.63L196,99.23h-1.26L193.49,98l.63-1.26,4.09,1.89L201,96.72l1.26.31,1.57,1.89,2.2,1.26v.94l-.94.94h-1.26l-2.2-1.26-2.2.94ZM201,42.67l1.26-.63.94.31,2.2,3.46-1.89,1.26-1.26-.63L201,43Zm-5.66-24.51.94-.63-.63-1.89.63-.94,5.34-.31,1.57.94-.31,1.26-1.57,1.89-2.51,6.91-2.2-1.26.63-1.26-.31-2.51L196,18.47Zm3.77,50.91h3.46l.31.94-1.57,2.2-2.51-.31-.94-.94V69.69Zm-.31-34.88,1.26.31,1.26,1.26L201,37l-2.2-.94-.31-1.26Zm-.63,50.28-.31-1.57.94-.94,1.57,1.26-2.2,1.89V87.6l-1.26.63-1.57-1.89,1.89-1.89Zm-5.66-37.08.63-1.26h1.26l.63.63h1.26L197.57,48l-.63.94-2.83.31L192.86,48Zm1.26-6.29.31-1.89.94-1.26h1.89l.31.63L196,40.78l-1.57.63Zm1.26,49.34.94.63-.94,2.51-1.89-.94v-.94l.94-.94ZM194.12,81h-1.26l-.94-1.89-.94-.63-2.83,2.2-.94-1.89.94-1.89-.63-2.51-2.2-.94-1.57-2.2.63-.94,2.2-.31,1.57-2.2L191,66.23l.63-2.51.94-.63,1.26.63-1.26,4.71v2.2l-2.2.31v2.51l2.83,2.2,1.26,4.71Zm-11-49.34L185,28.52,184.06,26l.63-1.57-1.89-1.57L182.49,21l1.57-.31.31-.94-1.89-1.26L180,19.1v-.63l2.2-1.26,3.14-.63V14.07h6L191,15.32l-2.51.63-.63.94.31,6.29,1.89.94.31,1.26-4.4,2.83,2.83,1.57,2.51-.94,1.89.63.31-.31.94.63V31l-1.57,1.89-6.6,1.57L183.43,32Zm11,27.66-.31-.63h.31Zm-1.89,46.83-2.51-.94-1.57-1.26-.63-1.57.63-2.83.94-.31.94.63.63,2.2,2.83,2.51-.94.94Zm.94,6h-.63v-1.26h.63Zm-3.46-73.22-1.26-.31,1.26-.63Zm-8.17.94.94-.63,4.71,1.89L188.77,43v.94h-4.4l-2.83-3.46Zm4.09,72.28,1.26-.94.94.63-.63,1.57-1.26-.94ZM178.4,89.8l.31-3.77,1.26.31,1.57,1.57,2.51-.63,2.2.94-.31.63,1.57,1.26-1.57.94.94.94-.63.94.31,1.26-.94.63-4.4-1.89-1.26.63-.31,2.83-1.57.94-1.57-1.57-.31-1.57,1.57-3.46v-.63Zm5-27,.63-.94,1.57.63L185,63.72h-.94l-.31-.63Zm.63,44.94v-1.26h1.26v.94l-.63.31Zm-7.23-57.51.94-.63,2.2.94,4.09-3.46L185,48l-2.51,2.83-1.89-.31-.94.94H178.4l-.31.63-1.26-1.26Zm2.83,68.2-1.57-.63,1.26-4.09h2.51v1.26L180,116.2l-.31,1.57ZM181.23,38,180,37.64l.31-1.26h.94l.31.94Zm-4.4,3.77.94-2.51H179l1.26,1.89-2.2,1.26Zm3.46-26.4H178.4V14.07h1.89Zm-3.14,42.43.31-1.26H179v1.26l-1.26.31ZM166.46,91.06l-3.14,1.26-1.57-2.83,1.89-.94,1.89,1.26L168.35,87l.31-1.26-3.14-3.46L163.95,81l-1.26-3.46,1.57-2.2,4.4.31,3.14,1.89,2.83-2.2,1.89.94,1.26,4.4-.94.63v.63l-2.51.31-1.89,2.83-2.51,2.2.63,1.26,1.89,1.57v3.14l-1.26,1.89-2.51-.94-1.89-2.83Zm8.8,19.48-1.26-.31v-.63l1.26.31Zm-3.77,13.2,1.89-1.89,1.57,1.57-1.26,1.26-1.89-.31Zm.94-59.08v-2.2l.63-.31,1.26,1.26-.94,1.26Zm.31-12.26.94.94-2.51,4.09h-.63l.94-4.09Zm-1.57-15.71.94-.94,1.26.31-.31,1.57-.94.31-.63-.63Zm-.94,8.8.94-.94,1.57,1.26-.94,1.57-1.57-1.26ZM169,124.69h2.2l-.63,3.77-.94.63-.94-.63v-3.14Zm1.57-67.25-.31.63-.31-.94Zm-2.83,52.8,1.57-.31-.94.63.94,3.14-.63,1.26h-1.89l.31-2.83.94-1.26Zm-13.51-2.51.63-2.51,1.89-1.26,1.89-7.86.94-.94,1.89.63,2.51-1.26.63.94-.31,1.26-3.14,1.89-.63,2.51,1.26,2.51-.31.94-4.09.31-1.89,2.83Zm7.54-93.34.31-1.26,1.89-.63v1.57l-1.26.94-.63-.31Zm-1.26,55.94-.63-.94.94-2.51V65.29l.94-1.57,1.57.94-1.26,3.46.31.63-.63,1.57Zm-2.2-29.54.31-1.26L160.18,38h1.57l.63.63v1.26L161.12,42h-1.26l-1.26-.94Zm-2.83-15.4h1.89l-.31.94L155.78,26Zm-.63,71.34.63-.31.31.94Zm-2.51-63.17h-1.26l-.94-2.83,1.26-1.26,2.2-.31.63.63-1.89,3.14Zm-1.89,20.11h-1.26v-.94l-1.57-1.26v-2.2l.63-1.26,1.89-.63,1.89.94,1.89,2.2-.31.94Zm-.31-41.17h1.26l1.89,1.57.63,1.26-.31,1.26h-1.89L150.12,15l-.31-1.89ZM147,72.83,149.49,70l.94.94.31,2.2-.63.94-1.26.31-1.57-.94ZM136.92,23.18l.63-1.89,1.57.31L141,23.18l.63,2.51h1.26l1.57-1.89,1.89.63.63.94,2.2.94v1.26l-2.83,3.14h-4.09l-6.6-1.57-1.26-1.57.31-2.2,1.57-1.89Zm8.49,20.74.31-1.26,1.57-1.26,1.26.94L147,44.87l-1.26-.63Zm.31,54.37-.63-.31.31-.94.63.31-.31.63Zm-1.26-75.11-1.57-1.89.94-.94,1.57.63-.94,1.57Zm-5.66,79.51,1.26-2.51,1.57.94-1.26,2.51-.94-.63Zm-5-15.08.31-1.26,2.51-2.2,1.26.94.31.94-1.89,1.57Zm3.14,33.63h-.63l.31-1.26h.63l-.31.63ZM132.83,21l-.31.31.31-.94Zm-4.09,0,.63-1.26,2.83.63V21l-.94.63-1.89-.31Zm-1.57,74.17.31-2.2,1.26-1.89,1.89-.31.94,2.51-.31.94-1.89,1.57-1.57-.31Zm4.09-25.77h-.63l-.31-1.26h.94Zm-6.91-39.91,1.57,2.2.94.31.94-.63,1.26-2.51.94.63.63,3.77-.94.94H125l-2.2-.63v-.63l-.63-.31.94-2.83Zm0,72.28.31-.63,1.57.31.63.94-.63,1.26H125l-.63-1.26Zm1.89-55.94-.94-.31V43.92l1.26.31v1.26Zm-6.29-2.2.94-3.46-.63-2.51L119,36.07l.31-.63,4.08.63,2.2,2.2-.31.94-2.2.31-.94,1.57.63,2.51-.94.63-1.26-.31Zm2.83-19.8.31-1.26.94-.63,1.26.94-.63.94-1.26.31ZM122.15,114v-2.51l1.57-.94.31,1.26-.63,2.2Zm-.31-80.14-.31-1.57v.31h.63ZM120.89,31l.63,1.26-.63-.63Zm-3.46-10.68,2.2-.63L120.89,21l-.94,1.57L117.75,21Zm1.26,3.77-.31.94L115.86,27l-1.26-.63v-2.2l3.77-.31ZM115.55,32l-.63.31-1.26-1.57.31-1.26,1.57-.63.63.94-.31,1.89ZM114,63.09l.63-.63,1.26.63-.63,1.26L114,64Zm-3.77-8.8.31-1.26,4.71-2.2v.94l-2.51,3.14h-1.89ZM112.09,86l.94.31.31,1.57h-1.26l-.31-1.57Zm0-4.09-.94-4.09,2.2,1.26v2.83Zm-2.2-66.31V14.38l1.26-1.89,1.26-.63.94.94-.94,2.51-.94.94L110.21,16Zm2.2,9.11-.94-.63.31-1.57,1.57.63-.63.94ZM108.64,147l2.51-.31.94.63v1.26l-1.26.31-2.2-.63Zm1.89-113.76-.63-.63V31.35l1.26-.31.31.63-.63.94Zm-2.83,58.14-.31-.31,1.57-2.2,1.26.31-.31,1.26-1.89.31Zm1.89-33.31-.31,1.26-2.2.63-1.89-.63-.94-1.26.31-.94,2.2-.94,2.51,1.26Zm-.63-23.57-.63-.31.63-1.57.63.94-.31.63Zm-3.77,76.37v-1.57h2.51l.31,1.26-2.2.31Zm-1.89-28.6.31-1.57,2.2-2.83h.63l.94,1.57-.31,1.26-2.83,1.89-.31-.31Zm0-46.51.31-1.26.94-.63,2.51-.31.31.94-.63.94-2.83.63Zm3.77,59.4-1.57-.31V94.2l-4.08-1.89-1.57.31-2.2-.94L97,90.75,98,88.86l2.51-.94.94-1.89h1.26l1.57,1.57L103,89.49v1.26l3.14.31.94,3.46ZM97.32,78.81l.94-1.26.63.31,1.57-1.57.31-1.26,1.26-.94h1.57l.94-1.57.63.94L103.61,75l-1.26,2.51-2.2.63-.94,1.26H98Zm5,20.43V98l1.26.31.63.94Zm-2.2-33.94-.94-4.4,1.89-1.57,1.26.31.63,1.26v2.51l-1.89,1.89Zm0-10.69-.94-5,.94-.94h1.26l.94.94.31,2.51-.94,2.2-.94.31Zm-4.4,18.23.94-.63-.63-2.83,5.34-2.2.94.94L101.09,70l-4.71,3.14Zm5.34-49.65-1.57-1.26.63-1.26-.94-1.57L96.07,21l-1.57-1.26.31-2.51.63-.94h1.89l2.83-1.89.31,2.51,1.26,1.89-.63,1.57.63,1.26-.31.94Zm0,62.22-1.26-.31-.31-1.26h1.89l-.31.94ZM98.89,103l.94.63.94,5-2.2,1.26-1.89-1.57v-3.46L98.58,103Zm1.57,12.26H99.21l-.31-.94-2.2.63-.94-1.89,1.26-.63L98.58,114h1.89ZM94.81,29.78l1.57-2.51,1.89-.63,1.89.31v.63l-3.77,2.83H95.12ZM96.07,10.3h1.26v1.26l-3.46,3.77-3.14-.94.63-2.2ZM91,41.72l4.71,1.89.94,1.57-1.57,1.57-3.46-1.26-2.2-1.89L90.72,42ZM92,33.87l.63-.94,1.89-.63,1.26.31-1.26,2.2-1.26.31-.94-.63Zm-.63,61.91.31-1.89,1.26-.31.63.63-.63,2.2-1.26-.31Zm0,17.28-.94-2.51,1.89-.94.63.94L92,113.06Zm1.26-88.31-.94-2.51H92l.94.63v1.26Zm-2.83,93-.94-2.2.63-1.26,1.57-.94,1.57,2.2-.94,1.89-1.26.31Zm1.89-95.54-.63.63.31-1.26ZM89.15,128.14l-.63-.94.31-1.26.63-.31L91,127.52l-.94.63Zm.63-113.76h.94L90.09,16l-.63-1.89ZM87,27.58l.31-5,1.26,3.77.94.63-.31.94H87.27Zm.94,44.94,1.26.31v.94l-1.26-.63ZM81.61,17.84l.94-2.2,2.2-2.51V9.67L86,10l1.89,3.14v1.26l-2.83,2.2-.63,1.89-1.57.63ZM64,48l-3.77.63L59.3,48l.94-4.4L58.67,42H57.1L53,39.52l-1.26,1.57,2.51,3.14-.94.94L50.18,43l-1.89.31-.94-.94-.63-2.51-1.57-2.2,1.26-2.2.94-.31L48,32.61,46.1,28.84,47.35,27l4.4-2.2L54.27,27l.94-1.89-1.89-2.51L52.38,20l-2.83,1.57L48,23.81H46.73l-2.2-3.14-2.2-.31-3.14-3.77V12.5l1.89-.63,9.74.63,10.06.94h1.89l1.89,1.26-2.2,4.09,5.34,3.77,4.09,2.83v1.26l3.46,1.26,3.14,2.2.94-.31.94-2.2V26l2.51-1.26,2.51,3.14-.94,2.51L87,32.61l-.31,1.26.63,2.51L85.38,38,81.3,39.52l-.63-.31v-.94l2.2-4.09L81,32.61l-1.26-.31-3.14,1.57-1.26-1.26L75,31l-.94-.94L71.55,31l-1.26,2.2,1.26,2.83-.31,1.26L70.3,38,69,37.64l-3.46-2.51-.94.94v2.2l-1.89.63-1.57,2.2,2.2,1.26,3.77-1.26,2.2,1.26,2.51-.94,3.46,1.26.63.94-.31,1.26h-4.4l-1.89-.63-2.83.31-.31,1.26h1.26L69,47.06l1.26,2.51-.94,1.26-2.51.31-2.51-2.83Zm21.06,84.54L84.12,131l1.57-.31-.31,1.57Zm-4.4-82.65L81.92,49l2.51.94.94.94-.63,2.51-1.26.94L81.92,53l-1.26-2.51Zm.31,6.6,1.26-.31,1.89.63.31.94-.63,1.89L81,57.75Zm-4.4,38.34,2.2-2.2,2.51.31-2.51,2.2H77.21ZM73.44,64.66l.63-1.26,3.46-2.83h1.26L80,65l-1.26.63-4.71-.31Zm.94,7.23.94-.94,1.26.31,1.89,6-.63,4.09.94,2.51-.31.94H76l-.63-.94.31-2.51-1.26-4.4L75,75.66l-.63-3.14ZM65.9,14.7V13.44l8.48-.63H76.9l1.57,1.57-.31,2.51L76.9,19.1l-2.51.63-1.57,2.2-1.89-.63-2.51-4.71ZM75.64,49l.94.63.94,4.09-.31.94-1.89.94L73.75,53l1.57-3.77ZM70.3,57.44l1.89-1.26,2.2.63v1.89l-1.26.63L71.55,59v-.63l-.94-.31ZM68.1,91.69l2.2-1.26.63-.94,1.26-.31.63.94-.31,2.51-1.57,1.26-2.51-.94-.31-.63ZM63.7,65.92l2.2-5,4.71-.31.94.63-1.57,5H64.32Zm.94,17,.63-.63,2.83-.31.63,1.57-2.2.94L65,83.52Zm-3.46,70.4.94-2.51.94-.31L67.15,152l.63.94-.63.94-5,.31-.31-.63ZM62.44,53l.31-.63H64l1.57,1.26L65,54.92l-.94.31-1.57-1.57ZM55.21,72.52l-.63-1.57.94-1.26,3.77.94.63-.31.63.63L60.24,75l1.26-.31,1.26-2.51H64L65,74.09l-.31,2.51-2.51,2.83-2.2-.31-4.09-2.51L54,74.72l.63-1.89Zm2.2,22.31L58.67,97l-1.26,2.2-.31,2.2L55.53,103h-.94l-.31-.94,1.89-6.91.63-.31Zm.31-28.28H57.1l.31-1.26.31.63Zm-4.09,62.54-.31-3.46,1.26-1.57,1.26.63.31,2.2-.94,2.2ZM50.5,110.23l1.26-.31,1.26.63-.31,1.26-1.26.31-.94-.63Zm0-18.54V90.12l-1.26-1.57V87l.63-.63,2.2.94-.31,5Zm-5.66-7.23.31-2.51,2.51-3.77H50.5l.94,1.26-1.26,1.89L46.1,85.09Zm6-67.57-.31.63.94.94V17.21Zm-6.29,86.42.31-.94,1.26-.31v1.89l-1.26-.31Zm-23.88-17,.94-1.26,1.26.31,1.57-1.89.31-1.26-1.26-4.4-.94-.94-3.14-1.26-.31-1.26,2.51-1.26L21,65.29l2.2-1.89h2.2l4.71-2.2,5.34-.31L37,57.75H39.5l1.57,1.89-.31.94-3.14.31v1.26l.94,1.57L37.3,65.61l-2.51-.31-1.57,1.57V70l-1.89.94-.63.94.63,1.26,2.51.94L35.41,76h2.51l2.2-1.57.31-1.26-.63-2.51.94-.94L43,70.95,44.84,75,43,78.18H38.24l-3.46,1.26-.63.94-3.77,2.2v.94l-1.26,1.57.94,2.83-2.51,2.51-4.4-1.57L20.64,87Zm19.8-48.08h-.63V37h.63Zm-9.11,8.49-1.57-1.26-1.89,1.26-.94,3.14-1.26.31-1.89-.94-1.57-1.89.94-.94,3.14-1.26.31-1.26,1.57-1.57h4.4l2.2,1.26L36,45.81l1.57,1.26L37,49l-2.2.63V53l-1.57,1.57L30.7,54l-.94-2.2,1.57-4.4ZM37,114.95l-.63,1.26-2.51.31-1.57-1.57.31-1.26.94-.63,3.14,1.26ZM26.3,27.58l.31-1.26,2.51-2.51,2.51-.63,4.4,2.2.31,1.26-.94.94L32.58,26l-2.2,3.14-2.83-.31-.94-.63Zm8.8,4.09L36,33.24v2.2l-1.26.94-1.57-1.57.31-2.2.94-.63ZM31.33,99.55l.94-2.2-.94-3.14,2.2-.94,1.26.63.94,3.77-2.51,2.83ZM32,133.8H30.38v-.63l1.57.31Zm-2.83-23.26.63-.94,1.57-.31-.94,1.89Zm-1.57-9.74,1.57-2.2,1.57,1.26-1.57,1.89-.94-.63ZM24.41,33.55l.63-.94,2.2.31.94.94-.31,1.26L26,35.75l-1.57-1.57Zm.31,70.08,1.26-.31,1.26,1.26L26,105.83l-1.26-1.26Zm-3.14-50H21v-.94l.63.31Zm-5.34-19.8-.31-.63,2.2-2.2L21,34.18v1.26l-4.4-1.26Zm1.89,18.23-.94-.63-.31-1.26,1.26-.63.63,1.26ZM18.44,15l-1.26-.63.63-1.26.94.63v.63ZM16.87,58.38l1.57,1.89-.63,1.89h-2.2V59.64Zm-3.14,52.17,1.26-.31,2.2,1.57.63,1.57-1.26.31-1.26-.63-1.57-1.89Zm0-80.77-.63-2.2L15,25.7l1.26-.31.94,1.26-.94,1.89-1.57,1.26Zm-.63,3.46L12.16,32l-.94,2.83L8.07,37v2.2L11.21,43l1.57.31L15,41.72,16.56,43l.31,2.51L16.24,48l-5,3.14-.94-.94L10.9,48,9.33,44.87l-1.57-.63L6.19,42.35V41.09L4.93,38.58l.31-.94,1.57-1.26V34.81L8.7,32,5.24,27.27,4.93,26,4,25.7l-.63-1.57,1.26.31.31,1.26,2.2.63,5.66,6Zm2.2,47.45L15,81.95l-2.2,1.57-1.57-.63V81.63l2.2-1.57,1.26.31Zm-3.14,45.57,1.26-1.89,1.57-.31v2.2l-.94.94-1.57-.31ZM15,90.75l-1.26-.63.94-.63.31.31ZM6.5,68.43l-1.26.31L3.36,70.32l-2.83-5v-.94l.94-.94,3.46.31,2.2-1.26h2.2l.94-1.89V58.06l1.89-1.57.94.63.31,1.26-.63,2.2.31,2.51,1.57,2.2-1.26,2.51-.31,2.83-1.89.94H10l-1.89-.94-.94-1.57Zm6.6-47.77.63.63-1.26,4.09H10.59l-.31-1.26.63-2.2,1.57-1.26Zm-2.2,17.6.94-.31.63.94-.31.94-1.26-.63ZM3.67,17.21l.94-.31.31-1.57L5.87,15l.31-.94,4.09-.94,1.89.31-4.4,4.09L6.5,17.21l-.94.63L4.3,17.52Zm3.77,50,.94.63,1.89-.31-.94-1.89V64H8.7L6.81,66.55v.94ZM2.1,52.72,2.73,49,4,51.15l2.2-.31v1.57L4,54l-1.26-.31L2.41,53Z"/></svg>