<svg xmlns="http://www.w3.org/2000/svg" viewBox="0 0 354.34 287.06"><defs><style>.cls-1{fill:#382e2b;opacity:0.5;}</style></defs><title>contacts-decor-1</title><g id="Layer_2" data-name="Layer 2"><g id="Layer_1-2" data-name="Layer 1"><path class="cls-1" d="M0,246.33v-2.75l1.1,1.65L.55,248ZM1.1,274.4H2.2L3.3,276l-.55,2.2L0,279.35l.55-3.85Zm1.1-9.91,3.85,1.1L3.3,272.2l-1.65-3.3.55-3.3Zm11-9.91,3.3,2.2v1.65l-1.65,1.65-3.85.55v-3.85Zm7.71,17.61-.55,2.2-1.65,1.1L11,274.4l1.1-1.1,7.16-1.65Zm-3.85-20.37v-5l1.65,1.1,3.3-2.2,5,3.85h8.81l-3.85,7.71,1.65,3.3-.55.55-7.16-5.5-1.65.55-1.65-1.1-1.65-3.3-2.75,1.1Zm2.75-88.62-1.1-.55,1.65.55.55,2.75-1.1.55Zm11-5-1.65,1.1h-5l-1.65-1.1-.55-2.2,1.1-1.65L27,153.3v-1.1l3.3.55.55,4.4Zm-7.16,16.51H27V177l6.6,1.65-1.65,6.06H29.17l-4.4-5h-1.1Zm0,91.92.55-1.1,2.75,1.1-.55,1.1-1.65-.55ZM87,178.62l2.75-2.75h1.1l1.1,4.4-5,1.65v2.75l-2.2,1.65v1.1l5,2.75,2.2-.55v-1.1l2.2.55,3.3,2.75,2.2.55L98,196.24l1.65,3.85H104l1.65-1.65-2.75-2.75h-1.1l-1.1-3.3,1.1-3.85-2.2-3.85v-2.75l2.2,1.65,1.65-.55,3.3-5.5-1.65-1.65-8.26-2.2,1.65-3.85,9.91-1.1V177l6.05-.55,2.2-1.1,2.75-3.3,6.06-1.1,2.75-2.2,1.1,1.1-.55,2.2-5.5,2.75v2.75l2.2,3.3,6.05-2.2.55-3.85,6.06,2.2,1.65,1.65.55,3.3-4.4.55-1.65,1.1,1.1,1.65v8.26l-3.3,2.2h-2.75v-2.75l-3.3-2.75-.55-1.65-2.2,3.3-1.1,4.4-1.65,1.65-3.85-3.3-1.65,1.1-.55-1.1-1.65.55-1.1,2.2v5l-3.3.55-1.65,1.65-.55,5.5-3.3,3.3-.55,8.26L99.63,226h2.75l4.4-1.65v2.75l1.1,1.65,2.75,1.1-6.05,8.26,3.3,7.71v4.4l-2.75,3.3-.55,2.2,2.2-.55.55-1.65,2.75-2.2,1.65.55v3.3l-1.1,1.1h-4.4l-.55,2.2,1.1,1.65,5,2.2V265l-5,4.4v1.1l-1.1-1.1h-5l.55-1.1,1.65.55-1.1-2.2-2.2.55L98,271.1l-2.2,2.2-7.16-4.4-2.75-2.75L82,264.49H79.26L82,261.74v-2.2h-2.2l-1.65,3.85-3.3-1.65-.55-2.2-3.85,1.65-1.1,4.4L65.5,265l-1.1-3.3,2.2,1.1,2.75-1.1-1.65-5.5.55-1.65-7.71,2.75L59.45,259v2.75l-4.4.55-.55,1.1-6.05-6.05-1.1-2.75H44.59l-1.1,1.1-2.75-2.75-1.1-3.85,2.75-11-6.61-2.2-.55-1.65L38,231.46l.55-5,2.2-2.75v-4.4l5-1.1-.55-1.65-6.05-1.1-.55-1.1-2.2.55L33,217.7l-2.2.55V215.5l1.1-1.65,3.85-1.65,1.1-2.75h8.81v-2.2h-2.2l-2.75-5-5,3.3H31.93v-5l1.65-2.75,5-.55,2.2,2.75,1.65.55-1.1-3.3-2.75-2.2v-1.65l3.85-3.3,2.2-.55,2.2-14.86L45.69,172l2.75-2.2,5,2.2,1.1-1.1v-3.85l2.75-.55,1.1-1.65L62.2,166l-1.1,1.65,1.1,1.65,3.85.55,1.1,6.06L65.5,177l-5-2.2L58.9,177l.55,2.75,8.81,1.1,1.1,3.85,3.3-2.2,1.65-6.61,2.75-2.75V172h2.75l3.85,9.36,3.3.55-1.65-2.75Zm-55-15.41,3.85.55v3.3l-3.85-2.2ZM42.38,150l1.1,1.65,2.2.55-1.1,2.2.55,6.05-5.5.55-1.1-2.2V155l3.3-4.4Zm0,108.44h.55l-1.1,6.05-1.1-3.3-1.1-.55,2.2-1.1Zm2.2-8.81,3.3-2.2,1.65-5.5H46.79l-3.3-2.2,1.1,8.26Zm6.05-44-1.1-1.1-3.85,2.75Zm2.75-45.69-.55,2.2-1.65,1.1-1.65-.55-1.1-2.75,1.65-1.1,1.65,1.1Zm3.85,99.63-.55-1.1,1.65-4.4-2.75-.55.55,5.5Zm9.91-68.8-.55-2.2L65,187.43l1.65,3.85Zm-1.1-25.87h2.2v2.2h-2.2Zm5,82,5,1.1-.55-2.2-1.65-1.1L71,245.78Zm7.16-44.59-.55-4.4-3.3-.55,2.2,5Zm1.1,44.59,2.75-.55,1.1-3.85L82,240.82h-1.1l-1.65,4.4Zm0,19.82h5.5v5.5H82l-1.65-1.1-1.1-3.3ZM82,278.25l4.4.55.55,3.3-3.85-1.65L82,282.1Zm11-55-.55-3.85-1.65-1.1,1.1,5Zm5,42.38,1.65-5L93,259.54l1.1,4.4,2.75,1.65Zm-3.3-23.67,2.2-.55,1.1-1.65h-2.2l-1.1,1.1ZM98,277.15l1.1-1.1,5.5,3.3-.55,1.1h-1.65l-3.3-3.3Zm11.56-73.76,2.75,1.65v9.36l-1.65,3.85-4.4-1.1-.55-2.2,5-5.5-2.2-5Zm5,73.76h1.1v2.2l6.06,2.2v2.75l-8.26,2.75-1.65-2.2v-2.2l2.75-4.4Zm8.81-86.42-3.3-9.91-4.4-1.1v5l-2.2,6.05,2.2,2.75,4.4-.55,2.75-1.65Zm-1.65-33.58,1.65,1.1L121.65,161h-2.2l2.2-2.75Zm3.85,30.27,7.71,1.1-2.75-6.05-2.2-.55V183l-2.75,2.75Z"/><path class="cls-1" d="M214,96.33V93.57l1.1,1.65L214.53,98Zm1.1,28.07h1.1l1.1,1.65-.55,2.2-2.75,1.1.55-3.85Zm1.1-9.91,3.85,1.1-2.75,6.6-1.65-3.3.55-3.3Zm11-9.91,3.3,2.2v1.65l-1.65,1.65-3.85.55v-3.85Zm7.71,17.61-.55,2.2-1.65,1.1L225,124.4l1.1-1.1,7.16-1.65ZM231,101.83v-5l1.65,1.1,3.3-2.2,5,3.85h8.81l-3.85,7.71,1.65,3.3-.55.55-7.16-5.5-1.65.55-1.65-1.1-1.65-3.3-2.75,1.1Zm2.75-88.62-1.1-.55,1.65.55.55,2.75-1.1.55Zm11-5-1.65,1.1h-5l-1.65-1.1L236,6.05l1.1-1.65,3.85-1.1V2.2l3.3.55.55,4.4Zm-7.16,16.51h3.3V27l6.6,1.65-1.65,6.06h-2.75l-4.4-5h-1.1Zm0,91.92.55-1.1,2.75,1.1-.55,1.1-1.65-.55Zm63.3-88.07,2.75-2.75h1.1l1.1,4.4-5,1.65v2.75l-2.2,1.65v1.1l5,2.75,2.2-.55v-1.1l2.2.55,3.3,2.75,2.2.55L312,46.24l1.65,3.85H318l1.65-1.65-2.75-2.75h-1.1l-1.1-3.3,1.1-3.85-2.2-3.85V31.93l2.2,1.65,1.65-.55,3.3-5.5-1.65-1.65-8.26-2.2,1.65-3.85,9.91-1.1V27l6.05-.55,2.2-1.1,2.75-3.3,6.06-1.1,2.75-2.2,1.1,1.1-.55,2.2-5.5,2.75v2.75l2.2,3.3,6.05-2.2.55-3.85,6.06,2.2,1.65,1.65.55,3.3-4.4.55-1.65,1.1,1.1,1.65v8.26l-3.3,2.2h-2.75V42.93L340,40.18l-.55-1.65-2.2,3.3-1.1,4.4-1.65,1.65-3.85-3.3L329,45.69l-.55-1.1-1.65.55-1.1,2.2v5l-3.3.55-1.65,1.65-.55,5.5-3.3,3.3-.55,8.26L313.6,76h2.75l4.4-1.65v2.75l1.1,1.65,2.75,1.1-6.05,8.26,3.3,7.71v4.4l-2.75,3.3-.55,2.2,2.2-.55.55-1.65,2.75-2.2,1.65.55v3.3l-1.1,1.1h-4.4l-.55,2.2,1.1,1.65,5,2.2V115l-5,4.4v1.1l-1.1-1.1h-5l.55-1.1,1.65.55-1.1-2.2-2.2.55L312,121.1l-2.2,2.2-7.16-4.4-2.75-2.75L296,114.49h-2.75l2.75-2.75v-2.2h-2.2l-1.65,3.85-3.3-1.65-.55-2.2-3.85,1.65-1.1,4.4-3.85-.55-1.1-3.3,2.2,1.1,2.75-1.1-1.65-5.5.55-1.65-7.71,2.75-1.1,1.65v2.75l-4.4.55-.55,1.1-6.05-6.05-1.1-2.75h-2.75l-1.1,1.1-2.75-2.75-1.1-3.85,2.75-11-6.61-2.2-.55-1.65L252,81.46l.55-5,2.2-2.75v-4.4l5-1.1-.55-1.65-6.05-1.1-.55-1.1-2.2.55L247,67.7l-2.2.55V65.5l1.1-1.65,3.85-1.65,1.1-2.75h8.81v-2.2h-2.2l-2.75-5-5,3.3H245.9v-5l1.65-2.75,5-.55,2.2,2.75,1.65.55-1.1-3.3-2.75-2.2V43.48l3.85-3.3,2.2-.55,2.2-14.86L259.66,22l2.75-2.2,5,2.2,1.1-1.1V17.06l2.75-.55,1.1-1.65,3.85,1.1-1.1,1.65,1.1,1.65,3.85.55,1.1,6.06L279.48,27l-5-2.2L272.87,27l.55,2.75,8.81,1.1,1.1,3.85,3.3-2.2,1.65-6.61L291,23.12V22h2.75l3.85,9.36,3.3.55-1.65-2.75Zm-55-15.41,3.85.55v3.3l-3.85-2.2ZM256.36,0l1.1,1.65,2.2.55-1.1,2.2.55,6.05-5.5.55-1.1-2.2V5l3.3-4.4Zm0,108.44h.55l-1.1,6.05-1.1-3.3-1.1-.55,2.2-1.1Zm2.2-8.81,3.3-2.2,1.65-5.5h-2.75l-3.3-2.2,1.1,8.26Zm6.05-44-1.1-1.1-3.85,2.75Zm2.75-45.69-.55,2.2-1.65,1.1-1.65-.55-1.1-2.75,1.65-1.1,1.65,1.1Zm3.85,99.63-.55-1.1,1.65-4.4-2.75-.55.55,5.5Zm9.91-68.8-.55-2.2-1.65-1.1,1.65,3.85ZM280,14.86h2.2v2.2H280Zm5,82,5,1.1-.55-2.2-1.65-1.1L285,95.78Zm7.16-44.59-.55-4.4-3.3-.55,2.2,5Zm1.1,44.59,2.75-.55,1.1-3.85L296,90.82h-1.1l-1.65,4.4Zm0,19.82h5.5v5.5H296l-1.65-1.1-1.1-3.3ZM296,128.25l4.4.55.55,3.3-3.85-1.65L296,132.1Zm11-55-.55-3.85-1.65-1.1,1.1,5Zm5,42.38,1.65-5-6.61-1.1,1.1,4.4,2.75,1.65Zm-3.3-23.67,2.2-.55,1.1-1.65h-2.2l-1.1,1.1Zm3.3,35.23,1.1-1.1,5.5,3.3-.55,1.1h-1.65l-3.3-3.3Zm11.56-73.76L326.26,55V64.4l-1.65,3.85-4.4-1.1-.55-2.2,5-5.5-2.2-5Zm5,73.76h1.1v2.2l6.06,2.2v2.75l-8.26,2.75-1.65-2.2v-2.2l2.75-4.4Zm8.81-86.42L334,30.82l-4.4-1.1v5l-2.2,6.05,2.2,2.75,4.4-.55,2.75-1.65ZM335.62,7.16l1.65,1.1L335.62,11h-2.2l2.2-2.75Zm3.85,30.27,7.71,1.1-2.75-6.05-2.2-.55V33l-2.75,2.75Z"/></g></g></svg>