<svg xmlns="http://www.w3.org/2000/svg" viewBox="0 0 374.78 295.77"><defs><style>.cls-1{fill:#382e2b;opacity:0.5;}</style></defs><title>contacts-decor-2</title><g id="Layer_2" data-name="Layer 2"><g id="Layer_1-2" data-name="Layer 1"><path class="cls-1" d="M15.21,206l1.27-2.44.22,2-1.76,2.19Zm-12,25.42,1,.51.22,2-1.5,1.7L0,235.35l2.26-3.17Zm5.54-8.29,2.91,2.75-5.48,4.6.06-3.69,2-2.68Zm14.33-3.73,1.92,3.48-.76,1.47-2.23.71-3.67-1.29,1.77-3.42Zm-1.27,19.18-1.5,1.7-2,.22L12.05,236l1.48-.47,7.11,1.83Zm6-19.85,2.28-4.4,1,1.74,3.95-.43,2.62,5.7,7.82,4.06-7,5.07-.06,3.69-.74.24-3.82-8.18L32.14,226l-1-1.74.06-3.69-2.95-.29Zm43.26-77.4-.72-1,1.21,1.25-.78,2.7-1.23,0Zm12.05.67-2,.22L76.76,140l-1-1.74.53-2.21,1.74-1,3.93.8.51-1,2.68,2-1.54,4.16Zm-14,11.36,2.93,1.52-1,2,5.1,4.51L71.94,166l-2.44-1.27-1.63-6.43-1-.51ZM26.84,235l1-.72,1.94,2.24-1,.72L27.56,236Zm96.75-49,3.71-1.18,1,.51-1,4.42-5.16-.82-1.27,2.44-2.72.45-.51,1,3.13,4.72,2.21.53.51-1,1.7,1.5,1.66,4,1.7,1.5-3.24,2.66-.31,4.18,3.91,2,2.23-.7-1.18-3.71-1-.51.54-3.44,2.75-2.91L132,197.2l1.27-2.44,1.19,2.48,1.72.27,5.47-3.36-.71-2.23-6.31-5.76,3.24-2.66,9.3,3.59-3.8,7.33,5.63,2.3,2.46,0,4-1.66,5.88,1.81,3.46-.69.47,1.48-1.5,1.7-6.15-.09-1.27,2.44.43,3.95,6.39.83,2.26-3.17,4.36,4.74.71,2.23-1,3.18L165.3,212l-2,.22.22,2-3.8,7.33-3.94.43-2.44-1.27,1.27-2.44-1.66-4,.27-1.72-3.48,1.92-3,3.4-2.23.7-1.9-4.71-2,.22,0-1.23-1.72-.27L137,214l-2.28,4.4-3.19-1-2.23.71-3,4.63-4.45,1.41-4.29,7.08L113,233.84l2.44,1.27,4.67.56-1.27,2.44.22,2,1.94,2.24-9.18,4.54-.62,8.36-2,3.91-4,1.66-1.5,1.7,2.21.53,1.25-1.21,3.46-.69,1.21,1.25-1.52,2.93-1.48.47-3.91-2-1.5,1.7.22,2,3.38,4.24-1.27,2.44-6.43,1.63-.51,1-.47-1.48L94,272.95l1-.72,1.21,1.25,0-2.46L94,270.48l-3.24,2.66-3,.94-4.32-7.2-1.18-3.71-2.66-3.24-2.44-1.27,3.71-1.18,1-2-2-1-3.24,2.66-2.17-3,.53-2.21-4.18-.31-3,3.4-3.17-2.26.54-3.44,1.45,2,3,.29L70.74,246,72,244.8l-8.11-1.11-1.74,1-1.27,2.44-4.16-1.54-1,.72-2.59-8.16.29-3L51,233.9l-1.48.47-1.17-3.71.8-3.93,7.51-8.5-4.85-5,.27-1.72,3.71-1.18,2.77-4.14,3.22-1.43,2-3.91,4.9,1.3.27-1.72-4.87-3.77,0-1.23-2.21-.53-4.2.92-2.21-.53,1.27-2.44,1.74-1,4.18.31,2.24-1.94,7.82,4.06,1-2-2-1-.16-5.66-5.92.65-3.42-1.77,2.28-4.4,2.73-1.68L72,180.29l.69,3.46L73.87,185l.54-3.44L73,178.34l.76-1.47,4.94-1.16,2.21.53,8.8-12.18.29-2.95,3.46-.69,3.38,4.24,1.48-.47,1.77-3.42,2.7.78,1.74-1,2.91,2.75-1.74,1,.22,2,3.17,2.26-1.81,5.88-2,.22-3.38-4.24-2.48,1.19-.78,2.7,7.31,5-.8,3.93,3.95-.43,4.51-5.1,3.71-1.18.51-1,2.44,1.27-.89,10.08,2.68,2-.2-3.2ZM81.83,147,85,149.22l-1.52,2.93-2.41-3.73Zm15.37-6.91.22,2,1.7,1.5-2,1.45-2.3,5.63-5.14-2,0-2.46,1.77-3.42,5-2.39ZM47.25,236.3l.49.25L44,241.42l.54-3.44-.72-1,2.46,0Zm6-6.8,3.95-.43,4-4.13-2.44-1.27-1.92-3.47L54,228Zm25.65-36.3-.47-1.48-4.69.67Zm23.48-39.28-1.5,1.7-2,.22-1.21-1.25.29-2.95,2-.22,1,1.74ZM59.94,244.12l0-1.23,3.49-3.15L61.26,238l-2,5.14Zm40.48-56.51.53-2.21-1-1.74-.31,4.18Zm10.94-23.47,2,1-1,2-2-1ZM78,239.22l3.89,3.26.53-2.21-1-1.74-2.95-.29Zm26.88-36.28,1.54-4.16-2.68-2-.33,5.41ZM85.31,243l2.7.78,2.75-2.91-.22-2-1-.51-3.49,3.15Zm-9.13,17.59,4.89,2.53L78.54,268l-2.44-1.27-1-1.74.54-3.44Zm-2.88,11.53L77,274.66l-1,3.18-2.66-3.24-1.74,1Zm35.12-43.79,1.29-3.67-1-1.74-1.3,4.91Zm-15.12,39.9,3.75-3.64-5.36-4L90.65,265l1.68,2.73Zm8-22.53,2.21.53,1.74-1-2-1-1.48.47ZM88,278.52l1.48-.47,3.37,5.47-1,.72-1.47-.76L89,279Zm44.23-60.15,1.68,2.73-4.31,8.31-3.24,2.66-3.4-3,.53-2.21,6.93-2.61.33-5.41Zm-29.57,67.75,1,.51-1,2,4.36,4.74-1.27,2.44-8.6-1.36-.45-2.71,1-2,4.47-2.64Zm47.61-72.65,1.63-10.32-3.4-3-2.28,4.4-4.74,4.36.69,3.46,4.16,1.54,3.2-.2Zm14-30.57,1,1.74-2.73,1.68-2-1,3.22-1.43Zm-10.52,28.65,6.33,4.53.35-6.64-1.7-1.5-.51,1-3.71,1.18Z"/><path class="cls-1" d="M262.89.56l2.7-.56-1.4,1.41-2.81,0ZM235.62,7.3l.22,1.08-1.4,1.41-2.27-.09-1.63-2.47L234.43,7Zm9.93-.92-.3,4-7-1.36,2.9-2.28,3.35-.13Zm11.93,8.78L256,18.84l-1.62.33-2-1.28-1.32-3.66,3.77-.78Zm-15.7,11.1-2.27-.09-1.41-1.4L237.62,17l1.3.86L242,24.53Zm19.17-7.88,4.85-1-.75,1.84L267.87,22l-2.77,5.63,1.78,8.63L258.55,34l-2.9,2.28L255,35.9l3.95-8.12-.87-1.51.74-1.84,2.9-2.28-1.63-2.47ZM348.3,3.19,348.61,2l-.21,1.73-2.59,1.09-.76-1ZM355.37,13,354,11.58l-1-4.85.74-1.84,2-1,1.84.74,1.86,3.55L360.52,8l.13,3.35-4.2,1.43ZM337.75,9.3l.67,3.24-2.16.44-.28,6.8-6.26-.39-.56-2.7,4-5.31-.22-1.08Zm-90,18.55,1.19.32-.52,2.92-1.19-.32L247.4,29Zm99,44.22L350,74.21l.22,1.08-4.09,2-2.62-4.52-2.7.56-2.06-1.82-1.08.22L336,77.1l1,2,1.08-.22L338,81.19l-2,3.79-.1,2.27-4.11-.84-3.44,2.4.89,4.31,1.95,1.28,2.14-3.25L333,90.07l3-1.74,4,.3,3.33-2.93,2.7-.56-1.17,2.49.87,1.51,6.06,2.12,1.28-2,.49-8.53,4.11.84,3.08,9.48-8.09,1.67,1.76,5.82,1.52,1.93,3.79,2,2.3,5.71,2.71,2.25-.86,1.3-2.27-.1-3.81-4.84-2.7.56-2.79,2.82,3.38,5.48,3.88-.24-.93,6.37-1.28,2L354.3,125l-1.43-4.2-1.41-1.4-1.4,1.41L342,122.51l-2.82-2.79L338.6,117l2.7-.56,2-3.79,1.51-.87-3.68-1.49-4.53-.19-2-1.28,2.46-4.44-1.41-1.4,1-.76-.87-1.51-2.38-.63-4.85,1L327.37,98l-2-1.28-5.5.57L316,94.7l-8.2,1.13L302.95,94l.56,2.7,2.51,4-2.7.56-1.4,1.41-.52,2.92-9.31-4.26-6.88,4.79-4.31.89-3.79-2-2.27-.09,1,2,1.73.21,2.71,2.25-.21,1.73-3.24.67-1.3-.86-.89-4.31-2.27-.09-1.4,1.41-1.16,5.3-2.7.56-5.31-4-1.08.22.86-1.3-1-4.85,1.19.32-.21,1.73,1.93-1.52-1-2-4.11-.84-2.6-1.71,2.87-7.9,2.14-3.25.84-4.11-.56-2.7L264.35,84l2.16-.44-.44-2.16L262,80.55l.95-3.57,2-1-2.4-3.44L258,72.37l-.24-3.88,3-1.75-.63,2.38,1.63,2.47,5.06-2.73,1.73.21-4.25-7-1.84-.75-2.7.56-1.43-4.2-1.19-.32,4.71-7.15,2.47-1.63-.56-2.69L262.5,45l2.14-3.25,3.55-1.86,11.34.47.82-6.91,1.51-.87,3.25,2.14,5-.46,3.14,1.6,4.31-.89,2.08,4.63,1.51-.87L301,32.61l1-.76-1-2-3.36-2.68-1-2,2.7-.56,1.84.75,2.39,3.44,2.92.52,1.78,8.63,2.16-.44-.44-2.16,4.3-3.69L310,27.38l-.78-3.77,4.85-1,3,1.06,1.54,4.74-2.25,2.71-.21,1.73,3-1.75,1.6-3.14,1.62-.33,4,3.11,1,2,15-.84,2.47-1.63,2.71,2.25-1.16,5.3,1.3.86,3.77-.78,1.1,2.58,1.84.74-.3,4-1.84-.75-1.39,1.41.24,3.88-5.71,2.3L344,50.71l1.16-5.3-2.49-1.17-2.59,1.09.7,8.85L337.27,56l2.82,2.79,6.8.28,3.25,2.14,1.08-.22.56,2.7-8.39,5.66.13,3.35,2.36-2.17Zm4-57,.24,3.88-3.24.67,1.38-4.22Zm15,7.58L364.4,24l-.09,2.27-2.38-.63-5.82,1.76-1.65-5.28,1.93-1.52,3.77-.78,5,2.35ZM259.59,44.51l.11.54-6.15.14,3-1.74.32-1.19,1.52,1.93Zm9.07.38,2.82,2.79,5.72.51-.56-2.7,1.49-3.68-7.86,2.75Zm44.35-3,.86-1.3-3.47-3.22Zm45.3-6.52-2.27-.1-1.41-1.4.21-1.73,2.47-1.63L358.72,32,358,33.79Zm-96.8,23.88,1-.76,4.65.73,0-2.81-5.28,1.65Zm69.39-4.18,2-1,.75-1.84-3.44,2.39ZM356,48.81l.44,2.16-2.16.44-.44-2.16Zm-79.33,21.4-.08,5.07,2-1,.74-1.84L277.76,70Zm45.11-2,4.2-1.43-.13-3.35-4.41,3.16ZM278.35,78.3l1.09,2.58,4,.3,1.4-1.41-.22-1.08L280,78Zm-19.41,4,1.11,5.39-5.39,1.11-.56-2.7.75-1.84,3-1.74Zm-10.77,5,.35,4.42L245.4,93l.84-4.11-1.84-.74ZM304.31,87,308,85.68l.75-1.84-4.63,2.08ZM263.8,100.41,269,101l-.25-6.69-4.09,2-1.06,3Zm22.52-8,1,2,1.84.74L288.69,93l-1.3-.86Zm-33.84,10.34,1.3.86-2.12,6.06-1.19-.32-.33-1.62,2.57-3.9Zm74.57-3.56-1.06,3-9.17,1.89-4.11-.84.19-4.53,2-1,6.39,3.74,4.41-3.16Zm-71.24,19.74L256,120l-2.16.44-.94,6.38-2.69.56-4.36-7.53,1.82-2.06,2.16-.44,4.87,1.81Zm86.42-8.82,9-5.23.19-4.54-4.85,1-6.37-.93L338,103.1l1.43,4.2,2.17,2.36Zm32.55-8.39-.75,1.84-3-1.06-.44-2.16,3.14,1.6Zm-28.87,9.88.48,7.77,5.37-3.92.09-2.27-1.08.22-3.25-2.14Z"/></g></g></svg>