<svg xmlns="http://www.w3.org/2000/svg" viewBox="0 0 363.07 297.25"><defs><style>.cls-1{fill:#382e2b;opacity:0.5;}</style></defs><title>contacts-decor-3</title><g id="Layer_2" data-name="Layer 2"><g id="Layer_1-2" data-name="Layer 1"><path class="cls-1" d="M102.29,296.94l-2.74.31,1.52-1.28,2.8.24Zm27.77-4.25-.12-1.1,1.52-1.28,2.25.3,1.4,2.61-3.89-.11Zm-10,0,.66-4,6.87,2-3.1,2-3.34-.18ZM109,282.88l1.82-3.53,1.64-.19,1.83,1.46,1,3.77-3.83.43Zm16.64-9.64,2.25.3,1.28,1.52-.23,7.78-1.22-1-2.45-6.92Zm-19.8,6.12-4.92.56.91-1.76-2.56-3,3.27-5.36-1-8.75,8.09,3,3.1-2,.61.48-4.66,7.73.73,1.58-.91,1.76-3.1,2,1.4,2.61ZM17.47,286.6,17,287.75l.36-1.7,2.67-.86.67,1Zm-6.16-10.38,1.28,1.52.56,4.92-.91,1.76-2.13.79-1.76-.91L6.82,280.6l-1.09.12.18-3.34,4.31-1Zm17.21,5.25-.37-3.28,2.19-.25.9-6.75,6.2,1,.31,2.74-4.43,4.93.12,1.09Zm91.34-10.34-1.16-.42.78-2.86,1.16.42-.36,1.7Zm-94.63-53-3-2.42-.12-1.09L26.32,213l2.2,4.74,2.74-.31,1.89,2,1.09-.12,2.18-5.23L35.61,212l-1.09.12.3-2.25,2.36-3.59.3-2.25,4,1.21,3.64-2.07-.5-4.38-1.83-1.46-2.43,3,.12,1.09-3.16,1.46-4-.66-3.58,2.62-2.74.31,1.39-2.37-.73-1.58-5.84-2.66-1.45,1.83-1.26,8.45-4-1.21L13,197.92l8.2-.93-1.23-6L18.61,189,15,186.61l-1.78-5.89-2.5-2.49,1-1.22,2.25.3,3.35,5.16,2.73-.31,3-2.56-2.87-5.77-3.89-.11,1.51-6.26,1.45-1.83,3.22-.92,1,4.31,1.28,1.52,1.52-1.28,8.2-.93,2.56,3,.31,2.73-2.73.31L32.32,178l-1.58.73,3.53,1.82,4.5.6,1.83,1.46-2.85,4.2L39,188.32,38,189l.73,1.58,2.31.85,4.92-.56.92,3.22,1.83,1.46,5.53-.07,3.65,2.91,8.27-.38,4.69,2.24-.31-2.73-2.14-4.19,2.73-.31,1.52-1.28.78-2.86,8.89,5.09,7.29-4.15,4.38-.5,3.59,2.36,2.25.3L99,189.84l-1.7-.36L94.83,187l.36-1.7,3.28-.37,1.22,1,.5,4.37,2.25.3,1.52-1.28,1.63-5.17,2.73-.31,4.93,4.43,1.09-.12-1,1.22.56,4.92-1.16-.42.36-1.7-2.06,1.34.8,2.13,4,1.21,2.44,1.94-3.57,7.61-2.42,3-1.21,4,.31,2.73-3-2.43-2.19.25.25,2.19,4,1.21-1.27,3.47-2.13.79,2.07,3.64,4.5.6-.11,3.89-3.16,1.47.85-2.31-1.4-2.61-5.28,2.26-1.7-.36,3.6,7.35,1.76.91,2.74-.31,1,4.31,1.16.42-5.34,6.7-2.61,1.4.31,2.73,1.22,1-2.43,3-3.7,1.53-11.25-1.5-1.45,6.81-1.58.73-3-2.43h-5l-3-1.88-4.38.5-1.65-4.8-1.58.73-.41,6.14-1,.67.79,2.13,3.11,3,.79,2.13-2.74.31-1.76-.91-2.07-3.64-2.86-.78-1-8.75-2.19.25.25,2.19L54,261.42,57.79,266l.43,3.83-4.92.56L50.38,269l-1.1-4.86,2.49-2.5.36-1.7L49,261.43l-1.88,3-1.64.19-3.72-3.46L40.94,259l-15-.52-2.61,1.4-2.5-2.49,1.63-5.17-1.22-1-3.83.43L16.54,249l-1.76-.91.66-4,1.76.91,1.52-1.28.11-3.89,5.89-1.78L26,239.65l-1.63,5.17,2.37,1.39,2.67-.86.1-8.87L33.23,235l-2.56-3-6.75-.9-3-2.42-1.09.12L19.47,226l8.86-4.88.18-3.34-2.55,2Zm-9.12,56.43.11-3.89,3.28-.37-1.75,4.08Zm-14.3-8.91,1.52-1.28.3-2.25,2.31.85,6-1.23,1.17,5.41L11,268.5l-3.83.43-4.75-2.79Zm107.75-12.2-.06-.55,6.14.41-3.16,1.46-.42,1.16-1.34-2.06Zm-9-1.2-2.56-3-5.66-1,.31,2.73-1.82,3.53,8.08-2ZM56.12,251.2l-1,1.22,3.17,3.52Zm-45.71,2.4,2.25.3,1.28,1.52-.36,1.7L11,258.53,9.69,257l.91-1.77Zm98.56-15-1,.67-4.56-1.14-.24,2.8,5.41-1.17Zm-69.48-2.1-2.13.8L36.46,239l3.64-2.07Zm-25.58,4-.25-2.19,2.19-.25.25,2.19Zm80.94-14.15.54-5-2.13.8-.91,1.76,1.4,2.61Zm-45.11-2.09-4.31,1-.18,3.34,4.68-2.75Zm44.18-6.11-.86-2.67-4-.66-1.52,1.28.12,1.09,4.56,1.15Zm19.69-2.23-.62-5.47,5.47-.62.31,2.73-.91,1.77-3.16,1.46Zm11.18-4,.05-4.44,3.22-.92-1.21,4,1.76.91ZM68.85,207.1l-3.77,1-.91,1.76L69,208.2Zm41.56-9.69-5.11-1.08L105,203l4.25-1.59,1.33-2.92Zm-23.15,5.94-.79-2.13-1.76-.91.25,2.19,1.22,1Zm34.63-7.24-1.22-1,2.66-5.84,1.16.42.19,1.64L121.77,195Zm-74.59-3.19L48.64,190l9.3-1.05,4,1.21-.6,4.5-2.13.79-6-4.3-4.67,2.74ZM120,179.7l-.12-1.09,2.19-.25,1.51-6.26,2.73-.31,3.66,7.89-2,1.89-2.19.25-4.69-2.24Zm-86.86,1-9.47,4.4-.6,4.5L28,189l6.26,1.51,2.49-2.5-1-4.31-2-2.55ZM0,186.09l.91-1.76,2.92,1.33.25,2.19-3-1.88Zm29.65-7.24.23-7.78-5.71,3.42-.3,2.25,1.09-.12L28,179Z"/><path class="cls-1" d="M247.49,148.09l-1.85-2,1.92.48,1.44,2.41Zm19.69,20,.82-.74,1.92.48,1.07,2-1.3,2.67-2.18-3.22Zm-5.85-8.07,3.59-1.78,2.4,6.74-3.44-1.33-1.81-2.82Zm1.49-14.74,3.93-.59,1.11,1.22-.11,2.33-2.48,3-2.59-2.85Zm17.55,7.86,1.07,2L281,157.1l-6.44,4.37.07-1.55,4.19-6Zm-16.55-12.48L260.49,137l2-.29,1-3.85,6.26-.48,6.52-5.92,2.33,8.29,3.44,1.33,0,.78-9,.74-.85,1.52-2,.3-3.44-1.34-1.3,2.66ZM206.27,73.25l-1.19.33,1.59-.7,2.26,1.67-.45,1.15Zm4.82-11.07-.48,1.92-3.67,3.33-2,.3-1.89-1.26-.3-2,2.11-3.41-.74-.82L207,58.47l3.37,2.89Zm5.81,17L219.34,77l1.48,1.63,6-3.22L229.67,81l-2,1.85L221,82.14l-.81.74Zm61.81,68-.33-1.18,2.78-1,.33,1.19-1.59.7ZM266.34,39.5l.19-3.89.81-.74,3.78,2.52-2.56,4.55,1.85,2-.52,2.7.74.81,5.52-1.29,1.26-1.89-.74-.81,2-1.07,4.3-.18,2-1.07,1.37,4,3.81,1.74,3.26-3,.11-2.33-3.89-.19-.81.74-3-1.7L284,36.84l-4.22-1.37-1.85-2,2.74-.26.85-1.52-1.26-6.29-2.33-.11-7.59,3.92-1.37-4,6.59-7.48,5.55,6.11,4.11-4.48.89-2.3-.18-4.29,3.74-4.89.56-3.48,1.56.07,1.07,2-2.22,5.74,1.85,2,3.85,1,3-5.7L297.16,6.3l6-2.44,2.33.11L308.08,6,305.2,9.41l-.48,1.93,1.92.48,5.55,6.11-1,3.85-2,1.85-1.85-2-4.3.18-1.52-.85.59,3.93,2.15,4-.11,2.33-5.07.15-.48,1.93-1.15-.44-.85,1.52.67,2.37,3.33,3.67L298.52,43l-.11,2.33,3.29,4.44-.22,4.67,5.14,6.48.92,5.11,2-1.85L311.73,60l1.85,2,1.93.48,2.78-1,1.07,10.18L327,75.14l3,3.26.18,4.3,1.07,2,1.26-1.89-.7-1.59.56-3.48,1.59-.7,2.22,2.45L336,81l-3.26,3,1.07,2,1.92.48,5.15-1.7,1.85,2-.71,6.59.74.82-1.56-.08-3.67,3.33-.33-1.18,1.59-.7-2.3-.89-1.26,1.89,1.37,4-.15,3.11-8.26,1.55-3.89-.19-4,1.37-2,1.85.19-3.89-1.48-1.63-1.63,1.48,1.37,4-3.55,1-1.89-1.26-1.74,3.81,2.15,4-3.22,2.18-3-1.7,2.37-.67,1.3-2.67-4.92-3-.7-1.59-3.85,7.22.29,2,1.85,2L299,122.9l.33,1.19-8.55-.41-2.67-1.3-2,1.85-.08,1.56-3.89-.19-3.41-2.11-5.36-10-6.37,2.81-1.52-.85.19-3.89-2.92-4-.22-3.52-3-3.26,2.93-4.15-1.52-.85L255.69,99l-1.15-.44-1.26,1.89-.59,4.26-1.26,1.89-1.85-2-.29-2L251,98.77,250,96l6.52-5.92L255,88.45l-1.63,1.48L248,88.11l-1.45,5.78-2.85,2.59-3.33-3.67-.63-3.15,3.3-3.74,3.48.56,1.59-.7-3-1.7-3.52.22-1.11-1.22.63-5,1.26-1.89L234,63.67l-2.67-1.3.56-3.48,5.15-1.7.07-1.56-2.59-2.85,1.67-2.26-.3-2,3.59-1.78.29,2,1.93.48L244.94,47l4.89,3.74-.48,1.92-5.15,1.7.26,2.74,2.26,1.67L254,53.72l3.41,2.11,1-3.85-3.22-6,.19-3.89-.74-.81,2-1.85,9.14,4.34,2.82-1.81L265.49,41ZM215.24,65.1l3.22-2.18,2.22,2.45-4.33,1ZM214.1,48.29l1.92.48,2-1.07.67,2.37,4.48,4.11-3.7,4.11-2.3-.89-2.59-2.85-.52-5.48ZM287,128.56l.41-.37,3.26,5.22-3-1.7-1.19.33.89-2.29Zm-4.29-8,1-3.85-2.48-5.18-2,1.85-3.92.59,6.37,5.37ZM257.59,83.89,256,83.82l-1,4.63ZM228.91,48.23l1.07,2-.48,1.93-1.59.7-2.66-1.3.48-1.93,2-.3Zm69.84,71.15-1.15-.44-1.74-4.37L293.45,116l4.11,3.7ZM259.82,61.79l-1.89-1.26-2,.3,3.81,1.74ZM241.61,43.38l1.63-1.48,1.48,1.63L243.09,45Zm58.81,57.38,4.41-2.52L302.94,97l-2,.3-1.3,2.66ZM275.74,62.94l-3.37-2.89-2.81,1.81,5,2.19ZM306.53,95.2l1.67-2.26-1.78-3.59-1.93-.48-.81.74L305.42,94Zm13.32,14.67,4.07-3.7,3.7,4.07-2,1.85-2,.3-3-1.7Zm9.81,6.71L333.3,114l2.63,2.07-4,1.37.3,2ZM300.8,68.43l-3-2.48-2,.3L300,69.17Zm32.16,28-2.11-4.78-5.63,3.63L329,97.84l3.15-.63Zm-18.36-15.3,1.26-1.89-.3-2-1.63,1.48-.08,1.56ZM340.74,105l.08-1.55,6.3-1.26.33,1.19-1.22,1.11-4.67-.22Zm-41-62.37,3.15-.63L309.14,49l1.37,4-4,2.15-1.89-1.26,0-7.41-5-2.19ZM353,93.93l.81-.74,1.48,1.63,6-2.44,1.85,2L358.81,102l-2.7-.52-1.48-1.63-.92-5.11ZM301.38,24l-9.11-5.11-4,2.15,3.33,3.67,2.44,6,3.48.56,2.89-3.37.93-3.07ZM277.58.29l2-.29.63,3.15-1.63,1.48-.22-3.52Zm23.21,19.82,6.44-4.37-6.11-2.63-2,1.07.74.81-.19,3.89Z"/></g></g></svg>