<svg xmlns="http://www.w3.org/2000/svg" viewBox="0 0 2512.8 50.41"><defs><style>.cls-1{fill:#fff;}</style></defs><title>horizontal-decor</title><g id="Layer_2" data-name="Layer 2"><g id="Layer_1-2" data-name="Layer 1"><path class="cls-1" d="M2506.49,11.2l.7-2.8,5.6-2.1V9.1l-4.9,2.1Zm-14,39.21-2.8-1.4-3.5,1.4v-7.7l9.1.7.7,2.1-3.5,3.5ZM2468.69,35l-3.5,11.2-2.1-11.9-3.5-3.5v-4.2l2.8-1.4,4.9,2.1,2.1,6.3Zm-37.81,7.7V35l2.1-1.4,9.1,4.2h4.2l-.7,3.5-3.5,4.2-4.9,1.4-4.9-2.8ZM2418.28,9.1l2.1-4.2,5.6,4.2v3.5l-4.9,1.4-2.8-1.4Zm0,41.31H2412l2.8-4.2h2.8l.7,2.1Zm-11.2-37.81-5.6-1.4-2.8-4.9,6.3.7,2.1,4.2Zm-8.4,23.8-2.8,12.6-3.5-20.3,5.6.7.7,4.9Zm-50.41,7.7v-6.3h1.4l-1.4,4.9Zm0-6.3-3.5.7-.7,1.4,2.1-28.71Zm-4.9,6.3v-3.5l.7-.7Zm-12.6-1.4-2.8,2.1,1.4-7h2.8l-1.4,3.5Zm-1.4-33.61-2.8,15.4-1.4-8.4-.7-11.9,1.4-2.8,3.5.7,1.4,2.1-.7,4.2ZM2328,35l-.7-6.3h.7l1.4,2.1-.7,2.8Zm-1.4-10.5.7,4.2h-1.4l-1.4,2.1.7-14.7.7,11.2Zm-8.4,10.5-2.8-3.5-2.1.7-2.1-5.6.7-2.8,6.3,7.7Zm-20.3-4.9-2.1,4.9-7.7-10.5-4.2-3.5-2.1-4.9V12.6l4.9-.7,12.6,8.4-.7,9.1Zm-7,20.3h-6.3l.7-3.5,2.1-.7,2.8,2.8Zm-28,0H2253l2.1-2.8,7.7,1.4Zm-11.2,0h-6.3l.7-3.5,2.1-.7,2.8,2.8Zm-7.7-32.91-.7,1.4-4.9-2.8-.7-2.8,2.8-.7,2.1,4.2ZM2232.74,49v0Zm0-.7-2.1-.7-2.1.7,1.4-8.4Zm-4.9,2.1h-1.4l1.4-2.1h.7Zm-1.4,0-2.8-1.4-2.8,1.4h-5.6l1.4-2.8,3.5-1.4,6.3,2.8Zm-35,0-.7-4.2.7,1.4Zm-.7-4.2-2.8-2.1.7-2.8Zm-4.9,4.2h-5.6l.7-4.2-7-6.3v-3.5h3.5l4.9,2.8,2.1,4.9h3.5Zm-9.1,0-.7-2.1.7.7Zm-.7-2.1-2.8-2.8.7-3.5Zm-4.2,2.1h-4.2v-5.6l1.4-2.1,4.2,2.8Zm-5.6-1.4v0Zm0,0-4.2-2.8h-.7l2.1-13.3Zm-5.6,1.4h-10.5l1.4-2.8,4.2-2.1,5.6.7Zm-32.91-2.8-4.2.7-.7,2.1,2.8-26.6Zm0,0v0Zm-18.9,2.8h-12.6l2.1-4.9,9.1-1.4,1.4,4.9Zm-12.6-14-3.5,12.6-2.8-19.6,1.4-2.8h3.5l2.1,1.4v7Zm-6.3,14h-17.5l1.4-2.1,9.1-1.4,2.1-1.4.7-2.8,3.5,2.8.7,2.8Zm-21-12.6,3.5-.7,4.9,2.8-.7,2.1-5.6.7-2.1-3.5Zm.7,12.6-2.1-1.4-1.4,1.4,2.1-2.8Zm-14,0-.7-5.6,4.2.7,9.8-2.8-.7,4.9-2.8-1.4-2.1.7-.7,3.5Zm-.7-5.6-3.5-.7,1.4-7.7ZM2050,49l-1.4-1.4,1.4-3.5h1.4l-1.4,6.3Zm-1.4,1.4-2.1-1.4-2.8,1.4,1.4-2.1,3.5-.7Zm-9.8-7.7v0Zm0,0H2036V27.31Zm-9.1-12.6-1.4,8.4,1.4,4.2-1.4.7v.7l-2.8,4.9-3.5-9.8,1.4-2.8,4.2,1.4-1.4-14h4.9l-.7,4.9Zm-9.8,14.7,1.4-2.8,1.4,2.8-2.8,1.4Zm1.4-2.8v-.7l-2.8,1.4,1.4,2.1-2.1,3.5.7,2.1h-9.8l-1.4-2.8,6.3-4.2-1.4-3.5-4.2.7-3.5,4.2v-3.5l16.1-4.9,1.4,2.8Zm-16.8,5.6v-2.8l2.8,2.8-2.1,1.4Zm1.4,2.8-1.4-1.4h.7Zm-2.8-32.91-2.1-1.4-.7-2.8,1.4-2.1h1.4l1.4,2.1-.7,2.8ZM2001,47.61l-4.9-2.1-4.9-7,.7-2.1h3.5l4.9,3.5,1.4,6.3Zm-5.6-19.6-1.4-4.9.7-2.1Zm-4.9,1.4-.7-6.3,1.4-2.8h1.4l1.4,2.8-2.8,7Zm0,5.6-2.8-2.1h-2.1l-4.2-3.5v-2.8l4.2-1.4,4.2,3.5.7,4.2Zm-9.1-5.6,2.1,19.6-3.5-2.1-1.4-.7,2.1-23.1.7,3.5h-.7Zm-3.5,21h-9.8l.7-2.8,4.9-2.1,4.9.7Zm-5.6-15.4,3.5,3.5,2.1-.7-1.4,4.2-2.1.7-6.3-2.8v-3.5h3.5Zm-14,4.9-2.1,7.7h-.7l-4.2-18.2,2.1-.7,9.8,2.8-.7,2.8-3.5,4.2Zm0,10.5-2.8-1.4.7-1.4.7.7ZM1952,49l2.1-1.4h1.4V49h-.7l-2.8,1.4Zm-1.4,1.4-2.8-1.4-3.5,1.4V49l2.1-1.4,4.2,1.4Zm-18.9-.7,7.7-.7,1.4,1.4H1931Zm2.8-16.8-2.1-2.8-1.4,1.4,2.1-2.8,2.8,1.4Zm-8.4-25.21,3.5-1.4-.7,4.2-2.8.7Zm.7,42.71L1924,49l-4.9,1.4v-5.6l1.4-2.1,6.3,6.3Zm-8.4,0-2.8-3.5-2.1,3.5h-2.8l-2.8-3.5v3.5h-17.51l1.4-2.1,8.4-1.4,2.1-1.4.7-2.8,4.2,2.8,1.4-2.8,5.6,1.4,4.2,4.9ZM1882,35l7.7-3.5.7-2.8h9.1l1.4,1.4-.7,2.8-4.2,3.5-7.7,3.5-1.4,2.8h-2.8l-2.1-6.3Zm-5.6-14.7V16.1l6.3,1.4-1.4,2.1-3.5.7Zm1.4,30.11L1875,49l-5.6,1.4.7-2.1,4.2-2.8v-1.4l3.5,3.5Zm-6.3-21.7h-2.1v1.4l-5.6-2.8-2.1-4.9,3.5-7,7.7-1.4,2.8,4.9-.7,3.5-3.5,1.4.7,3.5Zm-3.5,21.7-.7-6.3,2.8,4.2Zm-.7-6.3-.7-1.4v-1.4Zm-3.5,4.9-3.5-2.1,2.8-3.5,2.8-.7h.7l-2.8,7.7Zm-5.6-11.9-1.4-.7.7-3.5,2.1-1.4h3.5l-2.1,6.3h-2.8Zm1.4,13.3-.7-3.5h1.4l-.7,2.1Zm-.7-3.5-4.2,1.4,2.1-4.9Zm-24.5,3.5h-7.7l-4.9-5.6v-3.5l12.6-4.9h3.5l1.4,2.8-4.9,9.8Zm4.9-44.11-2.1,2.8-2.8.7-2.8-1.4-.7-2.1,3.5-3.5,4.9,2.1Zm-12.6,6.3-2.1,4.9-.7-9.1,1.4-2.1,2.1,1.4v3.5Zm-1.4,14-1.4,2.8-4.2,2.1-.7-.7.7-5.6Zm-4.9-9.1-2.1-1.4-.7-2.8,1.4-2.1h1.4l1.4,2.1-.7,2.8ZM1798,50.41l-2.8-1.4-3.5,1.4,2.1-2.8-3.5-3.5-1.4-4.2h-3.5v-3.5h3.5v2.1l3.5-3.5,1.4-4.2,4.9-.7,2.1,5.6-1.4,4.9-3.5,4.2,5.6-2.1,1.4,2.1,7-3.5.7.7,4.2-2.1,2.8.7,1.4,2.1v7.7h-3.5l-2.1-2.8-2.8,2.8h-2.8l.7-4.2-2.1,4.2-2.8-2.8-.7,2.8h-2.8l1.4-2.8L1798,49Zm20.3-19.6h.7l-1.4,4.2-.7-4.9Zm-10.5,4.2-9.1-5.6-.7-2.8,4.9-1.4,4.2,3.5.7,4.2Zm-14.7-20.3-1.4-3.5h4.9v5.6l-3.5-.7ZM1784,49l2.1-1.4,2.8.7,1.4,2.1-3.5-1.4-2.8,1.4Zm-4.2,1.4L1777,49l-4.2,1.4.7-2.8-1.4-.7,4.9-.7,2.8,2.8Zm-8.4-14-1.4,9.1h-.7l-1.4-14h3.5l1.4,1.4-.7,2.8ZM1758,49l3.5-2.8,5.6-1.4,2.1.7V49l.7-3.5,2.1,1.4-2.8,3.5h-1.4V49l-2.1-1.4-2.8,2.8-2.1-1.4-2.8,1.4Zm-19.6-18.9,2.8-2.8,7.7,3.5,6.3-1.4,3.5-7,4.9-2.1,1.4,2.1-.7,8.4-4.2,1.4-1.4,4.2-11.9-2.1ZM1751,49l2.1-1.4,2.1,2.8h-4.9Zm-2.1-4.2-2.1-3.5h3.5l1.4,2.1-2.8,2.8Zm-4.9,5.6-.7-2.8.7,1.4Zm-.7-2.8-2.1-3.5v-1.4Zm-4.2,2.8h-2.8v-5.6l1.4-2.1,2.8,1.4h.7Zm-11.9,0-2.8-1.4-3.5,1.4,2.8-12.6,9.8,4.9,1.4,3.5h-5.6l-2.1,1.4Zm-9.8-28-1.4,22.4h-.7l-1.4-25.91h2.1l1.4-2.8,2.8-.7,3.5,1.4v3.5l-4.9,2.1ZM1713.94,49l.7-3.5.7-.7V49l.7-4.2.7-.7,3.5,3.5v2.8l-3.5-1.4-2.8,1.4Zm-12.6-12.6h3.5v3.5l-4.2,4.2-2.1-.7.7-5.6Zm-5.6,12.6-.7-2.1,2.8.7-.7-4.9,1.4.7v4.2l2.8.7,1.4,2.1H1695Zm-2.1-28.71V16.1l6.3,1.4-1.4,2.1-3.5.7Zm-3.5,26.6,4.9-1.4v1.4Zm-4.9,2.1,4.9-2.1-1.4,2.1-3.5,1.4Zm3.5-20.3h-2.8v2.1l-7,9.1-4.2,2.8h-2.8l.7-2.8,1.4-1.4,4.2-2.1.7-6.3,3.5-3.5h1.4l2.1-4.2,2.1.7.7,3.5Zm-4.9,21.7-1.4-4.2,1.4,2.8Zm-1.4-4.2-2.1-1.4.7-2.8Zm-4.2,4.2h-9.8l3.5-3.5,7.7-2.1h.7Zm-7-16.8-3.5-7,.7-2.8-1.4-1.4.7-2.1h3.5l2.1,1.4,2.8,11.2-2.1,5.6-2.8-3.5Zm-9.1,1.4-2.8,8.4-2.1-14,4.2-7h5.6l.7,4.2-4.2,2.8-1.4,3.5Zm-2.1,15.4-2.8-1.4-4.9,1.4-1.4-4.2H1646l2.1-4.9.7-6.3,2.8.7,1.4,4.9,6.3,3.5,1.4,4.2Zm-9.8-25.91.7-2.1,7.7-2.1-.7,2.8-7.7,3.5Zm-2.1,25.91h-5.6l2.8-2.8,2.8,1.4Zm-4.2-2.8,1.4-7.7v7Zm-1.4,2.8-.7-1.4,2.1-1.4-1.4,1.4Zm-7-21.7.7-2.8-1.4-2.1-3.5.7,1.4-2.1h3.5l1.4,1.4v2.8Zm-2.1,21.7-2.8-1.4-2.8,1.4h-16.1l-5.6-10.5.7-2.8,5.6-7h3.5l2.1,5.6-1.4,4.9,4.9,3.5,5.6-2.8.7,2.1,5.6-.7,3.5,1.4-.7,2.8-2.8,2.1ZM1632,35l-4.2-8.4,3.5-2.1,1.4,4.2h2.8l-2.8,4.9Zm-4.2-8.4h-.7v-.7Zm-1.4,18.9.7,1.4v-2.8Zm-8.4,2.1-1.4,1.4h1.4Zm-2.1-22.4h-1.4l-1.4-2.1V19.6l1.4-2.1h1.4l1.4,2.1-.7,4.2Zm-26.61-7.7,1.4,2.1.7,8.4,2.8,2.8.7-2.1,3.5.7,3.5,3.5h1.4l-2.1,3.5-7.7-1.4v-1.4l-4.2,1.4v1.4l-4.9-2.1-3.5-3.5-3.5,1.4-1.4,4.2-11.9-2.8V35l-6.3-1.4-3.5-3.5.7-2.1,9.1-1.4v3.5l2.8.7,5.6-1.4,3.5-7,8.4-4.9Zm7.7,32.91h-6.3l.7-2.8,2.1-1.4L1597,49ZM1576,6.3l2.1-1.4,1.4,2.8-2.1,1.4Zm-15.4,44.11h-8.4l1.4-2.1,2.8-.7,4.2,1.4Zm-21-4.2,4.9-2.1-1.4-2.1-3.5-.7,1.4-3.5,9.1,4.2-4.9-4.2,1.4-2.8,4.2,1.4v4.9h4.2l.7,2.1-1.4,2.8h-8.4l-1.4,4.2h-9.8l.7-2.1,3.5-.7.7-6.3Zm14.7-9.8.7,4.9-4.2-4.9,2.8-1.4Zm-4.9-12.6-2.1-.7-2.1-4.9V14.7l1.4-2.1h2.8l2.1,4.9-1.4,5.6Zm-18.9-7.7,3.5-4.9,3.5,2.8-.7,1.4h2.1l2.1,2.1v2.8l-4.2,2.1h-3.5l-.7-2.8,1.4-2.1-2.1-.7Zm-1.4,31.51,1.4-.7,4.2,1.4V49l-7-1.4Zm-4.2,2.8-2.8-1.4-2.8,1.4h-18.9l3.5-4.9,2.8-1.4-1.4-5.6,1.4-4.2,2.8-1.4,9.8,2.8,2.8-.7,2.8,4.9,2.8,1.4v6.3l-2.8,1.4ZM1513.7,16.1l-1.4-2.1,3.5-1.4,1.4,3.5-2.8,1.4Zm-3.5,9.8-.7-2.8,1.4-2.1,3.5-.7-1.4,11.9-2.1-5.6Zm-21,16.8.7-9.1,1.4,4.9,4.2-2.1,1.4-7.7,4.9-2.1,1.4,2.8-.7,2.8-7.7,8.4-4.2,2.1Zm9.8,7.7-2.8-1.4-3.5,1.4V49l2.1-1.4L1499,49Zm-17.5-4.9,2.8-5.6,2.8.7v4.9l-2.1,2.1-2.1-2.1Zm-16.8,3.5.7-.7-4.2-.7-2.1,2.1.7-4.2,4.2-2.8v1.4l4.9,2.8,7-2.1,5.6.7v2.1h3.5l.7,2.8H1471l-2.8-2.1-2.8,2.1Zm9.1-6.3h-4.9l-1.4-4.9,2.8-5.6,4.2-3.5,2.1-4.9,2.8-2.1,4.9.7,1.4,1.4v2.8l-4.9,2.8-1.4,2.1V35l-2.1-1.4-2.1.7-.7,7.7Zm-9.1,7.7h-5.6l2.1-1.4h3.5Zm-14,0h-4.2l-2.1-4.2.7-2.8h8.4l.7,3.5-2.8,2.1Zm-1.4-15.4h-2.1l-2.8-4.9v-3.5l8.4-2.8.7,2.1-3.5,7.7Zm-9.1-23.8-2.8-.7-.7-4.2,3.5,1.4Zm-4.9,39.21h-38.51l2.1-1.4,3.5-2.1h4.9l-.7-4.2h3.5l1.4,1.4-1.4,2.8,3.5.7,2.8-2.1h2.1l.7,3.5.7-2.8,2.8,2.8,5.6-1.4-1.4-6.3h3.5l4.9,7.7Zm-2.1-25.2h-1.4l-1.4-2.1V19.6l1.4-2.1,3.5,2.1-1.4,4.2Zm-17.5,11.2h4.2l1.4,2.1-1.4,7.7-1.4-.7-1.4-7.7Zm-.7-14-.7-2.1,2.8-1.4,2.1,3.5-3.5,1.4Zm0,14h-3.5v-3.5l-4.9,2.1v1.4l-2.8-.7-4.9-4.2-2.1-4.2,1.4-5.6,2.8-3.5,2.8-.7-.7-1.4,4.9,1.4v7.7l3.5,7.7h3.5Zm-4.2-30.11L1408,7.7l-4.9-1.4V2.8l2.8-1.4,2.8,3.5,2.1-2.1Zm-17.5,36.41,6.3-1.4,2.1-4.2,1.4,5.6v1.4l-.7,2.8-4.2-2.1-4.9.7,1.4.7,4.2,2.8-5.6-1.4v-4.9Zm-4.9,7.7-.7-4.2,4.9-.7-1.4,4.9Zm-.7-4.2h-.7l-3.5,2.1,2.1-9.1Zm-2.8-19.6h-3.5V22.4h4.9l-.7,2.8Zm-2.1,22.4.7-.7-.7,2.1Zm-1.4,1.4H1373l-.7-2.1,2.1-.7,7,1.4Zm0-7.7-2.1,2.1-1.4-4.9h3.5Zm0-7.7-1.4,2.8h-1.4l-2.1,3.5-1.4-4.9.7-2.8-2.8-1.4-2.1-4.9,2.8-7,2.8.7v-.7l4.9,6.3Zm-5.6,1.4,2.1,1.4-.7-.7Zm-.7,4.9-2.1,2.1-2.8-5.6,4.9-1.4-1.4,3.5h2.1Zm-2.1,2.1-1.4,3.5-.7-.7v-1.4Zm-4.2,5.6-4.9-1.4,2.8-7,1.4,3.5,2.8.7-2.1,1.4h2.1v1.4l.7-.7.7,1.4-3.5,2.1Zm-2.1-8.4-3.5-2.8.7-2.8,6.3,2.8-2.8,1.4Zm0-16.8-3.5-3.5-.7-5.6,1.4-2.1h2.8l2.1,4.9-1.4,5.6Zm-35,26.6h-10.5l4.9-9.8v-4.2h6.3l2.8,3.5h5.6l7.7,2.8-.7-4.9,11.2,2.1,3.5,7,1.4.7-2.1,1.4v1.4H1345l3.5-7-2.1,2.8-1.4-1.4v2.8h-2.8l-4.2-6.3-4.2-1.4-.7,2.8-4.2,4.2h4.2l-.7,2.1Zm16.1-34.31,3.5-4.9,2.8,1.4v2.8l-2.1,2.1h-2.8ZM1338.67,49l-5.6-2.1-.7-3.5,9.1,4.2,2.8,2.8h-5.6Zm-6.3-22.4-4.9-.7,2.1-7h4.2l-.7,7ZM1319.06,49l-.7-1.4,3.5,1.4-3.5,1.4Zm-2.8,1.4-1.4-11.9,3.5-.7,1.4,2.1-2.8,4.9,1.4,2.8-2.1,1.4Zm-1.4-11.9-2.1.7h-.7l1.4-8.4Zm-17.5,11.9.7-3.5-.7-4.2h2.1v-1.4l.7,1.4,2.1-2.8h1.4l1.4,4.9h2.8l.7-2.1,3.5-3.5-1.4,11.2h-7l-.7-3.5h-2.8l.7,3.5-2.1-2.8Zm14.7-21.7-2.1-1.4-1.4,1.4v-3.5h3.5Zm-21,14-2.8,6.3-.7-3.5-2.8,4.9h-7.7l4.2-1.4,4.2-7.7-.7-2.8,2.1-4.9,4.2-2.1,1.4,2.8,4.9,2.1-.7,2.1-4.9,2.8Zm-8.4-18.9,5.6-1.4,2.1,1.4.7,2.8-4.9,2.1-3.5-3.5Zm-.7-6.3-1.4,1.4-2.8-.7-.7-2.1,2.1-1.4,2.8,1.4Zm-8.4,28.71-2.8,2.8-3.5-9.1,1.4-2.1,2.8.7,3.5,5.6-1.4.7Zm-6.3-38.51-2.1-1.4-1.4,3.5-2.1-2.1,2.1-2.1,3.5.7Zm-6.3,32.21-2.8,9.1-.7-4.2-2.1-11.2v2.1l-.7-.7,1.4-4.9,4.9,2.1,1.4,2.8-.7,3.5Zm0-22.4-2.8,4.9,1.4-9.8,2.8,1.4-.7,2.1ZM1258.15,49v0Zm0,0-4.9-2.8,2.1-10.5,2.1,9.1Zm-5.6,1.4h-9.8l-.7-2.8h4.9l-4.9-3.5,1.4-2.8,9.8,4.9Zm-2.8-25.2-2.8-2.1,1.4-2.8h2.8l-1.4,3.5Zm-9.1,21.7,1.4.7-2.1,1.4-.7-1.4Zm-2.1,3.5-2.8-1.4-2.8,1.4h-13.3l1.4-2.1,9.1-2.1,2.8-3.5,2.8-1.4,3.5,2.8V49Zm-18.9-20.3,1.4-3.5,5.6,1.4,4.2,3.5-.7,2.1-2.8,1.4-5.6-.7-2.8-2.8ZM1228,7.7l-2.8,9.1-2.1-14,.7-2.1,3.5-.7.7,6.3Zm-17.5,33.61.7-7,1.4,2.1,4.2-1.4,1.4,2.1-2.8,4.9h-3.5Zm7,9.1h-12.6l2.1-4.2,5.6-.7,2.1-2.8h2.8Zm-13.3-11.2-.7-2.1,4.9-2.1,2.1,2.8-1.4,4.2-2.8,1.4-2.8,4.2,1.4,2.8h-9.1l5.6-6.3,1.4,4.9,1.4-7.7Zm-.7-16.8-4.2-2.1-.7-2.8,1.4-2.8,2.1-.7,2.1,1.4V21Zm-9.1,28h-4.9l3.5-6.3-4.9-1.4-.7-2.8,2.8-4.2,2.8-.7,1.4-14.7,2.8,4.2.7,12.6h5.6l-1.4.7.7,3.5-2.8-.7-1.4,3.5-5.6,1.4-1.4,2.1,2.1,1.4Zm2.1-10.5v.7l.7-.7Zm-.7,0v1.4l.7-.7v-.7Zm-12.6-28.71,2.1-3.5,4.2,1.4-1.4,2.8h-3.5ZM1177.63,49l-2.8-2.8v-3.5l10.5-2.8,2.1,1.4.7,3.5-5.6,5.6h-4.2Zm-10.5-4.9,3.5-4.2,2.8,1.4v2.8l-3.5,2.1-1.4-.7Zm-7.7-17.5-2.1,13.3V23.11l-1.4-4.2,4.9,1.4-.7,4.9Zm-3.5-18.2,4.9-2.1v4.9h-4.9Zm-4.2,29.41,2.8.7,3.5,5.6-4.9,2.1-4.9-3.5,2.8-3.5Zm1.4,12.6L1151,49l-2.8,1.4,2.8-2.8,1.4,1.4Zm-3.5-23.8-4.9.7.7-6.3,1.4-2.1h4.2l-.7,7Zm-6.3,13.3,3.5-2.1,1.4,3.5-4.9,1.4Zm1.4-4.9-3.5-4.9v-3.5l4.2,1.4,2.8,5.6-.7,2.1-2.8.7Zm-2.8,15.4-2.8-1.4-3.5,1.4,1.4-2.1,4.9-.7Zm-4.9-9.8-2.8,7-2.1-9.8h3.5Zm-3.5,7.7.7-.7v2.8Zm-1.4-10.5-.7.7v-2.8Zm-.7.7-.7,1.4v-1.4Zm-2.8,11.9h-2.8v-6.3l4.9-2.8Zm-2.1-16.1,3.5,1.4.7,2.8-4.9,4.9-2.8-6.3,1.4-2.1Zm4.2,7v0Zm-1.4-12.6h-3.5v-3.5h3.5Zm-8.4,21.7-2.8-1.4-2.8,1.4h-21l4.9-6.3,2.8.7,2.1,2.8h6.3l7-2.8,3.5,4.2Zm-12.6-10.5V35l6.3,1.4-2.8,3.5Zm-14,0-4.2-4.2h-5.6l-2.1-1.4-.7-4.2,1.4-1.4V19.6l1.4-2.1,7.7,2.1v4.9l3.5,4.9,5.6-6.3,4.2-.7-.7,11.9-2.1,9.8-4.9-2.1-2.8-2.8Zm0-28.71-2.8-2.1,1.4-2.8,3.5,1.4L1095,9.8Zm-1.4,39.21-.7-2.1.7.7Zm-.7-2.1-2.8-2.1.7-2.1Zm-4.9,2.1h-23.11l-.7-3.5,2.8-2.8,6.3,4.2,8.4-4.2.7-1.4,5.6,2.1,2.1,1.4Zm-2.8-42.71-2.8,2.1-2.1-2.1,1.4-2.1,3.5.7Zm-18.2,4.9,1.4-2.8,2.8-.7,9.8,4.9-3.5,2.8-9.1-4.2Zm11.9,27.31-2.8-3.5-2.1,1.4-1.4-4.2,1.4-3.5,4.9,2.1,1.4,2.8-.7,3.5Zm-7.7-13.3-2.1-.7-.7-5.6,3.5.7v4.9Zm-3.5,16.1-2.1-5.6L1067,35l2.8,1.4-2.1,5.6Zm-.7-11.2-2.8-1.4.7-2.1v-1.4l3.5,2.1Zm0,12.6-5.6-2.8v3.5l2.8,2.1-1.4,3.5h-5.6v-2.8l2.8-3.5-2.8-2.1-.7-11.9,4.9-4.2,2.8-.7.7,2.1V28l-1.4,2.1h.7l-2.8,2.8v3.5l4.2.7-.7,3.5,2.8,2.1Zm-25.9-12.6-3.5-1.4,2.1-3.5,2.1,1.4,6.3.7,2.1,1.4,2.8,4.9v6.3l3.5,1.4.7,4.9h-8.4l1.4-4.9,1.4-.7-10.5-4.2Zm8.4-22.4-3.5-2.8V2.8h4.9l-1.4,4.9ZM1044.61,49l3.5-1.4v2.8l-1.4-1.4-2.1,1.4Zm-53.21-9.1.7-9.1,1.4-1.4,5.6-.7,1.4,2.1,2.8-.7,4.2,7,2.8-.7.7-2.1-3.5-5.6v-3.5l7,4.2,3.5-4.9,2.8-.7-.7-3.5,2.8-1.4,4.2,2.8.7,3.5-5.6-.7,2.1,2.1-.7,4.2-5.6,5.6,4.9,1.4,4.9,3.5,2.1-4.9,2.8-1.4h4.2l1.4,2.8-4.2,5.6v7H1006.8l2.1-2.8-1.4-1.4H1004l-5.6-9.1-5.6,2.8Zm28.71,8.4,4.9-.7-8.4-7-1.4,4.2,3.5,1.4Zm-4.9-7.7-2.8,3.5,1.4,2.8v-2.8l1.4.7Zm-15.4-14.7V21l3.5-.7-.7,5.6-2.1.7ZM998.4,49l.7,1.4h-1.4Zm0,0-.7-.7Zm-4.2-2.8,2.8.7.7,1.4-2.1-1.4Zm-7.7-.7h2.8l1.4-1.4,3.5,2.1-2.1.7-.7,3.5H983l-1.4-3.5,3.5-2.8Zm0-2.1,2.8-.7,1.4,1.4v-3.5l-2.8-.7-2.8,4.2Zm-18.2-.7-2.1-8.4-.7-11.9,7,2.8,7,7.7,7-4.2,2.8,1.4v3.5l-3.5,2.8-6.3-1.4-4.9,6.3-5.6,2.8Zm10.5,6.3v-2.1l-2.1-4.2h3.5l1.4,4.2-2.1,1.4ZM976,9.8l-.7-2.1,2.8-1.4,1.4,2.8-2.8,2.1ZM978.09,49l.7-2.1v.7l-.7,2.8Zm-1.4-22.4-2.8-2.1.7-2.1,4.2-2.1-1.4,4.9Zm-10.5,20.3v0Zm0-.7-2.8-4.9,1.4-11.9Zm-3.5,1.4-2.1-2.8-7-1.4-4.9-7v2.8l-3.5,4.9h-2.8l-2.1-4.9,2.1-4.2,7.7-.7,11.2,2.1,2.1,4.9Zm-3.5,2.8-2.8-1.4-3.5,1.4,1.4-2.1,4.9-.7Zm-30.11-10.5,6.3-.7,3.5,3.5v1.4l-2.1,1.4-5.6-.7-2.1-3.5Zm0,7.7,5.6.7.7,2.1h-6.3Zm-2.8-11.2-2.1-.7v-4.9l4.2-4.2h1.4v3.5l-3.5,4.9Zm2.1,6.3h-2.1l-2.8-2.8,1.4-2.1,3.5,2.1Zm-8.4,1.4-4.9-2.1-6.3-7-5.6,1.4-2.8-.7-1.4-2.1v-3.5l2.8-1.4,7,4.2,7-7.7,7-2.8v11.9l-2.1,8.4Zm-4.9-32.91-2.8,9.1-2.1-11.2h-1.4l1.4-2.8,4.2,1.4.7,2.1Zm-4.2,14-.7-4.9,2.8.7,1.4,2.1-.7,2.8-2.1.7Zm2.8,25.2-18.9-.7-9.8.7.7-3.5-2.1-5.6,2.8-1.4,5.6.7,4.2,2.1.7,2.1,1.4-.7,1.4,1.4h2.8l1.4-1.4,2.1,2.1,7.7-2.1Zm-6.3-28-4.9-2.1,1.4-2.8h3.5Zm-3.5,21.7-3.5-4.2-2.8,1.4.7,2.8.7-1.4,3.5.7Zm-15.4-17.5-3.5-2.8V20.3l3.5.7,1.4,3.5-.7,1.4Zm-7,13.3-2.8-4.9-2.1,3.5-1.4-.7,4.9-4.9h3.5v3.5l-1.4,2.1Zm-14,1.4,4.2-.7.7,3.5h3.5l4.9,4.2-2.1-.7-2.1,2.8h-10.5l1.4-2.8-2.1-3.5-2.1-8.4-.7,4.9-1.4-1.4,2.1-4.2,4.9,2.1-.7,2.1Zm7-1.4-2.8.7-3.5-3.5,3.5-.7,2.8-2.8.7,6.3Zm-8.4,9.1v0Zm-2.1-1.4h-2.1l.7-7,2.8,3.5.7,4.2Zm-2.8,2.8h-2.8V49l2.1-1.4h1.4Zm-2.8-7.7-4.9-2.8,1.4-4.9,5.6,3.5.7,2.8Zm-6.3-22.4-2.8-.7-2.8-4.2-.7-4.2h3.5l3.5,4.9v3.5Zm-4.2,9.8-1.4-1.4,3.5-2.1,1.4,22.4-2.8-17.5Zm-4.2,20.3-.7-2.1.7.7Zm-.7-2.1-1.4-.7v-.7Zm-2.8,2.1v-2.8h1.4Zm-4.9-9.1,2.8,1.4,2.1,4.9h-7.7l1.4-6.3Zm-.7,9.1-2.8-1.4-2.8,1.4h-4.2l.7-3.5-3.5-2.8,4.9,1.4,2.1-2.1-1.4-2.1-5.6,2.1v-3.5l5.6-3.5.7-2.1-3.5-5.6v-3.5l2.8.7,4.9,4.2-.7,11.9-2.1,2.1,2.8,4.2,2.1.7Zm-21-1.4.7-2.1,4.9-2.8H822l-4.2,3.5-2.8.7Zm-4.2-10.5,1.4-6.3,4.2-2.1,1.4,2.1-1.4,6.3-4.9,1.4Zm-2.1-8.4,1.4-2.1,2.8-.7,2.8,1.4-1.4,2.1h-4.2Zm-3.5-23.8,3.5-.7,2.1,2.1-2.1,2.1-3.5-2.1Zm-.7,44.11-2.8-7.7,2.1.7,2.1-.7-1.4,6.3Zm-5.6,0h-4.2L794,42l2.1-.7,4.2,1.4Zm-20.3-10.5-3.5-3.5L780,35v4.9Zm-7.7-23.8-2.1,15.4-.7-17.5,1.4-2.8,2.8,1.4-.7,2.1Zm0,34.31h-7l1.4-3.5,5.6,2.1Zm-11.2-11.9.7-4.2h2.8l.7,4.2v-4.2l2.1.7,1.4,2.1-2.8,6.3-3.5-4.2Zm4.9,4.9.7,3.5-2.8.7-1.4,2.8h-4.2v-2.8l-.7-2.1-2.8-4.9,1.4-2.8,4.9.7v4.2l4.9,1.4Zm-3.5-18.2h2.8v9.1h-.7l-2.1-5.6Zm-4.9,25.2h-9.1l3.5-4.2h5.6l.7,1.4V49Zm-9.1-7.7-2.1,2.1-1.4-4.2-1.4-.7,1.4-2.1-2.8,1.4,2.1,3.5.7,4.9-1.4,2.1-1.4.7h-14l.7-3.5h4.2l4.2-7h2.1l.7-5.6,2.1-2.8,1.4.7,2.8-4.9,3.5-.7.7,2.1-3.5,4.2,5.6,1.4.7,2.1-2.1,1.4h-6.3l3.5,2.1Zm-7.7-16.8-.7-7h4.2l2.1,7-4.9.7ZM733,11.2h-4.9V6.3l2.8.7L733,9.8Zm-23.8,14h3.5l4.9-5.6,2.1-.7,2.1,7.7-10.5,2.8-2.1-2.1Zm1.4,25.2-2.8-1.4-2.8,1.4h-7l3.5-4.9-.7-4.2,2.8-1.4,5.6.7,4.2,2.1v3.5l-2.1,2.8Zm-30.11,0-2.8-1.4-2.8,1.4h-7l-1.4-2.8,2.8-6.3,5.6-.7,4.9,1.4-1.4-2.1,2.1-4.9,4.9,2.1,3.5,4.2.7,2.8H691l-.7-14,.7,7.7,1.4-.7-.7,7,4.2,1.4,2.1,4.9h-14.7l1.4-3.5-4.2-4.2v2.8l-2.1,2.1,2.1,1.4Zm12.6-26.6h-1.4l2.8-3.5v10.5l1.4,5.6-3.5.7.7-10.5Zm-2.1,2.8-2.8-1.4v-1.4h3.5l-.7,1.4Zm-29.41,4.9,3.5-4.2,2.8-.7,1.4,4.9-2.8,1.4-3.5-.7ZM660.23,2.8l2.1,2.1,2.8-3.5,2.8,1.4V6.3L663,7.7l-2.8-1.4Zm-6.3,27.3,2.8-4.2,2.1,4.9,1.4.7-1.4,2.8L656,35l-2.1-1.4Zm-.7,18.9-3.5-1.4,4.9-2.1,2.8,2.1.7,2.8h-4.9Zm2.1-25.21-1.4,6.3-1.4,5.6,1.4-16.8,2.8,1.4-.7,2.1ZM614,41.31l3.5-11.2,7.7,2.8,2.1,3.5h2.8l2.8,2.8,3.5-9.1-8.4,1.4,1.4-11.2L628,16.1l-3.5-.7-4.2,2.8-3.5-.7,1.4-2.8,4.9-2.1,3.5.7,2.8,2.8,6.3-3.5h2.1l.7,2.1L635,17.5l-.7,5.6,2.1,2.1,5.6,2.1.7,2.8h-6.3l6.3.7,7.7,6.3,2.1-1.4,2.8-.7v1.4l-3.5,3.5h-1.4l-3.5,3.5-14-3.5-.7,2.1h-17.5Zm31.51-17.5V18.9l7,1.4-3.5,3.5Zm6.3,26.6h-4.9l1.4-2.1-1.4-.7,4.9,1.4ZM635.72,49l2.1-1.4h9.1l-1.4,2.8h-9.8Zm-28-20.3-3.5,19.6,2.1.7v1.4l-2.8-1.4-2.8,1.4h-16.8l-1.4-5.6,1.4-3.5.7,2.1-.7,1.4.7-.7.7,2.8,1.4.7,2.8-2.1v.7l1.4-1.4h4.9l4.2,1.4.7,2.8.7-2.1,2.8,1.4-.7-7v-.7l-.7-6.3-.7-.7-.7-5.6-4.9-2.1-1.4-3.5,10.5,1.4,2.1,3.5ZM597.22,42l-.7-8.4,1.4-2.1,4.2,2.1,1.4,7.7-2.1,5.6-1.4-.7-2.1-3.5Zm-7.7,3.5-1.4-3.5.7.7Zm-2.8-32.91-4.9-1.4V7.7l4.9-1.4,2.1,1.4v3.5h-1.4ZM588.12,42l-1.4-.7-2.1,2.8v-.7l2.1-3.5Zm-15.4,7,2.1-1.4,2.8.7,1.4,2.1-3.5-1.4-2.8,1.4Zm4.9-16.1-3.5-1.4,1.4-2.8,3.5,1.4Zm-18.2,8.4,2.8-.7.7-4.2-7,.7-3.5,2.8h-6.3l1.4-1.4,10.5-2.8h6.3v4.9l-6.3,2.1Zm-4.2-1.4.7,4.2,1.4-.7.7-.7-.7,3.5,2.1-.7,3.5,2.1v2.8H515.3l.7-.7-3.5-4.2-2.8-1.4,3.5-4.2,2.8-.7,1.4-4.2,2.8,2.1-.7.7h1.4v3.5H516l.7,4.9h1.4l.7-2.1h2.1l.7-2.8,4.2-4.2v-1.4l5.6-2.8,1.4,2.8,6.3,4.2,2.8-.7,2.1,1.4v4.9l-6.3-.7-1.4,4.9,1.4-2.1,2.8-.7,5.6,1.4,5.6-1.4,1.4-.7-4.2-2.8,4.9-3.5Zm4.9-13.3-2.1-.7-.7-5.6,3.5.7v4.9Zm-2.8-9.1-3.5-1.4,1.4-3.5,3.5,1.4-.7,2.1Zm-9.8,25.9h1.4l-2.1,4.2H544v-2.1l1.4.7v-3.5l-1.4-2.1,2.1.7v1.4Zm-7.7-26.6h-4.2l-.7-4.2,2.8-1.4,2.8,4.9Zm-13.3-.7,3.5-4.9h2.8l2.1,2.1-1.4,3.5h-5.6Zm-5.6,7-.7-8.4,2.1-2.1h2.8l1.4,2.1-.7,5.6-4.2,3.5Zm4.9,12.6-4.9,2.1-.7-.7,4.9-2.1ZM507.6,28l.7.7v-2.1h4.9L516,28l.7,2.1-3.5,3.5-2.8-.7L507.6,35Zm-1.4,2.1-2.8-5.6,2.8-.7,2.1,1.4-1.4,3.5Zm-3.5-1.4h-1.4v-3.5l2.1-.7Zm-18.2,18.9-3.5-3.5v-1.4l4.2.7,1.4-2.1,8.4,1.4v4.9L490.1,49l-4.2-3.5-.7.7ZM493.6,9.1l-2.1-1.4,1.4-2.8L495,6.3Zm-9.8,8.4,2.8.7,4.2,3.5.7,7.7-7,6.3-2.8.7V35l-4.2-2.1h2.1l2.1-15.4Zm-6.3-14.7,4.9-1.4,2.8,1.4V6.3l-4.9,1.4-2.8-1.4Zm-4.9,21-2.8-1.4,1.4-3.5,3.5,1.4-1.4,2.1Zm-1.4,14L469.79,49l-.7-7-4.9,4.9-.7,3.5H460l2.1-7-1.4-2.1,1.4-4.9h3.5l1.4,1.4,4.9-2.8.7,1.4ZM455.09,49l-.7-.7,3.5-6.3,2.8-.7v4.9l-2.8,1.4-.7,2.8h-2.1Zm3.5-12.6-2.1,4.9-3.5,2.1-1.4-7.7,3.5-.7Zm-4.2-12.6-.7-4.2,1.4-2.1h1.4l1.4,2.1v4.2l-2.8,1.4Zm-.7,26.6-.7-5.6,1.4,3.5-.7.7Zm-.7-7v1.4l-.7-.7Zm-1.4-7.7h-.7v-2.1Zm-2.8,14.7h-4.2l.7-3.5-2.1-4.2,4.2.7,2.8-7.7h.7Zm.7-17.5-5.6-2.1v-4.2l-1.4-.7h5.6l2.8,4.2Zm-13.3,14.7-1.4-3.5,2.1-1.4-.7,3.5.7-3.5,6.3.7,1.4,2.8-2.1,4.2-2.1-1.4-2.8,1.4Zm2.1-20.3,1.4-.7V24.5l2.8,1.4,1.4,4.9L439,35l-.7-3.5v-4.2Zm-2.1-3.5v4.9h-1.4l-1.4-4.9,1.4-1.4h3.5l1.4,2.1-2.1-.7Zm2.1,7.7-1.4,11.2.7-11.9Zm-2.1,4.9-2.1-1.4-.7-3.5h3.5V35Zm-12.6,14-2.8-1.4-2.8,1.4h-14.7l2.8-4.9,7.7-.7-6.3-2.1v-2.8l9.1-3.5,11.9,1.4-.7,2.8,1.4-.7,2.8,1.4-2.1,4.2-4.2.7.7-2.8-2.8,2.1,3.5,2.1-3.5,1.4Zm4.9-1.4-1.4-1.4h1.4l1.4-2.1-1.4,4.9Zm-7.7-22.4-2.8.7-4.2-4.2-.7-2.8,7.7,2.8Zm-11.9,6.3-.7-2.8-4.2-2.8.7-4.9h4.9l3.5,4.2.7,6.3-4.9,2.1Zm-8.4,2.1-4.9-1.4,2.1-11.9,2.1-1.4h3.5l1.4,2.1-2.1,1.4,1.4,3.5-2.8,6.3Zm-.7,15.4L397,49l-2.8,1.4h-25.9l4.2-2.8,14.7.7,5.6-1.4,7,2.1Zm-1.4-7.7-6.3-2.8-6.3-9.1V28l2.8-1.4,3.5,3.5,1.4,6.3,4.9,2.1,1.4,4.2Zm-21-16.1-2.1-.7-.7-5.6,3.5.7v4.9Zm-2.8-9.1-1.4-.7-2.1-.7,2.1-3.5L376,14l-.7,2.1Zm-2.1,25.9-2.1.7-2.8-2.1.7-3.5-2.1-2.1,6.3,1.4.7-21,.7,25.91Zm-5.6-.7-3.5-1.4v-4.9h2.8l1.4,5.6Zm-3.5,7.7h-12.6l.7-2.8,2.8-2.1v-1.4l2.8,2.1,2.8-1.4,3.5,2.1Zm-9.8-28-6.3-2.1.7-3.5,4.9-.7,2.1,1.4.7,15.4L355,22.4Zm-.7,12.6-.7-2.1.7.7Zm-.7-2.1-1.4-2.1-2.1-.7,1.4-4.9Zm-2.1,14.7.7,2.8-4.2-2.8-2.1,1.4v1.4l-2.1-4.2h-6.3l1.4-3.5,9.8-4.9,1.4,3.5h-2.8l-1.4,2.8,4.9,2.1Zm-.7-1.4-.7-4.9.7,3.5ZM348,33.61l-1.4-.7,2.1-2.8Zm-9.8,7.7-2.1,1.4-2.8-1.4,1.4-6.3,3.5,2.8Zm-6.3-10.5-12.6,4.9-3.5-.7-.7,1.4h-2.8l-1.4-4.2-4.2-1.4-.7-5.6,1.4-4.9,3.5.7,4.9,8.4,6.3,1.4,7.7-3.5,3.5,2.8Zm-8.4-2.1-1.4-3.5,1.4-3.5,9.8-1.4v2.8l-4.9,2.1-3.5,3.5Zm-.7,17.5-8.4-3.5.7-6.3,4.2-.7,6.3,7-1.4,2.8h-1.4Zm-2.1,4.2-2.8-1.4-1.4,1.4,1.4-2.8L320,49ZM313,49v0Zm0-.7-3.5-2.1-1.4-.7,2.1-11.9ZM310.86,9.1h-1.4l.7-4.2L313,6.3l-1.4,2.1Zm-3.5,41.31h-10.5l2.1-3.5,4.9-2.1,4.2.7ZM292,49l1.4-2.1h4.9l-4.2,1.4-.7,2.1H292Zm-7.7-14v-9.8l2.8.7,4.2,6.3,4.9,2.1.7,3.5-4.9.7-7-2.8Zm0,12.6,3.5,1.4v1.4L285,49l-3.5,1.4V49l2.1-1.4Zm-4.9-8.4-.7,4.2.7,4.9-2.1-.7-2.8-1.4.7-2.8-4.2-7.7,2.1-5.6h3.5l5.6,7.7-1.4,6.3Zm0,9.8v0ZM278,16.1h-2.8V11.2h4.2L278,14.7Zm-4.2,34.31h-8.4V49l4.9-1.4-.7-2.1,4.9.7ZM263.25,42l6.3,3.5-2.8.7-4.9-2.1v-2.8Zm-7.7-13.3L254.15,42l7.7,2.1-.7,4.9.7-4.9,2.8,4.2v2.1l-4.2-.7v.7l-2.1-2.1-2.8,2.1,2.1-2.8h-4.2l-.7,1.4v-1.4h-2.8l-.7-4.9,2.1-1.4h.7l-1.4-17.5,4.9-1.4,1.4,1.4v2.8l-1.4.7Zm-9.8,21.7-2.8-1.4-2.1,1.4h-4.2l.7-3.5h5.6l2.8,2.1Zm-14-45.51,2.1,1.4,2.8-3.5,3.5,3.5-.7,2.1-2.8,1.4-2.8-.7-2.1-2.8Zm6.3,21.7-2.8-2.8-2.1.7-2.1-1.4-.7-2.8,7.7,2.8Zm-30.11,23.8-1.4-7.7,2.8.7.7.7-1.4-12.6,4.9.7.7-8.4,3.5-3.5h2.8l1.4,2.8L217.74,35l-2.8-1.4v2.8l-1.4.7-.7.7-2.1,7.7.7,1.4-.7.7L210,49v-1.4l-2.1,1.4Zm4.2-1.4-.7-2.1L217,49v1.4l-2.8-1.4-2.8,1.4Zm-5.6-6.3h-1.4l-.7.7.7-4.2Zm-3.5,7.7h-1.4l-.7-2.8,3.5-4.2Zm-3.5-23.8,1.4-3.5,2.1-.7,1.4,6.3-2.1-4.9-2.8,4.9Zm-2.1,18.9,2.8,2.1-6.3,1.4,2.8-4.9Zm.7-26.61L196,17.5l-.7-2.8,1.4-2.1,2.1,1.4v3.5Zm-4.9,1.4-3.5-.7-.7-2.1,6.3-1.4v4.2Zm0,30.11-2.8-1.4-4.9,1.4,4.2-2.8,4.2-.7-.7,2.1Zm-18.2,0h-7l-1.4-2.1-6.3.7-1.4-1.4,2.1-4.9,7.7-2.8,2.1.7.7,3.5,3.5,3.5ZM171.54,4.9l-.7,4.9-4.9,1.4V6.3Zm-5.6,6.3-2.1,19.6V11.2Zm-16.8,39.21-1.4-4.9,2.8-2.8,1.4,2.1v5.6Zm-1.4-4.9-2.1,2.1,1.4-2.8Zm-3.5,3.5,1.4-1.4-1.4,2.8Zm.7-37.81-2.8-1.4-.7-3.5,3.5,1.4Zm-4.9,35-2.1-4.2v-.7h3.5l-1.4,3.5Zm0,4.2h-9.1l4.9-2.1,4.2,1.4Zm-2.1-8.4-.7.7V42Zm-7.7,7-2.1-2.1-2.1-1.4,2.1-22.4Zm-4.9,1.4-2.1-2.8-2.8,2.8h-7l1.4-2.8h1.4l1.4-2.1,4.9-.7,3.5.7Zm-20.3,0-2.8-1.4-3.5,1.4V49l2.1-1.4L105,49Zm-4.9-14h2.8v9.8l-2.8-6.3Zm-4.9-20.3h-2.8V11.2h4.9l-2.1,3.5ZM91,49l-.7-.7,2.8-2.1,3.5,4.2H91Zm-.7,1.4L87.52,49l-4.9,1.4V49l2.1-1.4,5.6,1.4Zm-9.8-17.5.7-4.2,4.2-3.5,4.9,1.4-1.4,4.2L81.22,35Zm-4.2,14,1.4-17.5,1.4.7L81.22,49Zm3.5-16.8h-.7l-.7-6.3-.7,5.6h-1.4l-.7-1.4,2.8-7.7h1.4l1.4,2.8-.7,6.3Zm-4.2,20.3h-7L70,49l4.9-.7,1.4-1.4ZM67.21,16.1l-.7-2.8,1.4-2.1H70l1.4,2.1-.7,12.6-2.8-8.4ZM64.41,42l-2.1-1.4-.7-1.4,3.5,1.4,2.1,2.1-.7,2.1Zm1.4,8.4-.7-4.2,1.4-1.4V49Zm-.7-4.2L63,48.31l.7-4.9Zm-2.8,4.2V49l.7-.7Zm0-2.8-2.1-3.5,1.4-3.5h.7ZM58.81,49,56,45.51l-2.8.7-1.4-2.1,1.4-1.4-2.8-1.4-.7-2.8,1.4-2.1,10.5,2.8v1.4l-2.1-.7-1.4,1.4,2.1,2.8-1.4,6.3ZM57.41,4.2V7.7l-3.5,2.1-1.4-.7,2.1-6.3Zm-3.5,46.21h-4.2l3.5-4.2.7,2.8ZM51.81,11.2l-.7-2.8,1.4.7Zm0,33.61L49.71,49l-1.4-4.9,1.4-2.8ZM49.71,4.9l1.4,3.5h-1.4ZM30.11,37.81l-2.8,4.9-1.4-11.2h2.8l3.5,3.5-1.4,2.1Zm-1.4,12.6L25.9,49l-2.8,1.4H4.9L0,42.71l5.6-1.4,3.5,3.5H19.6l2.8-2.1,5.6,2.1.7,4.2Z"/></g></g></svg>