<svg xmlns="http://www.w3.org/2000/svg" viewBox="0 0 300 75.09"><defs><style>.cls-1{fill:#fff;}.cls-2{fill:#382e2b;}.cls-3{fill:#392e2c;}</style></defs><title>site-logo</title><g id="Layer_2" data-name="Layer 2"><g id="Layer_1-2" data-name="Layer 1"><path class="cls-1" d="M69.82,15.74V21H70a12.51,12.51,0,0,1,5.27-4.87,16.19,16.19,0,0,1,7-1.52,17.94,17.94,0,0,1,8.39,1.84,17.41,17.41,0,0,1,5.83,4.87,20.57,20.57,0,0,1,3.43,7.07A31.34,31.34,0,0,1,101,36.82a28.32,28.32,0,0,1-1.12,8,20.38,20.38,0,0,1-3.39,6.79,16.78,16.78,0,0,1-5.67,4.71,17.08,17.08,0,0,1-7.95,1.76,16.05,16.05,0,0,1-7.07-1.56,13.38,13.38,0,0,1-5.31-4.59h-.16V71.48H59V15.74ZM84.55,48.48a9.1,9.1,0,0,0,3-2.92,12,12,0,0,0,1.64-4.19,24.86,24.86,0,0,0,.48-4.87,22.74,22.74,0,0,0-.52-4.87,13,13,0,0,0-1.72-4.27,9.59,9.59,0,0,0-3.08-3,8.56,8.56,0,0,0-4.59-1.16,8.74,8.74,0,0,0-4.68,1.16,9.35,9.35,0,0,0-3,3,12.45,12.45,0,0,0-1.63,4.23,25,25,0,0,0-.48,5,23,23,0,0,0,.52,4.87,12.67,12.67,0,0,0,1.67,4.19,9.69,9.69,0,0,0,12.38,2.92Z"/><rect class="cls-1" x="105.39" y="15.74" width="11.34" height="41.29"/><polygon class="cls-1" points="34.42 0 21.56 0 0 57.03 12.62 57.03 17.09 44.33 17.08 44.33 20.36 34.98 20.36 34.98 27.79 14.05 27.95 14.05 35.14 34.98 26.59 34.98 23.31 44.33 38.42 44.33 42.73 57.03 55.74 57.03 34.42 0"/><polygon class="cls-2" points="105.39 9.34 108.68 0 120.02 0 116.73 9.34 105.39 9.34"/><path class="cls-3" d="M127.89,57.14,152.19,0h3.38l24.3,57.13h-4.43l-8-18.83H140.2l-8,18.83ZM153.88,5,141.17,34.94h25.18Z"/><path class="cls-3" d="M204.49,57.79a17.56,17.56,0,0,1-8-1.81,20.47,20.47,0,0,1-6.28-4.83,22,22,0,0,1-4.1-6.88,22.5,22.5,0,0,1-1.45-8,24.22,24.22,0,0,1,1.41-8.21,22,22,0,0,1,4-7,19.17,19.17,0,0,1,6.15-4.79,17.47,17.47,0,0,1,7.85-1.77,16.16,16.16,0,0,1,9.53,2.86,28.6,28.6,0,0,1,7,7V15.3h3.62V57.95a16.54,16.54,0,0,1-1.61,7.48,15.65,15.65,0,0,1-4.3,5.35A18.83,18.83,0,0,1,212,74a25.77,25.77,0,0,1-7.52,1.09A28.5,28.5,0,0,1,198,74.4a19.5,19.5,0,0,1-5.11-1.93,16.9,16.9,0,0,1-3.94-3.06,21.85,21.85,0,0,1-3-4l2.74-1.85a15,15,0,0,0,6.76,6.24,21.41,21.41,0,0,0,9.09,2,20.43,20.43,0,0,0,6.07-.89,14.8,14.8,0,0,0,5-2.61,12.48,12.48,0,0,0,3.38-4.3,13.71,13.71,0,0,0,1.25-6V48.78a19.91,19.91,0,0,1-6.84,6.52A17.3,17.3,0,0,1,204.49,57.79Zm1-3.46a13.63,13.63,0,0,0,5.15-1,18.57,18.57,0,0,0,4.55-2.61,16.14,16.14,0,0,0,3.42-3.62,9.08,9.08,0,0,0,1.61-4V29.3a18.09,18.09,0,0,0-2.57-4.47,17.4,17.4,0,0,0-3.66-3.5A18.25,18.25,0,0,0,209.52,19a14.19,14.19,0,0,0-4.79-.84A14,14,0,0,0,198,19.81a16.22,16.22,0,0,0-5,4.18,18.83,18.83,0,0,0-3.14,5.83,20.61,20.61,0,0,0-1.09,6.56A18.23,18.23,0,0,0,190,43.22a18.5,18.5,0,0,0,3.58,5.71,17.36,17.36,0,0,0,5.31,3.94A15,15,0,0,0,205.46,54.33Z"/><path class="cls-3" d="M256.39,18.92A16.34,16.34,0,0,0,240.62,31V57.14h-4V15.3h3.78V25.6a20.21,20.21,0,0,1,5.75-7.2,14.74,14.74,0,0,1,7.68-3.18q.8,0,1.45,0t1.13,0Z"/><path class="cls-3" d="M279.48,57.95a19.22,19.22,0,0,1-8.17-1.73,20.21,20.21,0,0,1-6.48-4.71,21.68,21.68,0,0,1-4.26-6.92A22.71,22.71,0,0,1,259,36.3a22.43,22.43,0,0,1,1.57-8.37A21.94,21.94,0,0,1,265,21a20.86,20.86,0,0,1,6.48-4.71,18.77,18.77,0,0,1,8-1.73,19,19,0,0,1,8.09,1.73A20.72,20.72,0,0,1,294.09,21a21.93,21.93,0,0,1,4.34,6.92,22.69,22.69,0,0,1-4.3,23.58,20.12,20.12,0,0,1-6.52,4.71A19.32,19.32,0,0,1,279.48,57.95ZM263.15,36.46a18.75,18.75,0,0,0,1.29,7,18.15,18.15,0,0,0,3.5,5.67,16.58,16.58,0,0,0,5.19,3.82,15.05,15.05,0,0,0,12.71,0A16,16,0,0,0,291,49a19.9,19.9,0,0,0,3.54-5.75,18.48,18.48,0,0,0,1.33-7,18.27,18.27,0,0,0-1.33-7A19.36,19.36,0,0,0,291,23.55a16.87,16.87,0,0,0-5.19-3.9,14.34,14.34,0,0,0-6.36-1.45,14.16,14.16,0,0,0-6.28,1.45A17,17,0,0,0,268,23.59a18.57,18.57,0,0,0-3.54,5.83A19.39,19.39,0,0,0,263.15,36.46Z"/></g></g></svg>